{
.formatVersion = 3;
axes = (
{
name = Weight;
tag = wght;
},
{
name = Width;
tag = wdth;
}
);
classes = (
{

glyphs = (
{
glyphname = .notdef;
layers = (
{
layerId = "CFAEB7A8-48EA-4DE1-AFDA-6738335377BD";
shapes = (
{
closed = 1;
nodes = (
(821,0,l),
(821,1400,l),
(60,1400,l),
(60,0,l)
);
},
{
closed = 1;
nodes = (
(180,1260,l),
(701,1260,l),
(701,140,l),
(180,140,l)
);
}
);
width = 881;
},
{
layerId = "C062F820-65A0-41D8-894E-E8AB249BF7F4";
shapes = (
{
closed = 1;
nodes = (
(821,0,l),
(821,1397,l),
(60,1397,l),
(60,0,l)
);
},
{
closed = 1;
nodes = (
(180,1257,l),
(701,1257,l),
(701,140,l),
(180,140,l)
);
}
);
width = 881;
},
{
layerId = "58A41879-64B1-4F52-8959-748DC716EC4E";
shapes = (
{
closed = 1;
nodes = (
(821,0,l),
(821,1400,l),
(60,1400,l),
(60,0,l)
);
},
{
closed = 1;
nodes = (
(180,1260,l),
(701,1260,l),
(701,140,l),
(180,140,l)
);
}
);
width = 881;
},
{
layerId = "DCC69D3D-7CEF-4C2A-8AC6-F0104D87F396";
shapes = (
{
closed = 1;
nodes = (
(1094,0,l),
(1094,1400,l),
(80,1400,l),
(80,0,l)
);
},
{
closed = 1;
nodes = (
(240,1260,l),
(934,1260,l),
(934,140,l),
(240,140,l)
);
}
);
width = 1174;
},
{
layerId = "80EDA03B-FCE6-4340-AE48-D9302D36C121";
shapes = (
{
closed = 1;
nodes = (
(1094,0,l),
(1094,1400,l),
(80,1400,l),
(80,0,l)
);
},
{
closed = 1;
nodes = (
(240,1260,l),
(934,1260,l),
(934,140,l),
(240,140,l)
);
}
);
width = 1174;
},
{
layerId = "AC0EE6F4-16E5-4030-8D81-C9AA237C4AA5";
shapes = (
{
closed = 1;
nodes = (
(1094,0,l),
(1094,1400,l),
(80,1400,l),
(80,0,l)
);
},
{
closed = 1;
nodes = (
(240,1260,l),
(934,1260,l),
(934,140,l),
(240,140,l)
);
}
);
width = 1174;
}
);
leftKerningGroup = .notdef;
rightKerningGroup = .notdef;
},
{
glyphname = exclam;
layers = (
{
layerId = "CFAEB7A8-48EA-4DE1-AFDA-6738335377BD";
shapes = (
{
closed = 1;
nodes = (
(254,1400,l),
(182,1032,l),
(140,516,l),
(341,516,l),
(503,1032,l),
(575,1400,l)
);
},
{
closed = 1;
nodes = (
(112,394,o),
(34,306,o),
(27,168,cs),
(22,58,o),
(74,-16,o),
(158,-16,cs),
(255,-16,o),
(330,80,o),
(337,210,cs),
(342,320,o),
(290,394,o),
(205,394,cs)
);
}
);
width = 441;
},
{
layerId = "C062F820-65A0-41D8-894E-E8AB249BF7F4";
shapes = (
{
closed = 1;
nodes = (
(326,1397,l),
(256,1037,l),
(124,375,l),
(154,375,l),
(286,1037,l),
(356,1397,l)
);
},
{
closed = 1;
nodes = (
(58,90,o),
(37,64,o),
(35,34,cs),
(34,6,o),
(48,-14,o),
(69,-14,cs),
(92,-14,o),
(113,12,o),
(114,42,cs),
(116,70,o),
(101,90,o),
(80,90,cs)
);
}
);
width = 288;
},
{
layerId = "58A41879-64B1-4F52-8959-748DC716EC4E";
shapes = (
{
closed = 1;
nodes = (
(290,1400,l),
(220,1038,l),
(128,440,l),
(237,440,l),
(383,1038,l),
(454,1400,l)
);
},
{
closed = 1;
nodes = (
(78,236,o),
(30,176,o),
(26,98,cs),
(23,30,o),
(56,-18,o),
(107,-18,cs),
(165,-18,o),
(213,44,o),
(217,122,cs),
(220,190,o),
(188,236,o),
(137,236,cs)
);
}
);
width = 315;
},
{
layerId = "80EDA03B-FCE6-4340-AE48-D9302D36C121";
shapes = (
{
closed = 1;
nodes = (
(247,1400,l),
(175,1032,l),
(153,516,l),
(421,516,l),
(603,1032,l),
(675,1400,l)
);
},
{
closed = 1;
nodes = (
(123,394,o),
(25,306,o),
(25,168,cs),
(25,58,o),
(99,-16,o),
(211,-16,cs),
(341,-16,o),
(435,80,o),
(435,210,cs),
(435,320,o),
(361,394,o),
(247,394,cs)
);
}
);
width = 588;
},
{
layerId = "AC0EE6F4-16E5-4030-8D81-C9AA237C4AA5";
shapes = (
{
closed = 1;
nodes = (
(296,1400,l),
(225,1038,l),
(141,440,l),
(287,440,l),
(443,1038,l),
(514,1400,l)
);
},
{
closed = 1;
nodes = (
(89,236,o),
(29,176,o),
(29,98,cs),
(29,30,o),
(75,-18,o),
(143,-18,cs),
(221,-18,o),
(281,44,o),
(281,122,cs),
(281,190,o),
(235,236,o),
(167,236,cs)
);
}
);
width = 420;
},
{
layerId = "DCC69D3D-7CEF-4C2A-8AC6-F0104D87F396";
shapes = (
{
closed = 1;
nodes = (
(344,1400,l),
(273,1040,l),
(141,376,l),
(181,376,l),
(313,1040,l),
(384,1400,l)
);
},
{
closed = 1;
nodes = (
(71,90,o),
(45,64,o),
(45,34,cs),
(45,6,o),
(65,-14,o),
(93,-14,cs),
(123,-14,o),
(149,12,o),
(149,42,cs),
(149,70,o),
(129,90,o),
(101,90,cs)
);
}
);
width = 384;
}
);
leftKerningGroup = exclam;
rightKerningGroup = exclam;
unicode = 33;
},
{
glyphname = numbersign;
layers = (
{
layerId = "CFAEB7A8-48EA-4DE1-AFDA-6738335377BD";
shapes = (
{
closed = 1;
nodes = (
(788,0,l),
(1079,1400,l),
(839,1400,l),
(549,0,l)
);
},
{
closed = 1;
nodes = (
(1104,582,l),
(78,582,l),
(14,276,l),
(1040,276,l)
);
},
{
closed = 1;
nodes = (
(392,0,l),
(682,1400,l),
(443,1400,l),
(152,0,l)
);
},
{
closed = 1;
nodes = (
(1214,1106,l),
(188,1106,l),
(125,800,l),
(1151,800,l)
);
}
);
width = 1116;
},
{
layerId = "C062F820-65A0-41D8-894E-E8AB249BF7F4";
shapes = (
{
closed = 1;
nodes = (
(658,0,l),
(948,1397,l),
(918,1397,l),
(628,0,l)
);
},
{
closed = 1;
nodes = (
(974,455,l),
(103,455,l),
(101,415,l),
(972,415,l)
);
},
{
closed = 1;
nodes = (
(266,0,l),
(557,1397,l),
(527,1397,l),
(236,0,l)
);
},
{
closed = 1;
nodes = (
(1082,976,l),
(211,976,l),
(207,936,l),
(1079,936,l)
);
}
);
width = 1062;
},
{
layerId = "58A41879-64B1-4F52-8959-748DC716EC4E";
shapes = (
{
closed = 1;
nodes = (
(718,0,l),
(1007,1400,l),
(881,1400,l),
(590,0,l)
);
},
{
closed = 1;
nodes = (
(1033,514,l),
(91,514,l),
(59,352,l),
(1002,352,l)
);
},
{
closed = 1;
nodes = (
(323,0,l),
(614,1400,l),
(486,1400,l),
(197,0,l)
);
},
{
closed = 1;
nodes = (
(1142,1036,l),
(199,1036,l),
(168,874,l),
(1112,874,l)
);
}
);
width = 1088;
},
{
layerId = "80EDA03B-FCE6-4340-AE48-D9302D36C121";
shapes = (
{
closed = 1;
nodes = (
(1050,0,l),
(1348,1400,l),
(1028,1400,l),
(732,0,l)
);
},
{
closed = 1;
nodes = (
(1434,582,l),
(66,582,l),
(0,276,l),
(1368,276,l)
);
},
{
closed = 1;
nodes = (
(522,0,l),
(818,1400,l),
(500,1400,l),
(202,0,l)
);
},
{
closed = 1;
nodes = (
(1546,1106,l),
(178,1106,l),
(114,800,l),
(1482,800,l)
);
}
);
width = 1488;
},
{
layerId = "AC0EE6F4-16E5-4030-8D81-C9AA237C4AA5";
shapes = (
{
closed = 1;
nodes = (
(957,0,l),
(1251,1400,l),
(1083,1400,l),
(787,0,l)
);
},
{
closed = 1;
nodes = (
(1343,514,l),
(87,514,l),
(55,352,l),
(1313,352,l)
);
},
{
closed = 1;
nodes = (
(431,0,l),
(727,1400,l),
(557,1400,l),
(263,0,l)
);
},
{
closed = 1;
nodes = (
(1455,1036,l),
(197,1036,l),
(167,874,l),
(1425,874,l)
);
}
);
width = 1450;
},
{
layerId = "DCC69D3D-7CEF-4C2A-8AC6-F0104D87F396";
shapes = (
{
closed = 1;
nodes = (
(877,0,l),
(1173,1400,l),
(1133,1400,l),
(837,0,l)
);
},
{
closed = 1;
nodes = (
(1269,456,l),
(107,456,l),
(107,416,l),
(1269,416,l)
);
},
{
closed = 1;
nodes = (
(355,0,l),
(651,1400,l),
(611,1400,l),
(315,0,l)
);
},
{
closed = 1;
nodes = (
(1379,978,l),
(217,978,l),
(215,938,l),
(1377,938,l)
);
}
);
width = 1416;
}
);
leftKerningGroup = numbersign;
rightKerningGroup = numbersign;
unicode = 35;
},
{
glyphname = dollar;
layers = (
{
layerId = "CFAEB7A8-48EA-4DE1-AFDA-6738335377BD";
shapes = (
{
closed = 1;
nodes = (
(347,236,l),
(236,-330,l),
(485,-330,l),
(596,236,l)
);
},
{
closed = 1;
nodes = (
(643,1728,l),
(530,1158,l),
(779,1158,l),
(892,1728,l)
);
},
{
closed = 1;
nodes = (
(370,1420,o),
(164,1228,o),
(149,926,cs),
(128,484,o),
(629,584,o),
(620,416,cs),
(618,362,o),
(581,338,o),
(527,338,cs),
(420,338,o),
(246,436,o),
(153,556,c),
(-18,208,l),
(104,66,o),
(298,-16,o),
(481,-16,cs),
(731,-16,o),
(965,134,o),
(982,474,cs),
(1004,932,o),
(505,840,o),
(512,1004,cs),
(515,1048,o),
(544,1066,o),
(584,1066,cs),
(676,1066,o),
(830,980,o),
(926,902,c),
(1097,1254,l),
(990,1354,o),
(826,1420,o),
(659,1420,cs)
);
}
);
width = 996;
},
{
layerId = "C062F820-65A0-41D8-894E-E8AB249BF7F4";
shapes = (
{
closed = 1;
nodes = (
(322,14,l),
(273,-238,l),
(303,-238,l),
(352,14,l)
);
},
{
closed = 1;
nodes = (
(637,1604,l),
(593,1381,l),
(623,1381,l),
(667,1604,l)
);
},
{
closed = 1;
nodes = (
(389,1400,o),
(241,1279,o),
(218,1089,cs),
(156,577,o),
(794,820,o),
(732,335,cs),
(710,152,o),
(566,34,o),
(366,34,cs),
(239,34,o),
(115,106,o),
(48,220,c),
(23,190,l),
(97,72,o),
(228,-6,o),
(362,-6,cs),
(579,-6,o),
(737,128,o),
(762,335,cs),
(831,860,o),
(191,619,o),
(250,1089,cs),
(270,1255,o),
(404,1361,o),
(590,1361,cs),
(683,1361,o),
(785,1325,o),
(845,1267,c),
(865,1299,l),
(799,1361,o),
(692,1400,o),
(595,1400,cs)
);
}
);
width = 890;
},
{
layerId = "58A41879-64B1-4F52-8959-748DC716EC4E";
shapes = (
{
closed = 1;
nodes = (
(323,110,l),
(246,-280,l),
(377,-280,l),
(454,110,l)
);
},
{
closed = 1;
nodes = (
(629,1662,l),
(557,1288,l),
(687,1288,l),
(761,1662,l)
);
},
{
closed = 1;
nodes = (
(378,1410,o),
(206,1260,o),
(176,1024,cs),
(114,526,o),
(696,704,o),
(656,382,cs),
(644,270,o),
(562,204,o),
(439,204,cs),
(326,204,o),
(200,276,o),
(109,408,c),
(8,214,l),
(100,84,o),
(244,-8,o),
(409,-8,cs),
(640,-8,o),
(825,148,o),
(855,394,cs),
(918,896,o),
(339,730,o),
(377,1044,cs),
(389,1142,o),
(464,1196,o),
(567,1196,cs),
(647,1196,o),
(756,1162,o),
(858,1068,c),
(956,1266,l),
(869,1352,o),
(743,1410,o),
(606,1410,cs)
);
}
);
width = 933;
},
{
layerId = "80EDA03B-FCE6-4340-AE48-D9302D36C121";
shapes = (
{
closed = 1;
nodes = (
(448,236,l),
(336,-330,l),
(668,-330,l),
(780,236,l)
);
},
{
closed = 1;
nodes = (
(744,1728,l),
(630,1158,l),
(962,1158,l),
(1076,1728,l)
);
},
{
closed = 1;
nodes = (
(400,1420,o),
(138,1228,o),
(138,926,cs),
(138,484,o),
(800,584,o),
(800,416,cs),
(800,362,o),
(752,338,o),
(680,338,cs),
(538,338,o),
(300,436,o),
(168,556,c),
(-38,208,l),
(134,66,o),
(398,-16,o),
(642,-16,cs),
(976,-16,o),
(1278,134,o),
(1278,474,cs),
(1278,932,o),
(618,840,o),
(618,1004,cs),
(618,1048,o),
(656,1066,o),
(710,1066,cs),
(832,1066,o),
(1042,980,o),
(1176,902,c),
(1380,1254,l),
(1232,1354,o),
(1008,1420,o),
(786,1420,cs)
);
}
);
width = 1328;
},
{
layerId = "AC0EE6F4-16E5-4030-8D81-C9AA237C4AA5";
shapes = (
{
closed = 1;
nodes = (
(424,110,l),
(346,-280,l),
(520,-280,l),
(598,110,l)
);
},
{
closed = 1;
nodes = (
(730,1662,l),
(658,1288,l),
(832,1288,l),
(906,1662,l)
);
},
{
closed = 1;
nodes = (
(412,1410,o),
(192,1260,o),
(168,1024,cs),
(118,526,o),
(882,704,o),
(850,382,cs),
(840,270,o),
(736,204,o),
(572,204,cs),
(422,204,o),
(248,276,o),
(118,408,c),
(-4,214,l),
(128,84,o),
(326,-8,o),
(546,-8,cs),
(854,-8,o),
(1090,148,o),
(1114,394,cs),
(1166,896,o),
(404,730,o),
(434,1044,cs),
(444,1142,o),
(540,1196,o),
(678,1196,cs),
(784,1196,o),
(932,1162,o),
(1074,1068,c),
(1192,1266,l),
(1070,1352,o),
(898,1410,o),
(716,1410,cs)
);
}
);
width = 1244;
},
{
layerId = "DCC69D3D-7CEF-4C2A-8AC6-F0104D87F396";
shapes = (
{
closed = 1;
nodes = (
(428,14,l),
(380,-238,l),
(420,-238,l),
(468,14,l)
);
},
{
closed = 1;
nodes = (
(744,1608,l),
(700,1384,l),
(740,1384,l),
(784,1608,l)
);
},
{
closed = 1;
nodes = (
(428,1404,o),
(238,1282,o),
(220,1092,cs),
(170,578,o),
(1006,822,o),
(954,336,cs),
(936,152,o),
(752,34,o),
(486,34,cs),
(316,34,o),
(146,106,o),
(50,220,c),
(18,190,l),
(124,72,o),
(304,-6,o),
(482,-6,cs),
(772,-6,o),
(974,128,o),
(994,336,cs),
(1052,862,o),
(214,620,o),
(262,1092,cs),
(278,1258,o),
(450,1364,o),
(698,1364,cs),
(822,1364,o),
(960,1328,o),
(1044,1270,c),
(1068,1302,l),
(976,1364,o),
(832,1404,o),
(702,1404,cs)
);
}
);
width = 1186;
}
);
leftKerningGroup = S;
rightKerningGroup = S;
unicode = 36;
},
{
glyphname = percent;
layers = (
{
layerId = "CFAEB7A8-48EA-4DE1-AFDA-6738335377BD";
shapes = (
{
closed = 1;
nodes = (
(293,1420,o),
(140,1222,o),
(127,950,cs),
(118,762,o),
(191,640,o),
(325,640,cs),
(509,640,o),
(660,840,o),
(674,1114,cs),
(683,1298,o),
(611,1420,o),
(476,1420,cs)
);
},
{
closed = 1;
nodes = (
(458,1190,o),
(470,1144,o),
(467,1084,cs),
(461,968,o),
(413,872,o),
(371,872,cs),
(344,872,o),
(332,914,o),
(335,978,cs),
(341,1092,o),
(388,1190,o),
(431,1190,cs)
);
},
{
closed = 1;
nodes = (
(1256,1402,l),
(1019,1402,l),
(220,0,l),
(457,0,l)
);
},
{
closed = 1;
nodes = (
(973,770,o),
(821,572,o),
(808,300,cs),
(798,112,o),
(872,-10,o),
(1005,-10,cs),
(1190,-10,o),
(1340,190,o),
(1354,464,cs),
(1363,648,o),
(1291,770,o),
(1156,770,cs)
);
},
{
closed = 1;
nodes = (
(1139,540,o),
(1150,494,o),
(1147,434,cs),
(1142,318,o),
(1093,222,o),
(1051,222,cs),
(1024,222,o),
(1013,264,o),
(1016,328,cs),
(1022,442,o),
(1068,540,o),
(1112,540,cs)
);
}
);
width = 1362;
},
{
layerId = "C062F820-65A0-41D8-894E-E8AB249BF7F4";
shapes = (
{
closed = 1;
nodes = (
(377,1403,o),
(267,1199,o),
(254,920,cs),
(245,750,o),
(295,656,o),
(397,656,cs),
(562,656,o),
(674,856,o),
(687,1137,cs),
(695,1305,o),
(644,1403,o),
(541,1403,cs)
);
},
{
closed = 1;
nodes = (
(622,1369,o),
(663,1285,o),
(656,1136,cs),
(644,882,o),
(551,692,o),
(403,692,cs),
(317,692,o),
(276,774,o),
(284,924,cs),
(296,1175,o),
(386,1369,o),
(535,1369,cs)
);
},
{
closed = 1;
nodes = (
(1160,1394,l),
(1127,1394,l),
(252,0,l),
(285,0,l)
);
},
{
closed = 1;
nodes = (
(849,738,o),
(739,535,o),
(725,255,cs),
(717,86,o),
(766,-8,o),
(868,-8,cs),
(1033,-8,o),
(1145,191,o),
(1159,473,cs),
(1167,641,o),
(1116,738,o),
(1013,738,cs)
);
},
{
closed = 1;
nodes = (
(1094,704,o),
(1134,620,o),
(1127,471,cs),
(1115,218,o),
(1023,28,o),
(875,28,cs),
(789,28,o),
(748,110,o),
(755,260,cs),
(767,511,o),
(858,704,o),
(1007,704,cs)
);
}
);
width = 1287;
},
{
layerId = "58A41879-64B1-4F52-8959-748DC716EC4E";
shapes = (
{
closed = 1;
nodes = (
(333,1410,o),
(203,1214,o),
(190,940,cs),
(182,764,o),
(241,656,o),
(358,656,cs),
(532,656,o),
(659,850,o),
(673,1126,cs),
(682,1302,o),
(623,1410,o),
(504,1410,cs)
);
},
{
closed = 1;
nodes = (
(537,1284,o),
(563,1218,o),
(559,1112,cs),
(549,926,o),
(479,782,o),
(383,782,cs),
(326,782,o),
(301,844,o),
(306,954,cs),
(315,1138,o),
(386,1284,o),
(480,1284,cs)
);
},
{
closed = 1;
nodes = (
(1196,1400,l),
(1073,1400,l),
(233,0,l),
(357,0,l)
);
},
{
closed = 1;
nodes = (
(895,750,o),
(765,554,o),
(752,280,cs),
(743,104,o),
(803,-4,o),
(920,-4,cs),
(1094,-4,o),
(1221,190,o),
(1235,466,cs),
(1244,642,o),
(1184,750,o),
(1066,750,cs)
);
},
{
closed = 1;
nodes = (
(1099,624,o),
(1125,558,o),
(1120,452,cs),
(1111,266,o),
(1041,122,o),
(945,122,cs),
(888,122,o),
(863,184,o),
(868,294,cs),
(877,478,o),
(947,624,o),
(1042,624,cs)
);
}
);
width = 1302;
},
{
layerId = "80EDA03B-FCE6-4340-AE48-D9302D36C121";
shapes = (
{
closed = 1;
nodes = (
(297,1420,o),
(107,1222,o),
(107,950,cs),
(107,762,o),
(213,640,o),
(391,640,cs),
(637,640,o),
(825,840,o),
(825,1114,cs),
(825,1298,o),
(721,1420,o),
(541,1420,cs)
);
},
{
closed = 1;
nodes = (
(533,1190,o),
(551,1144,o),
(551,1084,cs),
(551,968,o),
(493,872,o),
(437,872,cs),
(401,872,o),
(383,914,o),
(383,978,cs),
(383,1092,o),
(439,1190,o),
(497,1190,cs)
);
},
{
closed = 1;
nodes = (
(1583,1402,l),
(1267,1402,l),
(293,0,l),
(609,0,l)
);
},
{
closed = 1;
nodes = (
(1247,770,o),
(1057,572,o),
(1057,300,cs),
(1057,112,o),
(1163,-10,o),
(1341,-10,cs),
(1587,-10,o),
(1775,190,o),
(1775,464,cs),
(1775,648,o),
(1671,770,o),
(1491,770,cs)
);
},
{
closed = 1;
nodes = (
(1483,540,o),
(1501,494,o),
(1501,434,cs),
(1501,318,o),
(1443,222,o),
(1387,222,cs),
(1351,222,o),
(1333,264,o),
(1333,328,cs),
(1333,442,o),
(1389,540,o),
(1447,540,cs)
);
}
);
width = 1816;
},
{
layerId = "AC0EE6F4-16E5-4030-8D81-C9AA237C4AA5";
shapes = (
{
closed = 1;
nodes = (
(352,1410,o),
(192,1214,o),
(192,940,cs),
(192,764,o),
(278,656,o),
(434,656,cs),
(666,656,o),
(824,850,o),
(824,1126,cs),
(824,1302,o),
(738,1410,o),
(580,1410,cs)
);
},
{
closed = 1;
nodes = (
(632,1284,o),
(672,1218,o),
(672,1112,cs),
(672,926,o),
(588,782,o),
(460,782,cs),
(384,782,o),
(346,844,o),
(346,954,cs),
(346,1138,o),
(430,1284,o),
(556,1284,cs)
);
},
{
closed = 1;
nodes = (
(1504,1400,l),
(1340,1400,l),
(310,0,l),
(476,0,l)
);
},
{
closed = 1;
nodes = (
(1144,750,o),
(984,554,o),
(984,280,cs),
(984,104,o),
(1070,-4,o),
(1226,-4,cs),
(1458,-4,o),
(1616,190,o),
(1616,466,cs),
(1616,642,o),
(1530,750,o),
(1372,750,cs)
);
},
{
closed = 1;
nodes = (
(1424,624,o),
(1464,558,o),
(1464,452,cs),
(1464,266,o),
(1380,122,o),
(1252,122,cs),
(1176,122,o),
(1138,184,o),
(1138,294,cs),
(1138,478,o),
(1222,624,o),
(1348,624,cs)
);
}
);
width = 1736;
},
{
layerId = "DCC69D3D-7CEF-4C2A-8AC6-F0104D87F396";
shapes = (
{
closed = 1;
nodes = (
(412,1406,o),
(278,1202,o),
(278,922,cs),
(278,752,o),
(350,658,o),
(486,658,cs),
(706,658,o),
(842,858,o),
(842,1140,cs),
(842,1308,o),
(768,1406,o),
(630,1406,cs)
);
},
{
closed = 1;
nodes = (
(740,1372,o),
(800,1288,o),
(800,1138,cs),
(800,884,o),
(690,694,o),
(492,694,cs),
(378,694,o),
(318,776,o),
(318,926,cs),
(318,1178,o),
(426,1372,o),
(624,1372,cs)
);
},
{
closed = 1;
nodes = (
(1456,1398,l),
(1412,1398,l),
(336,0,l),
(380,0,l)
);
},
{
closed = 1;
nodes = (
(1084,740,o),
(950,536,o),
(950,256,cs),
(950,86,o),
(1022,-8,o),
(1158,-8,cs),
(1378,-8,o),
(1514,192,o),
(1514,474,cs),
(1514,642,o),
(1440,740,o),
(1302,740,cs)
);
},
{
closed = 1;
nodes = (
(1412,706,o),
(1472,622,o),
(1472,472,cs),
(1472,218,o),
(1362,28,o),
(1164,28,cs),
(1050,28,o),
(990,110,o),
(990,260,cs),
(990,512,o),
(1098,706,o),
(1296,706,cs)
);
}
);
width = 1716;
}
);
leftKerningGroup = percent;
rightKerningGroup = percent;
unicode = 37;
},
{
color = 0;
glyphname = ampersand;
layers = (
{
background = {
shapes = (
{
closed = 1;
nodes = (
(1494,248,l),
(758,874,ls),
(640,974,o),
(614,1006,o),
(614,1052,cs),
(614,1100,o),
(650,1132,o),
(702,1132,cs),
(778,1132,o),
(824,1080,o),
(862,1012,c),
(1172,1198,l),
(1082,1358,o),
(912,1424,o),
(706,1424,cs),
(420,1424,o),
(204,1270,o),
(204,1046,cs),
(204,928,o),
(270,816,o),
(404,702,cs),
(1252,-26,l)
);
},
{
closed = 1;
nodes = (
(550,880,l),
(300,778,o),
(52,666,o),
(52,384,cs),
(52,114,o),
(300,-32,o),
(636,-32,cs),
(1068,-32,o),
(1402,262,o),
(1494,676,c),
(1132,784,l),
(1078,482,o),
(884,304,o),
(690,304,cs),
(558,304,o),
(494,358,o),
(494,430,cs),
(494,554,o),
(626,600,o),
(750,644,c)
);
}
);
};
layerId = "CFAEB7A8-48EA-4DE1-AFDA-6738335377BD";
shapes = (
{
closed = 1;
nodes = (
(1064,248,l),
(636,874,ls),
(614,907,o),
(557,981,o),
(560,1031,cs),
(563,1083,o),
(602,1134,o),
(638,1134,cs),
(695,1134,o),
(726,1078,o),
(748,1018,c),
(1010,1198,l),
(943,1356,o),
(835,1424,o),
(647,1424,cs),
(474,1424,o),
(262,1275,o),
(249,1009,cs),
(243,893,o),
(281,784,o),
(336,702,cs),
(827,-26,l)
);
},
{
closed = 1;
nodes = (
(481,880,l),
(284,808,o),
(20,698,o),
(4,362,cs),
(-11,65,o),
(252,-32,o),
(432,-32,cs),
(773,-32,o),
(1023,293,o),
(1148,676,c),
(899,784,l),
(836,585,o),
(695,296,o),
(494,296,cs),
(437,296,o),
(342,323,o),
(347,419,cs),
(353,556,o),
(510,616,o),
(584,644,c)
);
}
);
width = 1166;
},
{
background = {
shapes = (
{
closed = 1;
nodes = (
(860,-6,o),
(1074,176,o),
(1150,572,c),
(1116,580,l),
(1044,204,o),
(844,28,o),
(546,28,cs),
(314,28,o),
(152,150,o),
(152,336,cs),
(152,482,o),
(234,586,o),
(520,758,cs),
(796,924,o),
(882,1016,o),
(882,1156,cs),
(882,1312,o),
(772,1406,o),
(600,1406,cs),
(414,1406,o),
(298,1298,o),
(298,1136,cs),
(298,1030,o),
(332,954,o),
(474,800,cs),
(1208,-2,l),
(1258,2,l),
(510,818,ls),
(372,970,o),
(338,1040,o),
(338,1136,cs),
(338,1274,o),
(434,1368,o),
(600,1368,cs),
(756,1368,o),
(844,1284,o),
(844,1156,cs),
(844,1024,o),
(760,944,o),
(494,786,cs),
(206,614,o),
(112,490,o),
(112,336,cs),
(112,130,o),
(292,-6,o),
(546,-6,cs)
);
}
);
};
layerId = "C062F820-65A0-41D8-894E-E8AB249BF7F4";
shapes = (
{
closed = 1;
nodes = (
(836,6,l),
(440,816,ls),
(402,893,o),
(364,1001,o),
(369,1100,cs),
(377,1260,o),
(470,1364,o),
(588,1364,cs),
(662,1364,o),
(717,1333,o),
(770,1259,c),
(798,1287,l),
(742,1366,o),
(671,1403,o),
(593,1403,cs),
(455,1403,o),
(346,1280,o),
(337,1092,cs),
(332,988,o),
(368,881,o),
(410,798,cs),
(809,-20,l)
);
},
{
closed = 1;
nodes = (
(428,788,l),
(272,710,o),
(53,563,o),
(40,311,cs),
(29,82,o),
(207,-6,o),
(353,-6,cs),
(632,-6,o),
(791,323,o),
(887,632,c),
(860,638,l),
(769,345,o),
(620,36,o),
(356,36,cs),
(227,36,o),
(61,105,o),
(71,314,cs),
(83,551,o),
(297,686,o),
(443,760,c)
);
}
);
width = 951;
},
{
layerId = "58A41879-64B1-4F52-8959-748DC716EC4E";
shapes = (
{
closed = 1;
nodes = (
(938,124,l),
(526,846,ls),
(494,902,o),
(448,1002,o),
(452,1079,cs),
(458,1190,o),
(521,1256,o),
(602,1256,cs),
(674,1256,o),
(710,1217,o),
(763,1146,c),
(881,1256,l),
(813,1369,o),
(715,1414,o),
(614,1414,cs),
(455,1414,o),
(308,1285,o),
(296,1058,cs),
(291,949,o),
(330,833,o),
(377,752,cs),
(818,-22,l)
);
},
{
closed = 1;
nodes = (
(424,818,l),
(256,756,o),
(38,609,o),
(24,335,cs),
(11,78,o),
(232,-18,o),
(389,-18,cs),
(707,-18,o),
(896,322,o),
(1003,664,c),
(875,700,l),
(795,444,o),
(677,162,o),
(428,162,cs),
(334,162,o),
(184,204,o),
(192,364,cs),
(201,549,o),
(379,656,o),
(488,692,c)
);
}
);
width = 1044;
},
{
layerId = "9572D127-4F8A-4B9C-9C7C-EC8B07963AA8";
associatedMasterId = "80EDA03B-FCE6-4340-AE48-D9302D36C121";
name = "22. 7. 23 14:30";
shapes = (
{
closed = 1;
nodes = (
(1494,248,l),
(758,874,ls),
(640,974,o),
(614,1006,o),
(614,1052,cs),
(614,1098,o),
(662,1132,o),
(750,1132,cs),
(772,1132,o),
(792,1132,o),
(812,1130,c),
(870,1420,l),
(830,1422,o),
(790,1424,o),
(748,1424,cs),
(420,1424,o),
(204,1270,o),
(204,1046,cs),
(204,928,o),
(268,814,o),
(404,702,cs),
(1252,-26,l)
);
},
{
closed = 1;
nodes = (
(550,880,l),
(382,812,o),
(52,684,o),
(52,374,cs),
(52,140,o),
(300,-32,o),
(636,-32,cs),
(1068,-32,o),
(1402,262,o),
(1534,784,c),
(1132,784,l),
(1078,482,o),
(884,304,o),
(670,304,cs),
(558,304,o),
(494,358,o),
(494,424,cs),
(494,554,o),
(650,604,o),
(750,644,c)
);
}
);
width = 1554;
},
{
background = {
shapes = (
{
closed = 1;
nodes = (
(1494,248,l),
(758,874,ls),
(640,974,o),
(614,1006,o),
(614,1052,cs),
(614,1100,o),
(650,1132,o),
(702,1132,cs),
(778,1132,o),
(824,1080,o),
(862,1012,c),
(1172,1198,l),
(1082,1358,o),
(912,1424,o),
(706,1424,cs),
(420,1424,o),
(204,1270,o),
(204,1046,cs),
(204,928,o),
(270,816,o),
(404,702,cs),
(1252,-26,l)
);
},
{
closed = 1;
nodes = (
(550,880,l),
(300,778,o),
(52,666,o),
(52,384,cs),
(52,114,o),
(300,-32,o),
(636,-32,cs),
(1068,-32,o),
(1402,262,o),
(1494,676,c),
(1132,784,l),
(1078,482,o),
(884,304,o),
(690,304,cs),
(558,304,o),
(494,358,o),
(494,430,cs),
(494,554,o),
(626,600,o),
(750,644,c)
);
}
);
};
layerId = "80EDA03B-FCE6-4340-AE48-D9302D36C121";
shapes = (
{
closed = 1;
nodes = (
(1402,248,l),
(791,874,ls),
(759,907,o),
(679,981,o),
(679,1031,cs),
(679,1083,o),
(729,1134,o),
(776,1134,cs),
(853,1134,o),
(898,1078,o),
(931,1018,c),
(1269,1198,l),
(1169,1356,o),
(1020,1424,o),
(770,1424,cs),
(539,1424,o),
(266,1275,o),
(266,1009,cs),
(266,893,o),
(323,784,o),
(402,702,cs),
(1105,-26,l)
);
},
{
closed = 1;
nodes = (
(584,880,l),
(326,808,o),
(-19,698,o),
(-19,362,cs),
(-19,65,o),
(338,-32,o),
(578,-32,cs),
(1032,-32,o),
(1345,293,o),
(1487,676,c),
(1147,784,l),
(1076,585,o),
(907,296,o),
(639,296,cs),
(564,296,o),
(435,323,o),
(435,419,cs),
(435,556,o),
(640,616,o),
(737,644,c)
);
}
);
width = 1554;
},
{
layerId = "AC0EE6F4-16E5-4030-8D81-C9AA237C4AA5";
shapes = (
{
closed = 1;
nodes = (
(1242,124,l),
(646,846,ls),
(600,902,o),
(532,1002,o),
(532,1079,cs),
(532,1190,o),
(613,1256,o),
(720,1256,cs),
(816,1256,o),
(868,1217,o),
(942,1146,c),
(1092,1256,l),
(995,1369,o),
(861,1414,o),
(727,1414,cs),
(515,1414,o),
(326,1285,o),
(326,1058,cs),
(326,949,o),
(386,833,o),
(453,752,cs),
(1091,-22,l)
);
},
{
closed = 1;
nodes = (
(512,818,l),
(292,756,o),
(10,609,o),
(10,335,cs),
(10,78,o),
(310,-18,o),
(520,-18,cs),
(944,-18,o),
(1173,322,o),
(1294,664,c),
(1121,700,l),
(1031,444,o),
(892,162,o),
(559,162,cs),
(434,162,o),
(232,204,o),
(232,364,cs),
(232,549,o),
(462,656,o),
(605,692,c)
);
}
);
width = 1392;
},
{
layerId = "0C6A5F9C-1A8E-4883-A8BD-65A66E2103A2";
associatedMasterId = "DCC69D3D-7CEF-4C2A-8AC6-F0104D87F396";
name = "22. 7. 23 14:11";
shapes = (
{
closed = 1;
nodes = (
(1254,6,l),
(510,818,ls),
(372,970,o),
(338,1040,o),
(338,1136,cs),
(338,1274,o),
(442,1368,o),
(620,1368,cs),
(672,1368,o),
(720,1362,o),
(760,1354,c),
(774,1390,l),
(728,1400,o),
(676,1406,o),
(620,1406,cs),
(422,1406,o),
(298,1298,o),
(298,1136,cs),
(298,1030,o),
(332,954,o),
(474,800,cs),
(1224,-20,l)
);
},
{
closed = 1;
nodes = (
(502,790,l),
(208,618,o),
(112,490,o),
(112,336,cs),
(112,130,o),
(292,-6,o),
(546,-6,cs),
(860,-6,o),
(1076,194,o),
(1152,640,c),
(1116,640,l),
(1044,224,o),
(844,28,o),
(546,28,cs),
(314,28,o),
(152,150,o),
(152,336,cs),
(152,482,o),
(236,590,o),
(528,762,c)
);
}
);
width = 1268;
},
{
background = {
shapes = (
{
closed = 1;
nodes = (
(860,-6,o),
(1074,176,o),
(1150,572,c),
(1116,580,l),
(1044,204,o),
(844,28,o),
(546,28,cs),
(314,28,o),
(152,150,o),
(152,336,cs),
(152,482,o),
(234,586,o),
(520,758,cs),
(796,924,o),
(882,1016,o),
(882,1156,cs),
(882,1312,o),
(772,1406,o),
(600,1406,cs),
(414,1406,o),
(298,1298,o),
(298,1136,cs),
(298,1030,o),
(332,954,o),
(474,800,cs),
(1208,-2,l),
(1258,2,l),
(510,818,ls),
(372,970,o),
(338,1040,o),
(338,1136,cs),
(338,1274,o),
(434,1368,o),
(600,1368,cs),
(756,1368,o),
(844,1284,o),
(844,1156,cs),
(844,1024,o),
(760,944,o),
(494,786,cs),
(206,614,o),
(112,490,o),
(112,336,cs),
(112,130,o),
(292,-6,o),
(546,-6,cs)
);
}
);
};
layerId = "DCC69D3D-7CEF-4C2A-8AC6-F0104D87F396";
shapes = (
{
closed = 1;
nodes = (
(1115,6,l),
(533,818,ls),
(478,895,o),
(420,1004,o),
(420,1102,cs),
(420,1263,o),
(537,1368,o),
(695,1368,cs),
(794,1368,o),
(869,1336,o),
(944,1262,c),
(980,1290,l),
(900,1369,o),
(804,1406,o),
(699,1406,cs),
(515,1406,o),
(378,1283,o),
(378,1095,cs),
(378,990,o),
(434,883,o),
(494,800,cs),
(1080,-20,l)
);
},
{
closed = 1;
nodes = (
(520,790,l),
(317,711,o),
(33,565,o),
(33,312,cs),
(33,82,o),
(276,-6,o),
(470,-6,cs),
(843,-6,o),
(1033,323,o),
(1141,634,c),
(1104,640,l),
(1003,346,o),
(825,36,o),
(473,36,cs),
(301,36,o),
(74,105,o),
(74,314,cs),
(74,552,o),
(351,687,o),
(540,762,c)
);
}
);
width = 1268;
}
);
leftKerningGroup = ampersand;
rightKerningGroup = ampersand;
unicode = 38;
},
{
glyphname = quotesingle;
layers = (
{
layerId = "CFAEB7A8-48EA-4DE1-AFDA-6738335377BD";
shapes = (
{
closed = 1;
nodes = (
(286,1400,l),
(166,796,l),
(418,796,l),
(538,1400,l)
);
}
);
width = 432;
},
{
layerId = "C062F820-65A0-41D8-894E-E8AB249BF7F4";
shapes = (
{
closed = 1;
nodes = (
(290,1397,l),
(215,1017,l),
(245,1017,l),
(320,1397,l)
);
}
);
width = 210;
},
{
layerId = "58A41879-64B1-4F52-8959-748DC716EC4E";
shapes = (
{
closed = 1;
nodes = (
(288,1400,l),
(193,916,l),
(325,916,l),
(420,1400,l)
);
}
);
width = 312;
},
{
layerId = "80EDA03B-FCE6-4340-AE48-D9302D36C121";
shapes = (
{
closed = 1;
nodes = (
(290,1400,l),
(170,796,l),
(506,796,l),
(626,1400,l)
);
}
);
width = 576;
},
{
layerId = "AC0EE6F4-16E5-4030-8D81-C9AA237C4AA5";
shapes = (
{
closed = 1;
nodes = (
(293,1400,l),
(197,916,l),
(373,916,l),
(469,1400,l)
);
}
);
width = 416;
},
{
layerId = "DCC69D3D-7CEF-4C2A-8AC6-F0104D87F396";
shapes = (
{
closed = 1;
nodes = (
(296,1400,l),
(220,1020,l),
(260,1020,l),
(336,1400,l)
);
}
);
width = 280;
}
);
leftKerningGroup = quotesingle;
rightKerningGroup = quotesingle;
unicode = 39;
},
{
glyphname = parenleft;
layers = (
{
layerId = "CFAEB7A8-48EA-4DE1-AFDA-6738335377BD";
shapes = (
{
closed = 1;
nodes = (
(479,1484,l),
(303,1258,o),
(179,956,o),
(118,654,cs),
(52,316,o),
(66,6,o),
(147,-250,c),
(434,-250,l),
(371,-24,o),
(360,280,o),
(420,582,cs),
(488,920,o),
(629,1228,o),
(787,1484,c)
);
}
);
width = 555;
},
{
layerId = "C062F820-65A0-41D8-894E-E8AB249BF7F4";
shapes = (
{
closed = 1;
nodes = (
(542,1481,l),
(389,1265,o),
(269,959,o),
(200,620,cs),
(133,278,o),
(131,-28,o),
(197,-248,c),
(227,-248,l),
(161,-32,o),
(161,273,o),
(229,613,cs),
(298,956,o),
(418,1261,o),
(572,1481,c)
);
}
);
width = 414;
},
{
layerId = "58A41879-64B1-4F52-8959-748DC716EC4E";
shapes = (
{
closed = 1;
nodes = (
(507,1484,l),
(343,1264,o),
(221,960,o),
(156,636,cs),
(89,296,o),
(96,-12,o),
(169,-248,c),
(314,-248,l),
(250,-28,o),
(248,276,o),
(312,600,cs),
(380,940,o),
(510,1248,o),
(665,1484,c)
);
}
);
width = 468;
},
{
layerId = "80EDA03B-FCE6-4340-AE48-D9302D36C121";
shapes = (
{
closed = 1;
nodes = (
(542,1484,l),
(322,1258,o),
(176,956,o),
(114,654,cs),
(48,316,o),
(88,6,o),
(212,-250,c),
(594,-250,l),
(496,-24,o),
(462,280,o),
(522,582,cs),
(590,920,o),
(758,1228,o),
(952,1484,c)
);
}
);
width = 740;
},
{
layerId = "AC0EE6F4-16E5-4030-8D81-C9AA237C4AA5";
shapes = (
{
closed = 1;
nodes = (
(579,1484,l),
(375,1264,o),
(231,960,o),
(167,636,cs),
(99,296,o),
(129,-12,o),
(241,-248,c),
(435,-248,l),
(335,-28,o),
(313,276,o),
(377,600,cs),
(445,940,o),
(599,1248,o),
(789,1484,c)
);
}
);
width = 624;
},
{
layerId = "DCC69D3D-7CEF-4C2A-8AC6-F0104D87F396";
shapes = (
{
closed = 1;
nodes = (
(625,1484,l),
(437,1268,o),
(295,962,o),
(227,622,cs),
(159,278,o),
(177,-28,o),
(279,-248,c),
(319,-248,l),
(217,-32,o),
(197,274,o),
(265,614,cs),
(335,958,o),
(475,1264,o),
(665,1484,c)
);
}
);
width = 552;
}
);
leftKerningGroup = parenleft;
rightKerningGroup = parenleft;
unicode = 40;
},
{
glyphname = parenright;
layers = (
{
layerId = "CFAEB7A8-48EA-4DE1-AFDA-6738335377BD";
shapes = (
{
closed = 1;
nodes = (
(170,-250,l),
(345,-24,o),
(470,278,o),
(531,580,cs),
(597,918,o),
(582,1228,o),
(502,1484,c),
(215,1484,l),
(278,1258,o),
(288,954,o),
(229,652,cs),
(161,314,o),
(20,6,o),
(-138,-250,c)
);
}
);
width = 555;
},
{
layerId = "C062F820-65A0-41D8-894E-E8AB249BF7F4";
shapes = (
{
closed = 1;
nodes = (
(-34,-248,l),
(118,-32,o),
(239,273,o),
(307,613,cs),
(374,956,o),
(376,1261,o),
(311,1481,c),
(281,1481,l),
(346,1265,o),
(347,959,o),
(278,620,cs),
(209,278,o),
(89,-28,o),
(-64,-248,c)
);
}
);
width = 414;
},
{
layerId = "58A41879-64B1-4F52-8959-748DC716EC4E";
shapes = (
{
closed = 1;
nodes = (
(55,-250,l),
(218,-30,o),
(341,274,o),
(405,598,cs),
(473,938,o),
(465,1246,o),
(393,1482,c),
(248,1482,l),
(311,1262,o),
(313,958,o),
(249,634,cs),
(182,294,o),
(51,-14,o),
(-103,-250,c)
);
}
);
width = 468;
},
{
layerId = "80EDA03B-FCE6-4340-AE48-D9302D36C121";
shapes = (
{
closed = 1;
nodes = (
(242,-250,l),
(462,-24,o),
(608,278,o),
(670,580,cs),
(736,918,o),
(696,1228,o),
(572,1484,c),
(190,1484,l),
(288,1258,o),
(322,954,o),
(262,652,cs),
(194,314,o),
(26,6,o),
(-168,-250,c)
);
}
);
width = 740;
},
{
layerId = "AC0EE6F4-16E5-4030-8D81-C9AA237C4AA5";
shapes = (
{
closed = 1;
nodes = (
(89,-250,l),
(293,-30,o),
(437,274,o),
(501,598,cs),
(569,938,o),
(539,1246,o),
(427,1482,c),
(233,1482,l),
(333,1262,o),
(355,958,o),
(291,634,cs),
(223,294,o),
(69,-14,o),
(-121,-250,c)
);
}
);
width = 624;
},
{
layerId = "DCC69D3D-7CEF-4C2A-8AC6-F0104D87F396";
shapes = (
{
closed = 1;
nodes = (
(-29,-248,l),
(159,-32,o),
(301,274,o),
(369,614,cs),
(437,958,o),
(419,1264,o),
(317,1484,c),
(277,1484,l),
(379,1268,o),
(399,962,o),
(331,622,cs),
(261,278,o),
(121,-28,o),
(-69,-248,c)
);
}
);
width = 552;
}
);
leftKerningGroup = parenright;
rightKerningGroup = parenright;
unicode = 41;
},
{
glyphname = asterisk;
layers = (
{
layerId = "CFAEB7A8-48EA-4DE1-AFDA-6738335377BD";
shapes = (
{
closed = 1;
nodes = (
(707,992,l),
(592,1078,l),
(715,1160,l),
(641,1350,l),
(524,1260,l),
(536,1436,l),
(371,1436,l),
(365,1260,l),
(257,1354,l),
(166,1160,l),
(278,1078,l),
(158,992,l),
(230,804,l),
(349,896,l),
(336,718,l),
(501,718,l),
(505,894,l),
(614,800,l)
);
}
);
width = 609;
},
{
layerId = "C062F820-65A0-41D8-894E-E8AB249BF7F4";
shapes = (
{
closed = 1;
nodes = (
(554,1061,l),
(408,1177,l),
(565,1293,l),
(554,1327,l),
(396,1209,l),
(407,1442,l),
(380,1442,l),
(369,1209,l),
(224,1327,l),
(208,1293,l),
(353,1177,l),
(197,1061,l),
(209,1028,l),
(366,1145,l),
(354,912,l),
(381,912,l),
(393,1145,l),
(539,1028,l)
);
}
);
width = 447;
},
{
layerId = "58A41879-64B1-4F52-8959-748DC716EC4E";
shapes = (
{
closed = 1;
nodes = (
(624,1030,l),
(493,1132,l),
(634,1234,l),
(594,1340,l),
(455,1234,l),
(467,1442,l),
(376,1442,l),
(367,1234,l),
(239,1342,l),
(188,1234,l),
(319,1132,l),
(179,1030,l),
(218,926,l),
(359,1032,l),
(346,824,l),
(437,824,l),
(446,1030,l),
(574,924,l)
);
}
);
width = 522;
},
{
layerId = "80EDA03B-FCE6-4340-AE48-D9302D36C121";
shapes = (
{
closed = 1;
nodes = (
(877,992,l),
(719,1078,l),
(877,1160,l),
(767,1350,l),
(617,1260,l),
(621,1436,l),
(401,1436,l),
(405,1260,l),
(255,1354,l),
(145,1160,l),
(301,1078,l),
(145,992,l),
(255,804,l),
(407,896,l),
(401,718,l),
(621,718,l),
(615,894,l),
(767,800,l)
);
}
);
width = 812;
},
{
layerId = "AC0EE6F4-16E5-4030-8D81-C9AA237C4AA5";
shapes = (
{
closed = 1;
nodes = (
(765,1030,l),
(583,1132,l),
(765,1234,l),
(705,1340,l),
(527,1234,l),
(529,1442,l),
(407,1442,l),
(409,1234,l),
(231,1342,l),
(171,1234,l),
(351,1132,l),
(171,1030,l),
(231,926,l),
(411,1032,l),
(407,824,l),
(529,824,l),
(527,1030,l),
(705,924,l)
);
}
);
width = 696;
},
{
layerId = "DCC69D3D-7CEF-4C2A-8AC6-F0104D87F396";
shapes = (
{
closed = 1;
nodes = (
(669,1064,l),
(467,1180,l),
(669,1296,l),
(651,1330,l),
(449,1212,l),
(449,1446,l),
(413,1446,l),
(413,1212,l),
(211,1330,l),
(193,1296,l),
(393,1180,l),
(193,1064,l),
(211,1030,l),
(413,1148,l),
(413,914,l),
(449,914,l),
(449,1148,l),
(651,1030,l)
);
}
);
width = 596;
}
);
leftKerningGroup = asterisk;
rightKerningGroup = asterisk;
unicode = 42;
},
{
glyphname = plus;
layers = (
{
layerId = "CFAEB7A8-48EA-4DE1-AFDA-6738335377BD";
shapes = (
{
closed = 1;
nodes = (
(122,798,l),
(66,518,l),
(756,518,l),
(812,798,l)
);
},
{
closed = 1;
nodes = (
(425,1118,l),
(242,198,l),
(452,198,l),
(635,1118,l)
);
}
);
width = 780;
},
{
layerId = "C062F820-65A0-41D8-894E-E8AB249BF7F4";
shapes = (
{
closed = 1;
nodes = (
(113,659,l),
(105,619,l),
(705,619,l),
(713,659,l)
);
},
{
closed = 1;
nodes = (
(474,1037,l),
(315,239,l),
(345,239,l),
(504,1037,l)
);
}
);
width = 720;
},
{
layerId = "58A41879-64B1-4F52-8959-748DC716EC4E";
shapes = (
{
closed = 1;
nodes = (
(116,724,l),
(86,572,l),
(728,572,l),
(758,724,l)
);
},
{
closed = 1;
nodes = (
(452,1076,l),
(281,220,l),
(395,220,l),
(564,1076,l)
);
}
);
width = 747;
},
{
layerId = "80EDA03B-FCE6-4340-AE48-D9302D36C121";
shapes = (
{
closed = 1;
nodes = (
(110,798,l),
(54,518,l),
(974,518,l),
(1030,798,l)
);
},
{
closed = 1;
nodes = (
(494,1118,l),
(310,198,l),
(590,198,l),
(774,1118,l)
);
}
);
width = 1040;
},
{
layerId = "AC0EE6F4-16E5-4030-8D81-C9AA237C4AA5";
shapes = (
{
closed = 1;
nodes = (
(108,724,l),
(78,572,l),
(934,572,l),
(964,724,l)
);
},
{
closed = 1;
nodes = (
(532,1076,l),
(360,220,l),
(512,220,l),
(682,1076,l)
);
}
);
width = 996;
},
{
layerId = "DCC69D3D-7CEF-4C2A-8AC6-F0104D87F396";
shapes = (
{
closed = 1;
nodes = (
(108,660,l),
(100,620,l),
(900,620,l),
(908,660,l)
);
},
{
closed = 1;
nodes = (
(564,1040,l),
(404,240,l),
(444,240,l),
(604,1040,l)
);
}
);
width = 960;
}
);
leftKerningGroup = hyphen;
rightKerningGroup = hyphen;
unicode = 43;
},
{
glyphname = comma;
layers = (
{
layerId = "80EDA03B-FCE6-4340-AE48-D9302D36C121";
shapes = (
{
closed = 1;
nodes = (
(116,192,l),
(-110,-260,l),
(98,-260,l),
(316,32,ls),
(350,78,o),
(380,130,o),
(384,192,cs),
(392,324,o),
(306,394,o),
(198,394,cs),
(78,394,o),
(-14,310,o),
(-26,190,cs),
(-38,76,o),
(38,-20,o),
(228,-12,c)
);
}
);
width = 540;
},
{
layerId = "CFAEB7A8-48EA-4DE1-AFDA-6738335377BD";
shapes = (
{
closed = 1;
nodes = (
(96,192,l),
(-95,-260,l),
(61,-260,l),
(239,32,ls),
(266,78,o),
(291,130,o),
(297,192,cs),
(310,324,o),
(249,394,o),
(168,394,cs),
(78,394,o),
(5,310,o),
(-10,190,cs),
(-25,76,o),
(28,-20,o),
(170,-12,c)
);
}
);
width = 405;
},
{
layerId = "AC0EE6F4-16E5-4030-8D81-C9AA237C4AA5";
shapes = (
{
closed = 1;
nodes = (
(128,92,l),
(-12,-220,l),
(106,-220,l),
(240,8,l),
(260,40,o),
(280,70,o),
(284,108,cs),
(292,186,o),
(236,230,o),
(172,230,cs),
(100,230,o),
(44,180,o),
(38,108,cs),
(32,42,o),
(72,-14,o),
(172,-14,c)
);
}
);
width = 540;
},
{
layerId = "58A41879-64B1-4F52-8959-748DC716EC4E";
shapes = (
{
closed = 1;
nodes = (
(100,92,l),
(-20,-220,l),
(69,-220,l),
(180,8,l),
(197,40,o),
(213,70,o),
(218,108,cs),
(228,186,o),
(188,230,o),
(140,230,cs),
(86,230,o),
(42,180,o),
(34,108,cs),
(26,42,o),
(53,-14,o),
(128,-14,c)
);
}
);
width = 405;
},
{
layerId = "DCC69D3D-7CEF-4C2A-8AC6-F0104D87F396";
shapes = (
{
closed = 1;
nodes = (
(160,8,l),
(56,-220,l),
(96,-220,l),
(200,-14,ls),
(210,6,o),
(218,20,o),
(220,38,cs),
(224,66,o),
(200,90,o),
(172,90,cs),
(144,90,o),
(118,66,o),
(116,38,cs),
(114,10,o),
(134,-14,o),
(162,-14,c)
);
}
);
width = 540;
},
{
layerId = "C062F820-65A0-41D8-894E-E8AB249BF7F4";
shapes = (
{
closed = 1;
nodes = (
(120,8,l),
(31,-219,l),
(61,-219,l),
(149,-14,ls),
(158,6,o),
(164,20,o),
(167,38,cs),
(171,66,o),
(154,90,o),
(133,90,cs),
(112,90,o),
(92,66,o),
(89,38,cs),
(86,10,o),
(100,-14,o),
(121,-14,c)
);
}
);
width = 405;
}
);
leftKerningGroup = period;
rightKerningGroup = period;
unicode = 44;
},
{
glyphname = hyphen;
layers = (
{
layerId = "CFAEB7A8-48EA-4DE1-AFDA-6738335377BD";
shapes = (
{
closed = 1;
nodes = (
(144,758,l),
(88,478,l),
(508,478,l),
(564,758,l)
);
}
);
width = 570;
},
{
layerId = "C062F820-65A0-41D8-894E-E8AB249BF7F4";
shapes = (
{
closed = 1;
nodes = (
(150,618,l),
(142,579,l),
(468,579,l),
(476,618,l)
);
}
);
width = 536;
},
{
layerId = "58A41879-64B1-4F52-8959-748DC716EC4E";
shapes = (
{
closed = 1;
nodes = (
(148,684,l),
(117,532,l),
(486,532,l),
(517,684,l)
);
}
);
width = 552;
},
{
layerId = "80EDA03B-FCE6-4340-AE48-D9302D36C121";
shapes = (
{
closed = 1;
nodes = (
(142,758,l),
(86,478,l),
(646,478,l),
(702,758,l)
);
}
);
width = 760;
},
{
layerId = "AC0EE6F4-16E5-4030-8D81-C9AA237C4AA5";
shapes = (
{
closed = 1;
nodes = (
(153,684,l),
(121,532,l),
(613,532,l),
(645,684,l)
);
}
);
width = 736;
},
{
layerId = "DCC69D3D-7CEF-4C2A-8AC6-F0104D87F396";
shapes = (
{
closed = 1;
nodes = (
(160,620,l),
(152,580,l),
(586,580,l),
(594,620,l)
);
}
);
width = 714;
}
);
leftKerningGroup = hyphen;
rightKerningGroup = hyphen;
unicode = 45;
},
{
glyphname = period;
layers = (
{
layerId = "CFAEB7A8-48EA-4DE1-AFDA-6738335377BD";
shapes = (
{
closed = 1;
nodes = (
(84,394,o),
(12,298,o),
(5,168,cs),
(0,58,o),
(53,-16,o),
(136,-16,cs),
(233,-16,o),
(308,80,o),
(315,210,cs),
(320,322,o),
(265,394,o),
(183,394,cs)
);
}
);
width = 405;
},
{
layerId = "C062F820-65A0-41D8-894E-E8AB249BF7F4";
shapes = (
{
closed = 1;
nodes = (
(115,90,o),
(95,64,o),
(93,34,cs),
(92,6,o),
(106,-14,o),
(127,-14,cs),
(149,-14,o),
(170,12,o),
(172,42,cs),
(173,70,o),
(159,90,o),
(138,90,cs)
);
}
);
width = 405;
},
{
layerId = "58A41879-64B1-4F52-8959-748DC716EC4E";
shapes = (
{
closed = 1;
nodes = (
(100,236,o),
(52,176,o),
(48,98,cs),
(45,30,o),
(77,-18,o),
(128,-18,cs),
(187,-18,o),
(235,44,o),
(238,122,cs),
(242,190,o),
(210,236,o),
(159,236,cs)
);
}
);
width = 405;
},
{
layerId = "80EDA03B-FCE6-4340-AE48-D9302D36C121";
shapes = (
{
closed = 1;
nodes = (
(86,394,o),
(-4,298,o),
(-4,168,cs),
(-4,58,o),
(72,-16,o),
(182,-16,cs),
(312,-16,o),
(406,80,o),
(406,210,cs),
(406,322,o),
(328,394,o),
(218,394,cs)
);
}
);
width = 540;
},
{
layerId = "AC0EE6F4-16E5-4030-8D81-C9AA237C4AA5";
shapes = (
{
closed = 1;
nodes = (
(118,236,o),
(58,176,o),
(58,98,cs),
(58,30,o),
(104,-18,o),
(172,-18,cs),
(250,-18,o),
(310,44,o),
(310,122,cs),
(310,190,o),
(264,236,o),
(196,236,cs)
);
}
);
width = 540;
},
{
layerId = "DCC69D3D-7CEF-4C2A-8AC6-F0104D87F396";
shapes = (
{
closed = 1;
nodes = (
(148,90,o),
(122,64,o),
(122,34,cs),
(122,6,o),
(142,-14,o),
(170,-14,cs),
(200,-14,o),
(226,12,o),
(226,42,cs),
(226,70,o),
(206,90,o),
(178,90,cs)
);
}
);
width = 540;
}
);
leftKerningGroup = period;
rightKerningGroup = period;
unicode = 46;
},
{
glyphname = slash;
layers = (
{
layerId = "CFAEB7A8-48EA-4DE1-AFDA-6738335377BD";
shapes = (
{
closed = 1;
nodes = (
(548,1612,l),
(-155,-208,l),
(127,-208,l),
(830,1612,l)
);
}
);
width = 560;
},
{
layerId = "C062F820-65A0-41D8-894E-E8AB249BF7F4";
shapes = (
{
closed = 1;
nodes = (
(616,1648,l),
(-86,-259,l),
(-55,-259,l),
(648,1648,l)
);
}
);
width = 441;
},
{
layerId = "58A41879-64B1-4F52-8959-748DC716EC4E";
shapes = (
{
closed = 1;
nodes = (
(555,1634,l),
(-87,-236,l),
(60,-236,l),
(702,1634,l)
);
}
);
width = 497;
},
{
layerId = "80EDA03B-FCE6-4340-AE48-D9302D36C121";
shapes = (
{
closed = 1;
nodes = (
(625,1612,l),
(-193,-208,l),
(183,-208,l),
(1001,1612,l)
);
}
);
width = 746;
},
{
layerId = "AC0EE6F4-16E5-4030-8D81-C9AA237C4AA5";
shapes = (
{
closed = 1;
nodes = (
(633,1634,l),
(-101,-236,l),
(95,-236,l),
(829,1634,l)
);
}
);
width = 662;
},
{
layerId = "DCC69D3D-7CEF-4C2A-8AC6-F0104D87F396";
shapes = (
{
closed = 1;
nodes = (
(714,1652,l),
(-98,-260,l),
(-56,-260,l),
(756,1652,l)
);
}
);
width = 588;
}
);
leftKerningGroup = slash;
rightKerningGroup = slash;
unicode = 47;
},
{
glyphname = zero;
layers = (
{
layerId = "CFAEB7A8-48EA-4DE1-AFDA-6738335377BD";
shapes = (
{
closed = 1;
nodes = (
(398,1420,o),
(194,1222,o),
(101,758,cs),
(10,296,o),
(110,-20,o),
(397,-20,cs),
(680,-20,o),
(885,180,o),
(977,644,cs),
(1068,1106,o),
(967,1420,o),
(683,1420,cs)
);
},
{
closed = 1;
nodes = (
(680,1078,o),
(677,976,o),
(619,690,cs),
(563,404,o),
(528,312,o),
(463,322,c),
(398,330,o),
(402,426,o),
(459,712,cs),
(517,998,o),
(549,1078,o),
(614,1078,cs)
);
}
);
width = 951;
},
{
layerId = "C062F820-65A0-41D8-894E-E8AB249BF7F4";
shapes = (
{
closed = 1;
nodes = (
(420,1400,o),
(232,1201,o),
(143,750,cs),
(53,299,o),
(142,-4,o),
(398,-4,cs),
(656,-4,o),
(845,194,o),
(935,647,cs),
(1025,1095,o),
(935,1400,o),
(677,1400,cs)
);
},
{
closed = 1;
nodes = (
(906,1358,o),
(991,1076,o),
(905,650,cs),
(821,224,o),
(643,36,o),
(406,36,cs),
(166,36,o),
(87,321,o),
(173,746,cs),
(257,1173,o),
(432,1358,o),
(669,1358,cs)
);
}
);
width = 951;
},
{
layerId = "58A41879-64B1-4F52-8959-748DC716EC4E";
shapes = (
{
closed = 1;
nodes = (
(411,1410,o),
(221,1210,o),
(130,754,cs),
(38,298,o),
(130,-10,o),
(397,-10,cs),
(659,-10,o),
(852,190,o),
(944,646,cs),
(1034,1102,o),
(942,1410,o),
(678,1410,cs)
);
},
{
closed = 1;
nodes = (
(792,1232,o),
(830,1030,o),
(759,670,cs),
(689,312,o),
(583,168,o),
(431,168,cs),
(283,168,o),
(243,372,o),
(315,730,cs),
(386,1090,o),
(492,1232,o),
(644,1232,cs)
);
}
);
width = 951;
},
{
layerId = "80EDA03B-FCE6-4340-AE48-D9302D36C121";
shapes = (
{
closed = 1;
nodes = (
(438,1420,o),
(178,1222,o),
(86,758,cs),
(-6,296,o),
(148,-20,o),
(530,-20,cs),
(908,-20,o),
(1168,180,o),
(1260,644,cs),
(1352,1106,o),
(1196,1420,o),
(818,1420,cs)
);
},
{
closed = 1;
nodes = (
(836,1078,o),
(838,976,o),
(780,690,cs),
(724,404,o),
(684,312,o),
(596,322,c),
(508,330,o),
(508,426,o),
(566,712,cs),
(624,998,o),
(662,1078,o),
(748,1078,cs)
);
}
);
width = 1268;
},
{
layerId = "AC0EE6F4-16E5-4030-8D81-C9AA237C4AA5";
shapes = (
{
closed = 1;
nodes = (
(456,1410,o),
(216,1210,o),
(124,754,cs),
(32,298,o),
(174,-10,o),
(530,-10,cs),
(880,-10,o),
(1124,190,o),
(1216,646,cs),
(1306,1102,o),
(1164,1410,o),
(812,1410,cs)
);
},
{
closed = 1;
nodes = (
(976,1232,o),
(1040,1030,o),
(968,670,cs),
(898,312,o),
(766,168,o),
(564,168,cs),
(366,168,o),
(300,372,o),
(372,730,cs),
(444,1090,o),
(576,1232,o),
(778,1232,cs)
);
}
);
width = 1268;
},
{
layerId = "DCC69D3D-7CEF-4C2A-8AC6-F0104D87F396";
shapes = (
{
closed = 1;
nodes = (
(469,1404,o),
(231,1204,o),
(141,752,cs),
(51,300,o),
(189,-4,o),
(531,-4,cs),
(875,-4,o),
(1113,194,o),
(1205,648,cs),
(1295,1098,o),
(1155,1404,o),
(811,1404,cs)
);
},
{
closed = 1;
nodes = (
(1119,1362,o),
(1251,1078,o),
(1165,652,cs),
(1079,224,o),
(855,36,o),
(539,36,cs),
(219,36,o),
(95,322,o),
(181,748,cs),
(267,1176,o),
(487,1362,o),
(803,1362,cs)
);
}
);
width = 1268;
}
);
leftKerningGroup = zero;
rightKerningGroup = zero;
unicode = 48;
},
{
color = 3;
glyphname = one;
layers = (
{
background = {
shapes = (
{
closed = 1;
nodes = (
(988,0,l),
(988,1400,l),
(266,1400,l),
(266,1044,l),
(718,1044,l),
(516,1236,l),
(516,0,l)
);
},
{
closed = 1;
nodes = (
(236,0,l),
(1228,0,l),
(1228,356,l),
(236,356,l)
);
}
);
};
layerId = "80EDA03B-FCE6-4340-AE48-D9302D36C121";
shapes = (
{
closed = 1;
nodes = (
(1062,1400,l),
(340,1400,l),
(269,1044,l),
(721,1044,l),
(557,1236,l),
(339,144,l),
(593,356,l),
(101,356,l),
(30,0,l),
(1022,0,l),
(1093,356,l),
(641,356,l),
(811,144,l)
);
}
);
width = 1268;
},
{
background = {
shapes = (
{
closed = 1;
nodes = (
(988,0,l),
(988,1400,l),
(266,1400,l),
(266,1044,l),
(718,1044,l),
(516,1236,l),
(516,0,l)
);
},
{
closed = 1;
nodes = (
(236,0,l),
(1228,0,l),
(1228,356,l),
(236,356,l)
);
}
);
};
layerId = "CFAEB7A8-48EA-4DE1-AFDA-6738335377BD";
shapes = (
{
closed = 1;
nodes = (
(865,1400,l),
(323,1400,l),
(253,1044,l),
(592,1044,l),
(479,1236,l),
(261,144,l),
(462,356,l),
(93,356,l),
(23,0,l),
(767,0,l),
(837,356,l),
(498,356,l),
(615,144,l)
);
}
);
width = 951;
},
{
background = {
shapes = (
{
closed = 1;
nodes = (
(868,0,l),
(868,1400,l),
(306,1400,l),
(306,1208,l),
(738,1208,l),
(640,1310,l),
(640,0,l)
);
},
{
closed = 1;
nodes = (
(282,0,l),
(1186,0,l),
(1186,192,l),
(282,192,l)
);
}
);
};
layerId = "AC0EE6F4-16E5-4030-8D81-C9AA237C4AA5";
shapes = (
{
closed = 1;
nodes = (
(942,1400,l),
(380,1400,l),
(340,1202,l),
(772,1202,l),
(694,1310,l),
(451,96,l),
(574,198,l),
(116,198,l),
(76,0,l),
(980,0,l),
(1020,198,l),
(600,198,l),
(681,96,l)
);
}
);
width = 1268;
},
{
background = {
shapes = (
{
closed = 1;
nodes = (
(868,0,l),
(868,1400,l),
(306,1400,l),
(306,1208,l),
(738,1208,l),
(640,1310,l),
(640,0,l)
);
},
{
closed = 1;
nodes = (
(282,0,l),
(1186,0,l),
(1186,192,l),
(282,192,l)
);
}
);
};
layerId = "58A41879-64B1-4F52-8959-748DC716EC4E";
shapes = (
{
closed = 1;
nodes = (
(775,1400,l),
(353,1400,l),
(314,1202,l),
(638,1202,l),
(584,1310,l),
(343,96,l),
(440,198,l),
(97,198,l),
(57,0,l),
(735,0,l),
(775,198,l),
(460,198,l),
(515,96,l)
);
}
);
width = 951;
},
{
background = {
shapes = (
{
closed = 1;
nodes = (
(362,1358,l),
(754,1358,l),
(736,1376,l),
(736,0,l),
(774,0,l),
(774,1398,l),
(362,1398,l)
);
}
);
};
layerId = "DCC69D3D-7CEF-4C2A-8AC6-F0104D87F396";
shapes = (
{
closed = 1;
nodes = (
(848,1400,l),
(410,1400,l),
(402,1362,l),
(820,1362,l),
(805,1378,l),
(534,20,l),
(556,38,l),
(118,38,l),
(110,0,l),
(948,0,l),
(956,38,l),
(558,38,l),
(572,20,l)
);
}
);
width = 1268;
},
{
layerId = "C062F820-65A0-41D8-894E-E8AB249BF7F4";
shapes = (
{
closed = 1;
nodes = (
(704,1397,l),
(376,1397,l),
(368,1358,l),
(682,1358,l),
(671,1375,l),
(401,20,l),
(419,38,l),
(90,38,l),
(83,0,l),
(711,0,l),
(719,38,l),
(420,38,l),
(430,20,l)
);
}
);
width = 951;
}
);
leftKerningGroup = one;
rightKerningGroup = one;
unicode = 49;
},
{
glyphname = two;
layers = (
{
layerId = "CFAEB7A8-48EA-4DE1-AFDA-6738335377BD";
shapes = (
{
closed = 1;
nodes = (
(29,292,l),
(-27,0,l),
(797,0,l),
(866,356,l),
(332,356,l),
(350,214,l),
(686,570,ls),
(853,746,o),
(984,914,o),
(993,1098,cs),
(1002,1294,o),
(874,1424,o),
(677,1424,cs),
(512,1424,o),
(341,1342,o),
(166,1206,c),
(230,872,l),
(353,982,o),
(472,1052,o),
(551,1052,cs),
(592,1052,o),
(611,1030,o),
(610,992,cs),
(607,940,o),
(554,864,o),
(495,800,cs)
);
}
);
width = 951;
},
{
layerId = "C062F820-65A0-41D8-894E-E8AB249BF7F4";
shapes = (
{
closed = 1;
nodes = (
(0,58,l),
(-12,0,l),
(764,0,l),
(772,40,l),
(11,40,l),
(11,26,l),
(593,626,ls),
(764,802,o),
(884,982,o),
(891,1127,cs),
(899,1297,o),
(797,1400,o),
(611,1400,cs),
(487,1400,o),
(343,1333,o),
(229,1219,c),
(245,1191,l),
(353,1297,o),
(490,1361,o),
(605,1361,cs),
(773,1361,o),
(866,1269,o),
(859,1119,cs),
(853,989,o),
(739,820,o),
(578,654,cs)
);
}
);
width = 951;
},
{
layerId = "58A41879-64B1-4F52-8959-748DC716EC4E";
shapes = (
{
closed = 1;
nodes = (
(13,166,l),
(-20,0,l),
(779,0,l),
(815,186,l),
(158,186,l),
(166,112,l),
(635,602,ls),
(803,778,o),
(930,952,o),
(938,1114,cs),
(947,1296,o),
(831,1414,o),
(641,1414,cs),
(498,1414,o),
(341,1338,o),
(199,1214,c),
(237,1046,l),
(352,1154,o),
(482,1220,o),
(581,1220,cs),
(689,1220,o),
(749,1160,o),
(743,1062,cs),
(739,966,o),
(652,844,o),
(538,722,cs)
);
}
);
width = 951;
},
{
layerId = "80EDA03B-FCE6-4340-AE48-D9302D36C121";
shapes = (
{
closed = 1;
nodes = (
(20,292,l),
(-36,0,l),
(1062,0,l),
(1132,356,l),
(420,356,l),
(452,214,l),
(878,570,ls),
(1088,746,o),
(1252,914,o),
(1252,1098,cs),
(1252,1294,o),
(1072,1424,o),
(810,1424,cs),
(590,1424,o),
(368,1342,o),
(142,1206,c),
(250,872,l),
(406,982,o),
(560,1052,o),
(666,1052,cs),
(720,1052,o),
(748,1030,o),
(748,992,cs),
(748,940,o),
(682,864,o),
(608,800,cs)
);
}
);
width = 1268;
},
{
layerId = "AC0EE6F4-16E5-4030-8D81-C9AA237C4AA5";
shapes = (
{
closed = 1;
nodes = (
(6,166,l),
(-26,0,l),
(1038,0,l),
(1074,186,l),
(198,186,l),
(214,112,l),
(808,602,ls),
(1020,778,o),
(1178,952,o),
(1178,1114,cs),
(1178,1296,o),
(1016,1414,o),
(762,1414,cs),
(572,1414,o),
(368,1338,o),
(186,1214,c),
(248,1046,l),
(394,1154,o),
(562,1220,o),
(694,1220,cs),
(838,1220,o),
(922,1160,o),
(922,1062,cs),
(922,966,o),
(814,844,o),
(670,722,cs)
);
}
);
width = 1268;
},
{
layerId = "DCC69D3D-7CEF-4C2A-8AC6-F0104D87F396";
shapes = (
{
closed = 1;
nodes = (
(-4,58,l),
(-16,0,l),
(1018,0,l),
(1026,40,l),
(12,40,l),
(12,26,l),
(750,628,ls),
(966,804,o),
(1114,984,o),
(1114,1130,cs),
(1114,1300,o),
(972,1404,o),
(724,1404,cs),
(558,1404,o),
(370,1336,o),
(226,1222,c),
(248,1194,l),
(386,1300,o),
(564,1364,o),
(718,1364,cs),
(942,1364,o),
(1072,1272,o),
(1072,1122,cs),
(1072,992,o),
(932,822,o),
(728,656,cs)
);
}
);
width = 1268;
}
);
leftKerningGroup = two;
rightKerningGroup = two;
unicode = 50;
},
{
glyphname = three;
layers = (
{
anchors = (
{
name = bottom;
position = "{-690, 0}";
},
{
name = top;
position = "{-368, 1400}";
}
);
layerId = "80EDA03B-FCE6-4340-AE48-D9302D36C121";
shapes = (
{
closed = 1;
nodes = (
(478,862,l),
(650,862,ls),
(730,862,o),
(796,918,o),
(796,985,cs),
(796,1045,o),
(746,1073,o),
(642,1073,cs),
(548,1073,o),
(437,1048,o),
(350,1007,c),
(278,1353,l),
(396,1405,o),
(565,1437,o),
(726,1437,cs),
(1058,1437,o),
(1273,1299,o),
(1273,1086,cs),
(1273,940,o),
(1170,812,o),
(1016,766,c),
(1126,728,o),
(1191,623,o),
(1191,483,cs),
(1191,198,o),
(895,-20,o),
(508,-20,cs),
(294,-20,o),
(77,54,o),
(-35,166,c),
(191,476,l),
(271,384,o),
(411,322,o),
(541,322,cs),
(664,322,o),
(738,375,o),
(738,462,cs),
(738,535,o),
(690,570,o),
(592,570,cs),
(420,570,l)
);
}
);
width = 1268;
},
{
anchors = (
{
name = bottom;
position = "{-518, 0}";
},
{
name = top;
position = "{-208, 1400}";
}
);
layerId = "CFAEB7A8-48EA-4DE1-AFDA-6738335377BD";
shapes = (
{
closed = 1;
nodes = (
(401,862,l),
(530,862,ls),
(590,862,o),
(642,918,o),
(645,985,cs),
(648,1045,o),
(612,1073,o),
(534,1073,cs),
(463,1073,o),
(379,1048,o),
(312,1007,c),
(275,1353,l),
(366,1405,o),
(494,1437,o),
(615,1437,cs),
(864,1437,o),
(1018,1299,o),
(1008,1086,cs),
(1001,940,o),
(917,812,o),
(799,766,c),
(880,728,o),
(924,623,o),
(917,483,cs),
(903,198,o),
(670,-20,o),
(380,-20,cs),
(220,-20,o),
(60,54,o),
(-18,166,c),
(167,476,l),
(222,384,o),
(324,322,o),
(421,322,cs),
(514,322,o),
(572,375,o),
(576,462,cs),
(580,535,o),
(545,570,o),
(472,570,cs),
(343,570,l)
);
}
);
width = 951;
},
{
anchors = (
{
name = bottom;
position = "{-696, 0}";
},
{
name = top;
position = "{-382, 1400}";
}
);
layerId = "AC0EE6F4-16E5-4030-8D81-C9AA237C4AA5";
shapes = (
{
closed = 1;
nodes = (
(497,834,l),
(723,834,ls),
(900,834,o),
(998,905,o),
(998,1034,cs),
(998,1160,o),
(903,1226,o),
(722,1226,cs),
(632,1226,o),
(510,1198,o),
(401,1155,c),
(358,1339,l),
(495,1394,o),
(651,1425,o),
(787,1425,cs),
(1059,1425,o),
(1238,1300,o),
(1238,1110,cs),
(1238,942,o),
(1123,798,o),
(950,749,c),
(1070,727,o),
(1147,620,o),
(1147,477,cs),
(1147,212,o),
(848,-10,o),
(489,-10,cs),
(316,-10,o),
(130,50,o),
(24,140,c),
(158,320,l),
(236,235,o),
(383,178,o),
(525,178,cs),
(747,178,o),
(915,300,o),
(915,461,cs),
(915,592,o),
(817,656,o),
(615,656,cs),
(461,656,l)
);
}
);
width = 1268;
},
{
anchors = (
{
name = bottom;
position = "{-522, 0}";
},
{
name = top;
position = "{-218, 1400}";
}
);
layerId = "58A41879-64B1-4F52-8959-748DC716EC4E";
shapes = (
{
closed = 1;
nodes = (
(414,834,l),
(583,834,ls),
(716,834,o),
(793,905,o),
(799,1034,cs),
(805,1160,o),
(737,1226,o),
(601,1226,cs),
(534,1226,o),
(441,1198,o),
(357,1155,c),
(334,1339,l),
(439,1394,o),
(558,1425,o),
(660,1425,cs),
(864,1425,o),
(992,1300,o),
(983,1110,cs),
(975,942,o),
(881,798,o),
(749,749,c),
(838,727,o),
(891,620,o),
(884,477,cs),
(871,212,o),
(636,-10,o),
(366,-10,cs),
(237,-10,o),
(100,50,o),
(25,140,c),
(134,320,l),
(188,235,o),
(296,178,o),
(402,178,cs),
(569,178,o),
(701,300,o),
(709,461,cs),
(715,592,o),
(645,656,o),
(493,656,cs),
(378,656,l)
);
}
);
width = 951;
},
{
anchors = (
{
name = top;
position = "{-304, 1400}";
}
);
layerId = "DCC69D3D-7CEF-4C2A-8AC6-F0104D87F396";
shapes = (
{
closed = 1;
nodes = (
(504,790,l),
(758,790,ls),
(992,790,o),
(1149,922,o),
(1149,1119,cs),
(1149,1290,o),
(1034,1376,o),
(803,1376,cs),
(670,1376,o),
(523,1334,o),
(430,1277,c),
(413,1308,l),
(513,1373,o),
(667,1414,o),
(821,1414,cs),
(1051,1414,o),
(1190,1309,o),
(1190,1134,cs),
(1190,932,o),
(1082,809,o),
(865,767,c),
(1019,739,o),
(1123,617,o),
(1123,462,cs),
(1123,184,o),
(872,-4,o),
(500,-4,cs),
(345,-4,o),
(180,43,o),
(87,114,c),
(117,146,l),
(202,80,o),
(361,36,o),
(510,36,cs),
(831,36,o),
(1081,221,o),
(1081,458,cs),
(1081,650,o),
(935,750,o),
(652,750,cs),
(496,750,l)
);
}
);
width = 1268;
},
{
anchors = (
{
name = top;
position = "{-160, 1397}";
}
);
layerId = "C062F820-65A0-41D8-894E-E8AB249BF7F4";
shapes = (
{
closed = 1;
nodes = (
(417,788,l),
(607,788,ls),
(783,788,o),
(907,920,o),
(916,1116,cs),
(925,1287,o),
(843,1373,o),
(669,1373,cs),
(570,1373,o),
(457,1331,o),
(385,1274,c),
(374,1305,l),
(452,1370,o),
(569,1410,o),
(685,1410,cs),
(857,1410,o),
(956,1306,o),
(948,1131,cs),
(938,930,o),
(851,807,o),
(686,765,c),
(800,737,o),
(872,615,o),
(865,461,cs),
(851,184,o),
(654,-4,o),
(375,-4,cs),
(259,-4,o),
(137,43,o),
(71,114,c),
(95,146,l),
(155,80,o),
(273,36,o),
(384,36,cs),
(625,36,o),
(822,220,o),
(833,457,cs),
(842,648,o),
(738,748,o),
(526,748,cs),
(409,748,l)
);
}
);
width = 951;
}
);
leftKerningGroup = three;
rightKerningGroup = three;
unicode = 51;
},
{
glyphname = four;
layers = (
{
layerId = "CFAEB7A8-48EA-4DE1-AFDA-6738335377BD";
shapes = (
{
closed = 1;
nodes = (
(892,270,l),
(958,602,l),
(838,602,l),
(997,1400,l),
(616,1400,l),
(68,572,l),
(9,270,l),
(457,270,l),
(404,0,l),
(719,0,l),
(772,270,l)
);
},
{
closed = 1;
nodes = (
(374,602,l),
(592,950,l),
(523,602,l)
);
}
);
width = 951;
},
{
layerId = "C062F820-65A0-41D8-894E-E8AB249BF7F4";
shapes = (
{
closed = 1;
nodes = (
(863,415,l),
(870,455,l),
(689,455,l),
(877,1397,l),
(841,1397,l),
(110,465,l),
(101,415,l),
(651,415,l),
(569,0,l),
(599,0,l),
(681,415,l)
);
},
{
closed = 1;
nodes = (
(141,455,l),
(837,1348,l),
(659,455,l)
);
}
);
width = 951;
},
{
layerId = "58A41879-64B1-4F52-8959-748DC716EC4E";
shapes = (
{
closed = 1;
nodes = (
(886,348,l),
(925,548,l),
(769,548,l),
(939,1400,l),
(731,1400,l),
(86,516,l),
(53,348,l),
(565,348,l),
(495,0,l),
(660,0,l),
(730,348,l)
);
},
{
closed = 1;
nodes = (
(290,548,l),
(725,1153,l),
(604,548,l)
);
}
);
width = 951;
},
{
layerId = "80EDA03B-FCE6-4340-AE48-D9302D36C121";
shapes = (
{
closed = 1;
nodes = (
(1172,270,l),
(1238,602,l),
(1078,602,l),
(1238,1400,l),
(730,1400,l),
(54,572,l),
(-6,270,l),
(592,270,l),
(538,0,l),
(958,0,l),
(1012,270,l)
);
},
{
closed = 1;
nodes = (
(460,602,l),
(728,950,l),
(658,602,l)
);
}
);
width = 1268;
},
{
layerId = "AC0EE6F4-16E5-4030-8D81-C9AA237C4AA5";
shapes = (
{
closed = 1;
nodes = (
(1158,348,l),
(1198,548,l),
(990,548,l),
(1161,1400,l),
(884,1400,l),
(81,516,l),
(48,348,l),
(730,348,l),
(660,0,l),
(880,0,l),
(950,348,l)
);
},
{
closed = 1;
nodes = (
(351,548,l),
(891,1153,l),
(770,548,l)
);
}
);
width = 1268;
},
{
layerId = "DCC69D3D-7CEF-4C2A-8AC6-F0104D87F396";
shapes = (
{
closed = 1;
nodes = (
(1123,416,l),
(1131,456,l),
(889,456,l),
(1078,1400,l),
(1030,1400,l),
(117,466,l),
(107,416,l),
(841,416,l),
(758,0,l),
(798,0,l),
(881,416,l)
);
},
{
closed = 1;
nodes = (
(158,456,l),
(1028,1351,l),
(849,456,l)
);
}
);
width = 1268;
}
);
leftKerningGroup = four;
rightKerningGroup = four;
unicode = 52;
},
{
color = 3;
glyphname = five;
layers = (
{
background = {
shapes = (
{
closed = 1;
nodes = (
(1019,-32,o),
(1209,210,o),
(1209,460,cs),
(1209,708,o),
(1053,906,o),
(645,906,cs),
(319,906,l),
(557,704,l),
(599,1246,l),
(361,1044,l),
(1117,1044,l),
(1117,1400,l),
(195,1400,l),
(125,550,l),
(531,550,ls),
(701,550,o),
(743,510,o),
(743,450,cs),
(743,378,o),
(665,340,o),
(559,340,cs),
(441,340,o),
(305,372,o),
(185,442,c),
(33,94,l),
(181,10,o),
(387,-32,o),
(577,-32,cs)
);
}
);
};
layerId = "CFAEB7A8-48EA-4DE1-AFDA-6738335377BD";
shapes = (
{
closed = 1;
nodes = (
(302,550,l),
(344,575,o),
(388,590,o),
(441,590,cs),
(549,590,o),
(575,529,o),
(572,476,cs),
(567,365,o),
(466,352,o),
(401,352,cs),
(321,352,o),
(225,384,o),
(149,454,c),
(-40,106,l),
(56,22,o),
(205,-20,o),
(346,-20,cs),
(615,-20,o),
(921,163,o),
(940,566,cs),
(950,758,o),
(857,906,o),
(608,906,cs),
(504,906,o),
(412,880,o),
(313,739,c),
(442,704,l),
(513,1061,l),
(485,1031,l),
(962,1031,l),
(1035,1400,l),
(278,1400,l),
(138,699,l)
);
}
);
width = 951;
},
{
background = {
shapes = (
{
closed = 1;
nodes = (
(930,-6,o),
(1092,152,o),
(1092,384,cs),
(1092,610,o),
(954,754,o),
(524,754,cs),
(266,754,l),
(278,734,l),
(352,1378,l),
(338,1362,l),
(1022,1362,l),
(1022,1400,l),
(316,1400,l),
(238,716,l),
(522,716,ls),
(928,716,o),
(1052,590,o),
(1052,384,cs),
(1052,170,o),
(908,32,o),
(630,32,cs),
(424,32,o),
(254,114,o),
(176,218,c),
(150,192,l),
(234,76,o),
(420,-6,o),
(630,-6,cs)
);
}
);
};
layerId = "C062F820-65A0-41D8-894E-E8AB249BF7F4";
shapes = (
{
closed = 1;
nodes = (
(177,665,l),
(271,777,o),
(380,834,o),
(513,834,cs),
(711,834,o),
(791,708,o),
(783,529,cs),
(768,226,o),
(571,17,o),
(349,17,cs),
(236,17,o),
(125,72,o),
(68,235,c),
(46,211,l),
(98,49,o),
(224,-22,o),
(348,-22,cs),
(583,-22,o),
(798,218,o),
(814,535,cs),
(824,738,o),
(724,872,o),
(508,872,cs),
(369,872,o),
(267,810,o),
(160,676,c),
(186,684,l),
(326,1389,l),
(297,1359,l),
(920,1359,l),
(928,1397,l),
(301,1397,l),
(159,684,l)
);
}
);
width = 860;
},
{
background = {
shapes = (
{
closed = 1;
nodes = (
(920,-18,o),
(1092,188,o),
(1092,426,cs),
(1092,674,o),
(938,848,o),
(514,848,cs),
(234,848,l),
(344,740,l),
(402,1314,l),
(290,1208,l),
(1012,1208,l),
(1012,1400,l),
(206,1400,l),
(134,656,l),
(460,656,ls),
(768,656,o),
(862,566,o),
(862,420,cs),
(862,278,o),
(750,182,o),
(542,182,cs),
(376,182,o),
(222,240,o),
(124,326,c),
(40,144,l),
(154,44,o),
(350,-18,o),
(550,-18,cs)
);
},
{
closed = 1;
nodes = (
(-884,-18,o),
(-708,180,o),
(-708,416,cs),
(-708,654,o),
(-880,824,o),
(-1220,824,cs),
(-1292,824,l),
(-1170,752,l),
(-764,1244,l),
(-764,1400,l),
(-1704,1400,l),
(-1704,1202,l),
(-944,1202,l),
(-978,1292,l),
(-1384,800,l),
(-1384,638,l),
(-1264,638,ls),
(-1038,638,o),
(-938,550,o),
(-938,414,cs),
(-938,274,o),
(-1054,186,o),
(-1252,186,cs),
(-1416,186,o),
(-1570,244,o),
(-1668,330,c),
(-1772,148,l),
(-1646,44,o),
(-1448,-18,o),
(-1250,-18,cs)
);
}
);
};
layerId = "58A41879-64B1-4F52-8959-748DC716EC4E";
shapes = (
{
closed = 1;
nodes = (
(285,597,l),
(382,700,o),
(471,716,o),
(540,716,cs),
(655,716,o),
(704,631,o),
(698,511,cs),
(688,322,o),
(577,197,o),
(435,197,cs),
(338,197,o),
(235,240,o),
(168,357,c),
(63,171,l),
(137,48,o),
(274,-10,o),
(394,-10,cs),
(636,-10,o),
(852,223,o),
(868,549,cs),
(879,770,o),
(774,913,o),
(608,913,cs),
(505,913,o),
(416,878,o),
(354,825,c),
(366,809,l),
(450,1233,l),
(421,1203,l),
(946,1203,l),
(986,1400,l),
(335,1400,l),
(196,701,l)
);
}
);
width = 951;
},
{
background = {
shapes = (
{
closed = 1;
nodes = (
(1019,-32,o),
(1209,210,o),
(1209,460,cs),
(1209,708,o),
(1053,906,o),
(645,906,cs),
(319,906,l),
(557,704,l),
(599,1246,l),
(361,1044,l),
(1117,1044,l),
(1117,1400,l),
(195,1400,l),
(125,550,l),
(531,550,ls),
(701,550,o),
(743,510,o),
(743,450,cs),
(743,378,o),
(665,340,o),
(559,340,cs),
(441,340,o),
(305,372,o),
(185,442,c),
(33,94,l),
(181,10,o),
(387,-32,o),
(577,-32,cs)
);
}
);
};
layerId = "80EDA03B-FCE6-4340-AE48-D9302D36C121";
shapes = (
{
closed = 1;
nodes = (
(367,550,l),
(421,575,o),
(479,590,o),
(550,590,cs),
(694,590,o),
(732,529,o),
(732,476,cs),
(732,365,o),
(599,352,o),
(512,352,cs),
(405,352,o),
(275,384,o),
(169,454,c),
(-60,106,l),
(73,22,o),
(275,-20,o),
(463,-20,cs),
(821,-20,o),
(1217,163,o),
(1217,566,cs),
(1217,758,o),
(1084,906,o),
(752,906,cs),
(613,906,o),
(492,880,o),
(369,739,c),
(544,704,l),
(615,1061,l),
(579,1031,l),
(1215,1031,l),
(1289,1400,l),
(279,1400,l),
(139,699,l)
);
}
);
width = 1268;
},
{
background = {
shapes = (
{
closed = 1;
nodes = (
(920,-18,o),
(1092,188,o),
(1092,426,cs),
(1092,674,o),
(938,848,o),
(514,848,cs),
(234,848,l),
(344,740,l),
(402,1314,l),
(290,1208,l),
(1012,1208,l),
(1012,1400,l),
(206,1400,l),
(134,656,l),
(460,656,ls),
(768,656,o),
(862,566,o),
(862,420,cs),
(862,278,o),
(750,182,o),
(542,182,cs),
(376,182,o),
(222,240,o),
(124,326,c),
(40,144,l),
(154,44,o),
(350,-18,o),
(550,-18,cs)
);
},
{
closed = 1;
nodes = (
(-884,-18,o),
(-708,180,o),
(-708,416,cs),
(-708,654,o),
(-880,824,o),
(-1220,824,cs),
(-1292,824,l),
(-1170,752,l),
(-764,1244,l),
(-764,1400,l),
(-1704,1400,l),
(-1704,1202,l),
(-944,1202,l),
(-978,1292,l),
(-1384,800,l),
(-1384,638,l),
(-1264,638,ls),
(-1038,638,o),
(-938,550,o),
(-938,414,cs),
(-938,274,o),
(-1054,186,o),
(-1252,186,cs),
(-1416,186,o),
(-1570,244,o),
(-1668,330,c),
(-1772,148,l),
(-1646,44,o),
(-1448,-18,o),
(-1250,-18,cs)
);
}
);
};
layerId = "AC0EE6F4-16E5-4030-8D81-C9AA237C4AA5";
shapes = (
{
closed = 1;
nodes = (
(341,597,l),
(464,700,o),
(581,716,o),
(673,716,cs),
(826,716,o),
(897,631,o),
(897,511,cs),
(897,322,o),
(757,197,o),
(567,197,cs),
(438,197,o),
(298,240,o),
(201,357,c),
(73,171,l),
(180,48,o),
(366,-10,o),
(526,-10,cs),
(848,-10,o),
(1122,223,o),
(1122,549,cs),
(1122,770,o),
(973,913,o),
(751,913,cs),
(614,913,o),
(497,878,o),
(418,825,c),
(435,809,l),
(519,1233,l),
(483,1203,l),
(1183,1203,l),
(1223,1400,l),
(356,1400,l),
(216,701,l)
);
}
);
width = 1268;
},
{
background = {
shapes = (
{
closed = 1;
nodes = (
(930,-6,o),
(1092,152,o),
(1092,384,cs),
(1092,610,o),
(954,754,o),
(524,754,cs),
(266,754,l),
(278,734,l),
(352,1378,l),
(338,1362,l),
(1022,1362,l),
(1022,1400,l),
(316,1400,l),
(238,716,l),
(522,716,ls),
(928,716,o),
(1052,590,o),
(1052,384,cs),
(1052,170,o),
(908,32,o),
(630,32,cs),
(424,32,o),
(254,114,o),
(176,218,c),
(150,192,l),
(234,76,o),
(420,-6,o),
(630,-6,cs)
);
}
);
};
layerId = "DCC69D3D-7CEF-4C2A-8AC6-F0104D87F396";
shapes = (
{
closed = 1;
nodes = (
(192,667,l),
(310,779,o),
(452,836,o),
(629,836,cs),
(893,836,o),
(1009,710,o),
(1009,530,cs),
(1009,227,o),
(760,17,o),
(464,17,cs),
(313,17,o),
(162,72,o),
(75,236,c),
(48,212,l),
(128,49,o),
(300,-22,o),
(466,-22,cs),
(779,-22,o),
(1050,219,o),
(1050,536,cs),
(1050,740,o),
(908,874,o),
(621,874,cs),
(435,874,o),
(303,812,o),
(169,678,c),
(203,686,l),
(344,1392,l),
(308,1362,l),
(1138,1362,l),
(1146,1400,l),
(310,1400,l),
(167,686,l)
);
}
);
width = 1146;
}
);
leftKerningGroup = five;
rightKerningGroup = five;
unicode = 53;
},
{
glyphname = six;
layers = (
{
layerId = "CFAEB7A8-48EA-4DE1-AFDA-6738335377BD";
shapes = (
{
closed = 1;
nodes = (
(698,-20,o),
(917,218,o),
(934,564,cs),
(944,786,o),
(850,934,o),
(679,934,cs),
(578,934,o),
(500,886,o),
(442,820,c),
(475,992,o),
(562,1084,o),
(694,1084,cs),
(775,1084,o),
(838,1052,o),
(881,992,c),
(1067,1300,l),
(995,1376,o),
(866,1422,o),
(740,1422,cs),
(388,1422,o),
(102,1046,o),
(77,522,cs),
(61,192,o),
(184,-20,o),
(425,-20,cs)
);
},
{
closed = 1;
nodes = (
(423,332,o),
(396,372,o),
(400,440,cs),
(404,544,o),
(453,614,o),
(539,614,cs),
(594,614,o),
(621,576,o),
(617,508,cs),
(612,398,o),
(566,332,o),
(482,332,cs)
);
}
);
width = 951;
},
{
layerId = "C062F820-65A0-41D8-894E-E8AB249BF7F4";
shapes = (
{
closed = 1;
nodes = (
(673,-4,o),
(839,208,o),
(854,511,cs),
(865,734,o),
(756,872,o),
(561,872,cs),
(381,872,o),
(233,738,o),
(163,517,c),
(223,1042,o),
(413,1358,o),
(669,1358,cs),
(758,1358,o),
(857,1319,o),
(931,1255,c),
(952,1291,l),
(867,1358,o),
(759,1399,o),
(668,1399,cs),
(393,1399,o),
(158,998,o),
(133,489,cs),
(117,172,o),
(230,-4,o),
(452,-4,cs)
);
},
{
closed = 1;
nodes = (
(275,38,o),
(160,185,o),
(170,391,cs),
(182,631,o),
(361,832,o),
(562,832,cs),
(733,832,o),
(832,704,o),
(822,507,cs),
(809,233,o),
(653,38,o),
(448,38,cs)
);
}
);
width = 951;
},
{
layerId = "58A41879-64B1-4F52-8959-748DC716EC4E";
shapes = (
{
closed = 1;
nodes = (
(681,-10,o),
(881,214,o),
(898,548,cs),
(908,764,o),
(813,904,o),
(633,904,cs),
(501,904,o),
(388,834,o),
(307,698,c),
(359,1012,o),
(497,1224,o),
(701,1224,cs),
(781,1224,o),
(863,1192,o),
(916,1136,c),
(1019,1304,l),
(945,1368,o),
(829,1410,o),
(725,1410,cs),
(392,1410,o),
(131,1020,o),
(105,504,cs),
(89,182,o),
(203,-10,o),
(423,-10,cs)
);
},
{
closed = 1;
nodes = (
(301,182,o),
(261,326,o),
(287,450,c),
(314,598,o),
(423,728,o),
(566,728,cs),
(675,728,o),
(734,644,o),
(728,512,cs),
(718,312,o),
(599,182,o),
(452,182,cs)
);
}
);
width = 951;
},
{
layerId = "80EDA03B-FCE6-4340-AE48-D9302D36C121";
shapes = (
{
closed = 1;
nodes = (
(932,-20,o),
(1208,218,o),
(1208,564,cs),
(1208,786,o),
(1072,934,o),
(844,934,cs),
(710,934,o),
(608,886,o),
(536,820,c),
(568,992,o),
(678,1084,o),
(854,1084,cs),
(962,1084,o),
(1048,1052,o),
(1110,992,c),
(1338,1300,l),
(1236,1376,o),
(1062,1422,o),
(894,1422,cs),
(424,1422,o),
(68,1046,o),
(68,522,cs),
(68,192,o),
(246,-20,o),
(568,-20,cs)
);
},
{
closed = 1;
nodes = (
(542,332,o),
(504,372,o),
(504,440,cs),
(504,544,o),
(564,614,o),
(678,614,cs),
(752,614,o),
(790,576,o),
(790,508,cs),
(790,398,o),
(732,332,o),
(620,332,cs)
);
}
);
width = 1268;
},
{
layerId = "AC0EE6F4-16E5-4030-8D81-C9AA237C4AA5";
shapes = (
{
closed = 1;
nodes = (
(909,-10,o),
(1161,214,o),
(1161,548,cs),
(1161,764,o),
(1025,904,o),
(785,904,cs),
(609,904,o),
(463,834,o),
(363,698,c),
(413,1012,o),
(583,1224,o),
(855,1224,cs),
(961,1224,o),
(1073,1192,o),
(1147,1136,c),
(1273,1304,l),
(1171,1368,o),
(1013,1410,o),
(875,1410,cs),
(431,1410,o),
(107,1020,o),
(107,504,cs),
(107,182,o),
(271,-10,o),
(565,-10,cs)
);
},
{
closed = 1;
nodes = (
(389,182,o),
(327,326,o),
(353,450,c),
(379,598,o),
(517,728,o),
(707,728,cs),
(853,728,o),
(937,644,o),
(937,512,cs),
(937,312,o),
(787,182,o),
(591,182,cs)
);
}
);
width = 1268;
},
{
layerId = "DCC69D3D-7CEF-4C2A-8AC6-F0104D87F396";
shapes = (
{
closed = 1;
nodes = (
(897,-4,o),
(1105,208,o),
(1105,512,cs),
(1105,736,o),
(951,874,o),
(691,874,cs),
(451,874,o),
(263,740,o),
(183,518,c),
(229,1044,o),
(461,1362,o),
(803,1362,cs),
(921,1362,o),
(1057,1322,o),
(1159,1258,c),
(1185,1294,l),
(1067,1362,o),
(921,1402,o),
(799,1402,cs),
(433,1402,o),
(145,1000,o),
(145,490,cs),
(145,172,o),
(307,-4,o),
(603,-4,cs)
);
},
{
closed = 1;
nodes = (
(365,38,o),
(201,186,o),
(201,392,cs),
(201,632,o),
(427,834,o),
(695,834,cs),
(923,834,o),
(1063,706,o),
(1063,508,cs),
(1063,234,o),
(869,38,o),
(595,38,cs)
);
}
);
width = 1268;
}
);
leftKerningGroup = zero;
rightKerningGroup = six;
unicode = 54;
},
{
glyphname = seven;
layers = (
{
layerId = "CFAEB7A8-48EA-4DE1-AFDA-6738335377BD";
shapes = (
{
closed = 1;
nodes = (
(137,1046,l),
(646,1046,l),
(637,1071,l),
(74,0,l),
(441,0,l),
(1015,1094,l),
(1075,1402,l),
(206,1402,l)
);
}
);
width = 951;
},
{
layerId = "C062F820-65A0-41D8-894E-E8AB249BF7F4";
shapes = (
{
closed = 1;
nodes = (
(261,1355,l),
(998,1355,l),
(990,1379,l),
(192,0,l),
(225,0,l),
(1001,1345,l),
(1010,1394,l),
(271,1394,l)
);
}
);
width = 951;
},
{
layerId = "58A41879-64B1-4F52-8959-748DC716EC4E";
shapes = (
{
closed = 1;
nodes = (
(207,1200,l),
(831,1200,l),
(823,1225,l),
(141,0,l),
(329,0,l),
(1011,1230,l),
(1043,1400,l),
(244,1400,l)
);
}
);
width = 951;
},
{
layerId = "80EDA03B-FCE6-4340-AE48-D9302D36C121";
shapes = (
{
closed = 1;
nodes = (
(115,1046,l),
(793,1046,l),
(779,1071,l),
(98,0,l),
(588,0,l),
(1282,1094,l),
(1342,1402,l),
(184,1402,l)
);
}
);
width = 1268;
},
{
layerId = "AC0EE6F4-16E5-4030-8D81-C9AA237C4AA5";
shapes = (
{
closed = 1;
nodes = (
(198,1200,l),
(1030,1200,l),
(1017,1225,l),
(188,0,l),
(438,0,l),
(1268,1230,l),
(1300,1400,l),
(234,1400,l)
);
}
);
width = 1268;
},
{
layerId = "DCC69D3D-7CEF-4C2A-8AC6-F0104D87F396";
shapes = (
{
closed = 1;
nodes = (
(260,1358,l),
(1243,1358,l),
(1230,1383,l),
(256,0,l),
(300,0,l),
(1246,1348,l),
(1256,1398,l),
(270,1398,l)
);
}
);
width = 1268;
}
);
leftKerningGroup = seven;
rightKerningGroup = seven;
unicode = 55;
},
{
glyphname = eight;
layers = (
{
layerId = "CFAEB7A8-48EA-4DE1-AFDA-6738335377BD";
shapes = (
{
closed = 1;
nodes = (
(380,1422,o),
(188,1246,o),
(176,1000,cs),
(172,908,o),
(197,810,o),
(247,750,c),
(108,670,o),
(-1,504,o),
(-9,330,cs),
(-20,120,o),
(119,-20,o),
(359,-20,cs),
(656,-20,o),
(875,174,o),
(890,456,cs),
(896,576,o),
(859,692,o),
(790,750,c),
(881,826,o),
(951,956,o),
(958,1090,cs),
(968,1292,o),
(848,1422,o),
(638,1422,cs)
);
},
{
closed = 1;
nodes = (
(539,568,o),
(572,530,o),
(569,464,cs),
(564,366,o),
(513,310,o),
(423,310,cs),
(359,310,o),
(328,346,o),
(331,410,cs),
(335,508,o),
(385,568,o),
(475,568,cs)
);
},
{
closed = 1;
nodes = (
(637,1122,o),
(662,1090,o),
(659,1032,cs),
(656,946,o),
(614,898,o),
(538,898,cs),
(484,898,o),
(456,926,o),
(459,984,cs),
(464,1068,o),
(506,1122,o),
(581,1122,cs)
);
}
);
width = 951;
},
{
layerId = "C062F820-65A0-41D8-894E-E8AB249BF7F4";
shapes = (
{
closed = 1;
nodes = (
(403,1399,o),
(247,1249,o),
(236,1010,cs),
(230,882,o),
(282,792,o),
(379,750,c),
(190,695,o),
(65,547,o),
(53,320,cs),
(44,116,o),
(153,-4,o),
(354,-4,cs),
(612,-4,o),
(791,173,o),
(805,451,cs),
(812,602,o),
(744,708,o),
(620,750,c),
(779,810,o),
(878,934,o),
(887,1125,cs),
(896,1297,o),
(800,1399,o),
(626,1399,cs)
);
},
{
closed = 1;
nodes = (
(680,725,o),
(782,614,o),
(773,443,cs),
(761,197,o),
(596,36,o),
(360,36,cs),
(176,36,o),
(75,148,o),
(84,332,cs),
(95,571,o),
(262,725,o),
(494,725,cs)
);
},
{
closed = 1;
nodes = (
(778,1358,o),
(863,1265,o),
(856,1113,cs),
(845,902,o),
(707,764,o),
(503,764,cs),
(345,764,o),
(260,860,o),
(267,1013,cs),
(278,1223,o),
(418,1358,o),
(619,1358,cs)
);
}
);
width = 951;
},
{
layerId = "58A41879-64B1-4F52-8959-748DC716EC4E";
shapes = (
{
closed = 1;
nodes = (
(395,1410,o),
(221,1246,o),
(209,1004,cs),
(204,892,o),
(245,798,o),
(320,748,c),
(155,680,o),
(38,528,o),
(28,326,cs),
(18,118,o),
(140,-10,o),
(359,-10,cs),
(635,-10,o),
(833,174,o),
(847,452,cs),
(854,590,o),
(800,698,o),
(703,748,c),
(826,814,o),
(914,942,o),
(923,1108,cs),
(932,1294,o),
(827,1410,o),
(635,1410,cs)
);
},
{
closed = 1;
nodes = (
(618,650,o),
(686,574,o),
(680,450,cs),
(672,276,o),
(562,166,o),
(394,166,cs),
(263,166,o),
(195,240,o),
(201,368,cs),
(209,542,o),
(320,650,o),
(486,650,cs)
);
},
{
closed = 1;
nodes = (
(715,1248,o),
(772,1184,o),
(767,1074,cs),
(759,922,o),
(668,824,o),
(522,824,cs),
(411,824,o),
(353,888,o),
(358,998,cs),
(365,1152,o),
(460,1248,o),
(604,1248,cs)
);
}
);
width = 951;
},
{
layerId = "80EDA03B-FCE6-4340-AE48-D9302D36C121";
shapes = (
{
closed = 1;
nodes = (
(414,1422,o),
(170,1246,o),
(170,1000,cs),
(170,908,o),
(210,810,o),
(280,750,c),
(100,670,o),
(-34,504,o),
(-34,330,cs),
(-34,120,o),
(160,-20,o),
(480,-20,cs),
(876,-20,o),
(1156,174,o),
(1156,456,cs),
(1156,576,o),
(1100,692,o),
(1004,750,c),
(1120,826,o),
(1206,956,o),
(1206,1090,cs),
(1206,1292,o),
(1038,1422,o),
(758,1422,cs)
);
},
{
closed = 1;
nodes = (
(682,568,o),
(728,530,o),
(728,464,cs),
(728,366,o),
(664,310,o),
(544,310,cs),
(458,310,o),
(414,346,o),
(414,410,cs),
(414,508,o),
(476,568,o),
(596,568,cs)
);
},
{
closed = 1;
nodes = (
(776,1122,o),
(812,1090,o),
(812,1032,cs),
(812,946,o),
(760,898,o),
(658,898,cs),
(586,898,o),
(548,926,o),
(548,984,cs),
(548,1068,o),
(602,1122,o),
(702,1122,cs)
);
}
);
width = 1268;
},
{
layerId = "AC0EE6F4-16E5-4030-8D81-C9AA237C4AA5";
shapes = (
{
closed = 1;
nodes = (
(434,1410,o),
(214,1246,o),
(214,1004,cs),
(214,892,o),
(274,798,o),
(378,748,c),
(162,680,o),
(16,528,o),
(16,326,cs),
(16,118,o),
(188,-10,o),
(480,-10,cs),
(848,-10,o),
(1100,174,o),
(1100,452,cs),
(1100,590,o),
(1020,698,o),
(888,748,c),
(1048,814,o),
(1158,942,o),
(1158,1108,cs),
(1158,1294,o),
(1010,1410,o),
(754,1410,cs)
);
},
{
closed = 1;
nodes = (
(782,650,o),
(878,574,o),
(878,450,cs),
(878,276,o),
(738,166,o),
(514,166,cs),
(340,166,o),
(244,240,o),
(244,368,cs),
(244,542,o),
(384,650,o),
(606,650,cs)
);
},
{
closed = 1;
nodes = (
(872,1248,o),
(952,1184,o),
(952,1074,cs),
(952,922,o),
(836,824,o),
(642,824,cs),
(494,824,o),
(412,888,o),
(412,998,cs),
(412,1152,o),
(532,1248,o),
(724,1248,cs)
);
}
);
width = 1268;
},
{
layerId = "DCC69D3D-7CEF-4C2A-8AC6-F0104D87F396";
shapes = (
{
closed = 1;
nodes = (
(446,1402,o),
(248,1252,o),
(248,1012,cs),
(248,884,o),
(324,794,o),
(456,752,c),
(208,696,o),
(50,548,o),
(50,320,cs),
(50,116,o),
(204,-4,o),
(472,-4,cs),
(816,-4,o),
(1044,174,o),
(1044,452,cs),
(1044,604,o),
(946,710,o),
(778,752,c),
(986,812,o),
(1110,936,o),
(1110,1128,cs),
(1110,1300,o),
(976,1402,o),
(744,1402,cs)
);
},
{
closed = 1;
nodes = (
(860,726,o),
(1002,616,o),
(1002,444,cs),
(1002,198,o),
(792,36,o),
(478,36,cs),
(232,36,o),
(90,148,o),
(90,332,cs),
(90,572,o),
(302,726,o),
(612,726,cs)
);
},
{
closed = 1;
nodes = (
(948,1362,o),
(1068,1268,o),
(1068,1116,cs),
(1068,904,o),
(892,766,o),
(620,766,cs),
(410,766,o),
(290,862,o),
(290,1016,cs),
(290,1226,o),
(468,1362,o),
(736,1362,cs)
);
}
);
width = 1268;
}
);
leftKerningGroup = eight;
rightKerningGroup = eight;
unicode = 56;
},
{
glyphname = nine;
layers = (
{
layerId = "CFAEB7A8-48EA-4DE1-AFDA-6738335377BD";
shapes = (
{
closed = 1;
nodes = (
(-4,104,l),
(72,28,o),
(199,-20,o),
(322,-20,cs),
(679,-20,o),
(961,358,o),
(986,880,cs),
(1003,1212,o),
(880,1422,o),
(640,1422,cs),
(365,1422,o),
(149,1186,o),
(133,840,cs),
(122,618,o),
(215,468,o),
(385,468,cs),
(485,468,o),
(564,518,o),
(623,584,c),
(589,412,o),
(503,320,o),
(368,320,cs),
(289,320,o),
(226,350,o),
(182,412,c)
);
},
{
closed = 1;
nodes = (
(642,1072,o),
(668,1032,o),
(665,964,cs),
(660,860,o),
(612,790,o),
(527,790,cs),
(470,790,o),
(444,828,o),
(447,896,cs),
(452,1004,o),
(498,1072,o),
(582,1072,cs)
);
}
);
width = 951;
},
{
layerId = "C062F820-65A0-41D8-894E-E8AB249BF7F4";
shapes = (
{
closed = 1;
nodes = (
(104,104,l),
(188,36,o),
(296,-4,o),
(388,-4,cs),
(662,-4,o),
(898,397,o),
(923,906,cs),
(938,1223,o),
(825,1399,o),
(603,1399,cs),
(383,1399,o),
(216,1187,o),
(202,884,cs),
(191,660,o),
(299,523,o),
(494,523,cs),
(674,523,o),
(822,656,o),
(893,878,c),
(833,353,o),
(643,36,o),
(386,36,cs),
(298,36,o),
(198,76,o),
(125,140,c)
);
},
{
closed = 1;
nodes = (
(779,1357,o),
(896,1209,o),
(885,1004,cs),
(874,764,o),
(695,563,o),
(494,563,cs),
(323,563,o),
(224,690,o),
(233,888,cs),
(247,1161,o),
(401,1357,o),
(607,1357,cs)
);
}
);
width = 951;
},
{
layerId = "58A41879-64B1-4F52-8959-748DC716EC4E";
shapes = (
{
closed = 1;
nodes = (
(43,96,l),
(116,32,o),
(231,-10,o),
(335,-10,cs),
(666,-10,o),
(929,380,o),
(953,896,cs),
(969,1218,o),
(856,1410,o),
(637,1410,cs),
(380,1410,o),
(182,1184,o),
(166,852,cs),
(155,636,o),
(248,496,o),
(427,496,cs),
(559,496,o),
(671,566,o),
(752,702,c),
(698,388,o),
(561,176,o),
(359,176,cs),
(279,176,o),
(199,208,o),
(146,264,c)
);
},
{
closed = 1;
nodes = (
(759,1218,o),
(797,1074,o),
(772,950,c),
(745,802,o),
(637,672,o),
(494,672,cs),
(386,672,o),
(329,756,o),
(335,886,cs),
(345,1086,o),
(462,1218,o),
(608,1218,cs)
);
}
);
width = 951;
},
{
layerId = "80EDA03B-FCE6-4340-AE48-D9302D36C121";
shapes = (
{
closed = 1;
nodes = (
(-12,104,l),
(94,28,o),
(266,-20,o),
(430,-20,cs),
(906,-20,o),
(1258,358,o),
(1258,880,cs),
(1258,1212,o),
(1080,1422,o),
(760,1422,cs),
(394,1422,o),
(122,1186,o),
(122,840,cs),
(122,618,o),
(256,468,o),
(482,468,cs),
(616,468,o),
(718,518,o),
(792,584,c),
(758,412,o),
(650,320,o),
(470,320,cs),
(364,320,o),
(278,350,o),
(216,412,c)
);
},
{
closed = 1;
nodes = (
(786,1072,o),
(824,1032,o),
(824,964,cs),
(824,860,o),
(764,790,o),
(650,790,cs),
(574,790,o),
(538,828,o),
(538,896,cs),
(538,1004,o),
(594,1072,o),
(706,1072,cs)
);
}
);
width = 1268;
},
{
layerId = "AC0EE6F4-16E5-4030-8D81-C9AA237C4AA5";
shapes = (
{
closed = 1;
nodes = (
(51,96,l),
(153,32,o),
(309,-10,o),
(447,-10,cs),
(889,-10,o),
(1213,380,o),
(1213,896,cs),
(1213,1218,o),
(1049,1410,o),
(757,1410,cs),
(415,1410,o),
(165,1184,o),
(165,852,cs),
(165,636,o),
(299,496,o),
(537,496,cs),
(713,496,o),
(857,566,o),
(957,702,c),
(905,388,o),
(737,176,o),
(467,176,cs),
(361,176,o),
(251,208,o),
(177,264,c)
);
},
{
closed = 1;
nodes = (
(933,1218,o),
(993,1074,o),
(967,950,c),
(941,802,o),
(805,672,o),
(615,672,cs),
(471,672,o),
(389,756,o),
(389,886,cs),
(389,1086,o),
(537,1218,o),
(731,1218,cs)
);
}
);
width = 1268;
},
{
layerId = "DCC69D3D-7CEF-4C2A-8AC6-F0104D87F396";
shapes = (
{
closed = 1;
nodes = (
(131,104,l),
(249,36,o),
(395,-4,o),
(517,-4,cs),
(883,-4,o),
(1171,398,o),
(1171,908,cs),
(1171,1226,o),
(1009,1402,o),
(713,1402,cs),
(419,1402,o),
(211,1190,o),
(211,886,cs),
(211,662,o),
(365,524,o),
(625,524,cs),
(865,524,o),
(1053,658,o),
(1133,880,c),
(1087,354,o),
(855,36,o),
(513,36,cs),
(395,36,o),
(259,76,o),
(157,140,c)
);
},
{
closed = 1;
nodes = (
(951,1360,o),
(1115,1212,o),
(1115,1006,cs),
(1115,766,o),
(889,564,o),
(621,564,cs),
(393,564,o),
(253,692,o),
(253,890,cs),
(253,1164,o),
(447,1360,o),
(721,1360,cs)
);
}
);
width = 1268;
}
);
leftKerningGroup = nine;
rightKerningGroup = zero;
unicode = 57;
},
{
glyphname = less;
layers = (
{
layerId = "CFAEB7A8-48EA-4DE1-AFDA-6738335377BD";
shapes = (
{
closed = 1;
nodes = (
(125,824,l),
(59,468,l),
(674,98,l),
(729,388,l),
(305,634,l),
(826,860,l),
(889,1194,l)
);
}
);
width = 780;
},
{
layerId = "C062F820-65A0-41D8-894E-E8AB249BF7F4";
shapes = (
{
closed = 1;
nodes = (
(117,680,l),
(107,629,l),
(634,257,l),
(642,299,l),
(142,653,l),
(783,1006,l),
(791,1052,l)
);
}
);
width = 720;
},
{
layerId = "58A41879-64B1-4F52-8959-748DC716EC4E";
shapes = (
{
closed = 1;
nodes = (
(122,748,l),
(86,556,l),
(653,184,l),
(684,344,l),
(218,644,l),
(803,942,l),
(836,1118,l)
);
}
);
width = 747;
},
{
layerId = "80EDA03B-FCE6-4340-AE48-D9302D36C121";
shapes = (
{
closed = 1;
nodes = (
(113,824,l),
(47,468,l),
(893,98,l),
(947,388,l),
(365,634,l),
(1045,860,l),
(1107,1194,l)
);
}
);
width = 1040;
},
{
layerId = "AC0EE6F4-16E5-4030-8D81-C9AA237C4AA5";
shapes = (
{
closed = 1;
nodes = (
(114,748,l),
(78,556,l),
(858,184,l),
(890,344,l),
(248,644,l),
(1010,942,l),
(1042,1118,l)
);
}
);
width = 996;
},
{
layerId = "DCC69D3D-7CEF-4C2A-8AC6-F0104D87F396";
shapes = (
{
closed = 1;
nodes = (
(112,682,l),
(102,630,l),
(828,258,l),
(836,300,l),
(146,654,l),
(978,1008,l),
(986,1054,l)
);
}
);
width = 960;
}
);
leftKerningGroup = less;
rightKerningGroup = less;
unicode = 60;
},
{
glyphname = equal;
layers = (
{
layerId = "CFAEB7A8-48EA-4DE1-AFDA-6738335377BD";
shapes = (
{
closed = 1;
nodes = (
(165,1018,l),
(110,738,l),
(800,738,l),
(855,1018,l)
);
},
{
closed = 1;
nodes = (
(78,578,l),
(22,298,l),
(712,298,l),
(768,578,l)
);
}
);
width = 780;
},
{
layerId = "C062F820-65A0-41D8-894E-E8AB249BF7F4";
shapes = (
{
closed = 1;
nodes = (
(153,858,l),
(145,818,l),
(745,818,l),
(753,858,l)
);
},
{
closed = 1;
nodes = (
(74,459,l),
(65,419,l),
(665,419,l),
(674,459,l)
);
}
);
width = 720;
},
{
layerId = "58A41879-64B1-4F52-8959-748DC716EC4E";
shapes = (
{
closed = 1;
nodes = (
(159,932,l),
(129,782,l),
(771,782,l),
(801,932,l)
);
},
{
closed = 1;
nodes = (
(76,514,l),
(46,364,l),
(688,364,l),
(718,514,l)
);
}
);
width = 747;
},
{
layerId = "80EDA03B-FCE6-4340-AE48-D9302D36C121";
shapes = (
{
closed = 1;
nodes = (
(154,1018,l),
(98,738,l),
(1018,738,l),
(1074,1018,l)
);
},
{
closed = 1;
nodes = (
(66,578,l),
(10,298,l),
(930,298,l),
(986,578,l)
);
}
);
width = 1040;
},
{
layerId = "AC0EE6F4-16E5-4030-8D81-C9AA237C4AA5";
shapes = (
{
closed = 1;
nodes = (
(151,932,l),
(121,782,l),
(977,782,l),
(1007,932,l)
);
},
{
closed = 1;
nodes = (
(67,514,l),
(37,364,l),
(893,364,l),
(923,514,l)
);
}
);
width = 996;
},
{
layerId = "DCC69D3D-7CEF-4C2A-8AC6-F0104D87F396";
shapes = (
{
closed = 1;
nodes = (
(148,860,l),
(140,820,l),
(940,820,l),
(948,860,l)
);
},
{
closed = 1;
nodes = (
(68,460,l),
(60,420,l),
(860,420,l),
(868,460,l)
);
}
);
width = 960;
}
);
leftKerningGroup = equal;
rightKerningGroup = equal;
unicode = 61;
},
{
glyphname = greater;
layers = (
{
layerId = "CFAEB7A8-48EA-4DE1-AFDA-6738335377BD";
shapes = (
{
closed = 1;
nodes = (
(719,468,l),
(785,824,l),
(169,1194,l),
(114,904,l),
(539,658,l),
(17,432,l),
(-46,98,l)
);
}
);
width = 780;
},
{
layerId = "C062F820-65A0-41D8-894E-E8AB249BF7F4";
shapes = (
{
closed = 1;
nodes = (
(667,629,l),
(677,680,l),
(151,1052,l),
(143,1010,l),
(643,656,l),
(2,303,l),
(-7,257,l)
);
}
);
width = 720;
},
{
layerId = "58A41879-64B1-4F52-8959-748DC716EC4E";
shapes = (
{
closed = 1;
nodes = (
(689,554,l),
(725,746,l),
(158,1118,l),
(126,958,l),
(593,658,l),
(7,360,l),
(-26,184,l)
);
}
);
width = 747;
},
{
layerId = "80EDA03B-FCE6-4340-AE48-D9302D36C121";
shapes = (
{
closed = 1;
nodes = (
(927,468,l),
(993,824,l),
(147,1194,l),
(93,904,l),
(675,658,l),
(-5,432,l),
(-67,98,l)
);
}
);
width = 1040;
},
{
layerId = "AC0EE6F4-16E5-4030-8D81-C9AA237C4AA5";
shapes = (
{
closed = 1;
nodes = (
(882,554,l),
(918,746,l),
(138,1118,l),
(106,958,l),
(748,658,l),
(-14,360,l),
(-46,184,l)
);
}
);
width = 996;
},
{
layerId = "DCC69D3D-7CEF-4C2A-8AC6-F0104D87F396";
shapes = (
{
closed = 1;
nodes = (
(848,630,l),
(858,682,l),
(132,1054,l),
(124,1012,l),
(814,658,l),
(-18,304,l),
(-26,258,l)
);
}
);
width = 960;
}
);
leftKerningGroup = greater;
rightKerningGroup = greater;
unicode = 62;
},
{
glyphname = question;
layers = (
{
layerId = "CFAEB7A8-48EA-4DE1-AFDA-6738335377BD";
shapes = (
{
closed = 1;
nodes = (
(620,542,l),
(620,549,o),
(620,559,o),
(620,564,cs),
(622,604,o),
(654,626,o),
(695,657,cs),
(867,787,ls),
(926,832,o),
(961,931,o),
(967,1063,cs),
(981,1351,o),
(714,1432,o),
(544,1432,cs),
(371,1432,o),
(211,1350,o),
(95,1165,c),
(325,954,l),
(366,1021,o),
(428,1070,o),
(493,1070,cs),
(533,1070,o),
(595,1047,o),
(592,979,cs),
(589,927,o),
(563,892,o),
(525,864,cs),
(384,757,ls),
(341,724,o),
(314,662,o),
(311,576,cs),
(309,559,o),
(310,542,o),
(311,526,c)
);
},
{
closed = 1;
nodes = (
(524,-20,o),
(634,86,o),
(641,240,cs),
(648,384,o),
(556,456,o),
(458,456,cs),
(349,456,o),
(242,354,o),
(235,200,cs),
(228,60,o),
(317,-20,o),
(415,-20,cs)
);
}
);
width = 909;
},
{
layerId = "C062F820-65A0-41D8-894E-E8AB249BF7F4";
shapes = (
{
closed = 1;
nodes = (
(338,387,l),
(335,405,o),
(334,424,o),
(335,442,cs),
(338,527,o),
(385,581,o),
(449,620,cs),
(707,777,ls),
(789,828,o),
(845,934,o),
(852,1088,cs),
(864,1330,o),
(670,1403,o),
(521,1403,cs),
(409,1403,o),
(300,1361,o),
(208,1265,c),
(223,1234,l),
(310,1325,o),
(408,1364,o),
(515,1364,cs),
(648,1364,o),
(831,1307,o),
(821,1085,cs),
(814,952,o),
(768,855,o),
(695,810,cs),
(437,653,ls),
(364,608,o),
(311,548,o),
(305,446,cs),
(305,422,o),
(306,399,o),
(310,376,c)
);
},
{
closed = 1;
nodes = (
(317,10,o),
(338,36,o),
(340,67,cs),
(341,92,o),
(324,112,o),
(306,112,cs),
(283,112,o),
(262,86,o),
(260,55,cs),
(259,29,o),
(275,10,o),
(294,10,cs)
);
}
);
width = 831;
},
{
layerId = "58A41879-64B1-4F52-8959-748DC716EC4E";
shapes = (
{
closed = 1;
nodes = (
(447,442,l),
(446,461,o),
(443,481,o),
(445,501,cs),
(448,570,o),
(486,612,o),
(541,648,cs),
(760,792,ls),
(831,839,o),
(877,938,o),
(884,1079,cs),
(897,1346,o),
(673,1424,o),
(512,1424,cs),
(375,1424,o),
(242,1366,o),
(135,1239,c),
(239,1103,l),
(309,1188,o),
(395,1229,o),
(486,1229,cs),
(578,1229,o),
(706,1186,o),
(698,1033,cs),
(695,955,o),
(655,905,o),
(599,871,cs),
(386,743,ls),
(324,705,o),
(282,630,o),
(277,521,cs),
(275,486,o),
(278,450,o),
(284,416,c)
);
},
{
closed = 1;
nodes = (
(398,-12,o),
(457,58,o),
(461,146,cs),
(465,223,o),
(421,272,o),
(366,272,cs),
(301,272,o),
(242,201,o),
(238,115,cs),
(234,38,o),
(278,-12,o),
(333,-12,cs)
);
}
);
width = 866;
},
{
layerId = "80EDA03B-FCE6-4340-AE48-D9302D36C121";
shapes = (
{
closed = 1;
nodes = (
(792,542,l),
(791,549,o),
(790,559,o),
(790,564,cs),
(790,604,o),
(831,626,o),
(884,657,cs),
(1105,787,ls),
(1181,832,o),
(1220,931,o),
(1220,1063,cs),
(1220,1351,o),
(859,1432,o),
(632,1432,cs),
(402,1432,o),
(193,1350,o),
(50,1165,c),
(371,954,l),
(421,1021,o),
(501,1070,o),
(587,1070,cs),
(641,1070,o),
(725,1047,o),
(725,979,cs),
(725,927,o),
(692,892,o),
(644,864,cs),
(463,757,ls),
(407,724,o),
(376,662,o),
(376,576,cs),
(376,559,o),
(378,542,o),
(380,526,c)
);
},
{
closed = 1;
nodes = (
(700,-20,o),
(839,86,o),
(839,240,cs),
(839,384,o),
(711,456,o),
(580,456,cs),
(435,456,o),
(300,354,o),
(300,200,cs),
(300,60,o),
(424,-20,o),
(554,-20,cs)
);
}
);
width = 1212;
},
{
layerId = "AC0EE6F4-16E5-4030-8D81-C9AA237C4AA5";
shapes = (
{
closed = 1;
nodes = (
(567,442,l),
(564,461,o),
(560,481,o),
(560,501,cs),
(560,570,o),
(608,612,o),
(679,648,cs),
(961,792,ls),
(1053,839,o),
(1108,938,o),
(1108,1079,cs),
(1108,1346,o),
(804,1424,o),
(590,1424,cs),
(407,1424,o),
(233,1366,o),
(99,1239,c),
(246,1103,l),
(335,1188,o),
(446,1229,o),
(568,1229,cs),
(690,1229,o),
(864,1186,o),
(864,1033,cs),
(864,955,o),
(814,905,o),
(741,871,cs),
(467,743,ls),
(386,705,o),
(335,630,o),
(335,521,cs),
(335,486,o),
(342,450,o),
(351,416,c)
);
},
{
closed = 1;
nodes = (
(532,-12,o),
(605,58,o),
(605,146,cs),
(605,223,o),
(543,272,o),
(470,272,cs),
(383,272,o),
(310,201,o),
(310,115,cs),
(310,38,o),
(371,-12,o),
(445,-12,cs)
);
}
);
width = 1154;
},
{
layerId = "DCC69D3D-7CEF-4C2A-8AC6-F0104D87F396";
shapes = (
{
closed = 1;
nodes = (
(425,388,l),
(420,406,o),
(417,425,o),
(417,443,cs),
(417,528,o),
(475,582,o),
(558,621,cs),
(891,779,ls),
(998,830,o),
(1065,936,o),
(1065,1091,cs),
(1065,1333,o),
(802,1406,o),
(604,1406,cs),
(454,1406,o),
(311,1364,o),
(195,1268,c),
(217,1237,l),
(327,1328,o),
(455,1368,o),
(598,1368,cs),
(775,1368,o),
(1023,1310,o),
(1023,1088,cs),
(1023,954,o),
(968,857,o),
(873,812,cs),
(539,654,ls),
(445,609,o),
(378,549,o),
(378,447,cs),
(378,423,o),
(382,400,o),
(388,377,c)
);
},
{
closed = 1;
nodes = (
(422,10,o),
(449,36,o),
(449,67,cs),
(449,92,o),
(425,112,o),
(401,112,cs),
(370,112,o),
(343,86,o),
(343,55,cs),
(343,29,o),
(366,10,o),
(391,10,cs)
);
}
);
width = 1108;
}
);
leftKerningGroup = question;
rightKerningGroup = question;
unicode = 63;
},
{
glyphname = at;
layers = (
{
layerId = "CFAEB7A8-48EA-4DE1-AFDA-6738335377BD";
shapes = (
{
closed = 1;
nodes = (
(433,1396,o),
(62,964,o),
(36,432,cs),
(16,16,o),
(220,-290,o),
(538,-290,cs),
(655,-290,o),
(814,-232,o),
(914,-138,c),
(864,34,l),
(767,-54,o),
(653,-92,o),
(569,-92,cs),
(335,-92,o),
(185,142,o),
(201,456,cs),
(221,858,o),
(501,1198,o),
(786,1198,cs),
(1046,1198,o),
(1169,956,o),
(1154,644,cs),
(1142,402,o),
(1049,244,o),
(987,244,cs),
(960,244,o),
(944,264,o),
(956,332,cs),
(1056,982,l),
(854,982,l),
(841,900,l),
(841,900,o),
(794,1006,o),
(686,1006,cs),
(488,1006,o),
(331,752,o),
(317,482,cs),
(306,242,o),
(423,86,o),
(566,86,cs),
(635,86,o),
(714,124,o),
(785,228,c),
(786,214,ls),
(791,110,o),
(851,66,o),
(941,66,cs),
(1128,66,o),
(1298,300,o),
(1315,662,cs),
(1336,1086,o),
(1135,1396,o),
(817,1396,cs)
);
},
{
closed = 1;
nodes = (
(752,758,o),
(782,682,o),
(777,588,cs),
(771,456,o),
(710,328,o),
(623,328,cs),
(565,328,o),
(539,412,o),
(544,510,cs),
(551,640,o),
(613,758,o),
(688,758,cs)
);
}
);
width = 1298;
},
{
layerId = "C062F820-65A0-41D8-894E-E8AB249BF7F4";
shapes = (
{
closed = 1;
nodes = (
(492,1439,o),
(116,970,o),
(88,387,cs),
(66,-54,o),
(287,-355,o),
(634,-355,cs),
(725,-355,o),
(848,-317,o),
(926,-263,c),
(919,-227,l),
(842,-278,o),
(721,-315,o),
(637,-315,cs),
(307,-315,o),
(98,-30,o),
(118,389,cs),
(146,944,o),
(508,1399,o),
(925,1399,cs),
(1258,1399,o),
(1467,1101,o),
(1445,662,cs),
(1429,317,o),
(1292,8,o),
(1157,8,cs),
(1088,8,o),
(1057,78,o),
(1074,190,cs),
(1206,1048,l),
(1176,1048,l),
(1128,743,l),
(1100,934,o),
(985,1052,o),
(826,1052,cs),
(583,1052,o),
(376,782,o),
(359,447,cs),
(347,190,o),
(472,12,o),
(668,12,cs),
(827,12,o),
(977,128,o),
(1063,317,c),
(1044,185,ls),
(1026,54,o),
(1068,-32,o),
(1151,-32,cs),
(1310,-32,o),
(1455,284,o),
(1474,666,cs),
(1496,1125,o),
(1275,1439,o),
(927,1439,cs)
);
},
{
closed = 1;
nodes = (
(1002,1012,o),
(1117,850,o),
(1106,611,cs),
(1091,303,o),
(895,52,o),
(671,52,cs),
(490,52,o),
(377,214,o),
(388,451,cs),
(403,758,o),
(600,1012,o),
(822,1012,cs)
);
}
);
width = 1509;
},
{
layerId = "58A41879-64B1-4F52-8959-748DC716EC4E";
shapes = (
{
closed = 1;
nodes = (
(480,1404,o),
(93,974,o),
(66,434,cs),
(45,6,o),
(269,-308,o),
(617,-308,cs),
(731,-308,o),
(887,-254,o),
(989,-170,c),
(950,-26,l),
(853,-106,o),
(731,-144,o),
(643,-144,cs),
(362,-144,o),
(181,106,o),
(197,452,cs),
(219,890,o),
(538,1246,o),
(875,1246,cs),
(1177,1246,o),
(1337,982,o),
(1319,632,cs),
(1307,370,o),
(1199,186,o),
(1113,186,cs),
(1073,186,o),
(1049,218,o),
(1061,296,cs),
(1169,996,l),
(1007,996,l),
(987,864,l),
(979,908,o),
(905,1016,o),
(773,1016,cs),
(552,1016,o),
(377,766,o),
(362,478,cs),
(350,234,o),
(476,68,o),
(644,68,cs),
(747,68,o),
(849,128,o),
(929,250,c),
(926,208,l),
(926,96,o),
(983,44,o),
(1075,44,cs),
(1267,44,o),
(1433,286,o),
(1451,652,cs),
(1472,1090,o),
(1251,1404,o),
(900,1404,cs)
);
},
{
closed = 1;
nodes = (
(880,820,o),
(938,716,o),
(932,584,cs),
(923,412,o),
(823,262,o),
(691,262,cs),
(589,262,o),
(536,372,o),
(542,508,cs),
(551,678,o),
(652,820,o),
(773,820,cs)
);
}
);
width = 1461;
},
{
layerId = "80EDA03B-FCE6-4340-AE48-D9302D36C121";
shapes = (
{
closed = 1;
nodes = (
(486,1396,o),
(20,964,o),
(20,432,cs),
(20,16,o),
(312,-290,o),
(736,-290,cs),
(892,-290,o),
(1100,-232,o),
(1228,-138,c),
(1150,34,l),
(1026,-54,o),
(876,-92,o),
(764,-92,cs),
(452,-92,o),
(238,142,o),
(238,456,cs),
(238,858,o),
(590,1198,o),
(970,1198,cs),
(1316,1198,o),
(1496,956,o),
(1496,644,cs),
(1496,402,o),
(1382,244,o),
(1300,244,cs),
(1264,244,o),
(1242,264,o),
(1252,332,cs),
(1344,982,l),
(1074,982,l),
(1062,900,l),
(1062,900,o),
(992,1006,o),
(848,1006,cs),
(584,1006,o),
(392,752,o),
(392,482,cs),
(392,242,o),
(558,86,o),
(748,86,cs),
(840,86,o),
(944,124,o),
(1032,228,c),
(1034,214,ls),
(1048,110,o),
(1130,66,o),
(1250,66,cs),
(1500,66,o),
(1710,300,o),
(1710,662,cs),
(1710,1086,o),
(1422,1396,o),
(998,1396,cs)
);
},
{
closed = 1;
nodes = (
(954,758,o),
(998,682,o),
(998,588,cs),
(998,456,o),
(926,328,o),
(810,328,cs),
(732,328,o),
(692,412,o),
(692,510,cs),
(692,640,o),
(768,758,o),
(868,758,cs)
);
}
);
width = 1730;
},
{
layerId = "AC0EE6F4-16E5-4030-8D81-C9AA237C4AA5";
shapes = (
{
closed = 1;
nodes = (
(548,1404,o),
(60,974,o),
(60,434,cs),
(60,6,o),
(378,-308,o),
(842,-308,cs),
(994,-308,o),
(1200,-254,o),
(1330,-170,c),
(1268,-26,l),
(1144,-106,o),
(984,-144,o),
(866,-144,cs),
(492,-144,o),
(234,106,o),
(234,452,cs),
(234,890,o),
(636,1246,o),
(1086,1246,cs),
(1488,1246,o),
(1718,982,o),
(1718,632,cs),
(1718,370,o),
(1586,186,o),
(1472,186,cs),
(1418,186,o),
(1384,218,o),
(1396,296,cs),
(1494,996,l),
(1278,996,l),
(1260,864,l),
(1246,908,o),
(1140,1016,o),
(964,1016,cs),
(670,1016,o),
(452,766,o),
(452,478,cs),
(452,234,o),
(630,68,o),
(854,68,cs),
(992,68,o),
(1124,128,o),
(1222,250,c),
(1220,208,l),
(1228,96,o),
(1308,44,o),
(1430,44,cs),
(1686,44,o),
(1892,286,o),
(1892,652,cs),
(1892,1090,o),
(1576,1404,o),
(1108,1404,cs)
);
},
{
closed = 1;
nodes = (
(1120,820,o),
(1204,716,o),
(1204,584,cs),
(1204,412,o),
(1080,262,o),
(904,262,cs),
(768,262,o),
(690,372,o),
(690,508,cs),
(690,678,o),
(816,820,o),
(978,820,cs)
);
}
);
width = 1948;
},
{
layerId = "DCC69D3D-7CEF-4C2A-8AC6-F0104D87F396";
shapes = (
{
closed = 1;
nodes = (
(562,1442,o),
(92,972,o),
(92,388,cs),
(92,-54,o),
(406,-356,o),
(868,-356,cs),
(990,-356,o),
(1152,-318,o),
(1252,-264,c),
(1240,-228,l),
(1140,-278,o),
(982,-316,o),
(870,-316,cs),
(430,-316,o),
(132,-30,o),
(132,390,cs),
(132,946,o),
(586,1402,o),
(1142,1402,cs),
(1586,1402,o),
(1884,1104,o),
(1884,664,cs),
(1884,318,o),
(1722,8,o),
(1542,8,cs),
(1450,8,o),
(1404,78,o),
(1420,190,cs),
(1540,1050,l),
(1500,1050,l),
(1456,744,l),
(1406,936,o),
(1244,1054,o),
(1032,1054,cs),
(708,1054,o),
(450,784,o),
(450,448,cs),
(450,190,o),
(628,12,o),
(890,12,cs),
(1102,12,o),
(1294,128,o),
(1396,318,c),
(1380,186,ls),
(1364,54,o),
(1426,-32,o),
(1536,-32,cs),
(1748,-32,o),
(1922,284,o),
(1922,668,cs),
(1922,1128,o),
(1606,1442,o),
(1142,1442,cs)
);
},
{
closed = 1;
nodes = (
(1270,1014,o),
(1434,852,o),
(1434,612,cs),
(1434,304,o),
(1190,52,o),
(892,52,cs),
(650,52,o),
(488,214,o),
(488,452,cs),
(488,760,o),
(734,1014,o),
(1030,1014,cs)
);
}
);
width = 2012;
}
);
leftKerningGroup = O;
rightKerningGroup = O;
unicode = 64;
},
{
glyphname = A;
layers = (
{
anchors = (
{
name = bottom;
position = "{662, 0}";
},
{
name = ogonek;
position = "{1338, 0}";
},
{
name = top;
position = "{904, 1400}";
}
);
layerId = "80EDA03B-FCE6-4340-AE48-D9302D36C121";
shapes = (
{
closed = 1;
nodes = (
(692,1400,l),
(-130,0,l),
(342,0,l),
(936,1116,l),
(804,1138,l),
(1008,0,l),
(1506,0,l),
(1168,1400,l)
);
},
{
closed = 1;
nodes = (
(350,530,l),
(296,198,l),
(1110,198,l),
(1164,530,l)
);
}
);
width = 1596;
},
{
anchors = (
{
name = bottom;
position = "{497, 0}";
},
{
name = ogonek;
position = "{1004, 0}";
},
{
name = top;
position = "{746, 1400}";
}
);
layerId = "CFAEB7A8-48EA-4DE1-AFDA-6738335377BD";
shapes = (
{
closed = 1;
nodes = (
(587,1400,l),
(-98,0,l),
(257,0,l),
(757,1116,l),
(659,1138,l),
(756,0,l),
(1130,0,l),
(944,1400,l)
);
},
{
closed = 1;
nodes = (
(288,530,l),
(232,198,l),
(842,198,l),
(899,530,l)
);
}
);
width = 1197;
},
{
anchors = (
{
name = bottom;
position = "{664, 0}";
},
{
name = ogonek;
position = "{1368, 0}";
},
{
name = top;
position = "{862, 1400}";
}
);
layerId = "AC0EE6F4-16E5-4030-8D81-C9AA237C4AA5";
shapes = (
{
closed = 1;
nodes = (
(744,1400,l),
(-104,0,l),
(140,0,l),
(870,1252,l),
(792,1262,l),
(1116,0,l),
(1368,0,l),
(986,1400,l)
);
},
{
closed = 1;
nodes = (
(292,524,l),
(258,324,l),
(1094,324,l),
(1130,524,l)
);
}
);
width = 1476;
},
{
anchors = (
{
name = bottom;
position = "{498, 0}";
},
{
name = ogonek;
position = "{1026, 0}";
},
{
name = top;
position = "{715, 1400}";
}
);
layerId = "58A41879-64B1-4F52-8959-748DC716EC4E";
shapes = (
{
closed = 1;
nodes = (
(626,1400,l),
(-78,0,l),
(105,0,l),
(714,1252,l),
(656,1262,l),
(837,0,l),
(1026,0,l),
(808,1400,l)
);
},
{
closed = 1;
nodes = (
(245,524,l),
(209,324,l),
(836,324,l),
(873,524,l)
);
}
);
width = 1107;
},
{
anchors = (
{
name = bottom;
position = "{584, 0}";
},
{
name = ogonek;
position = "{1250, 0}";
},
{
name = top;
position = "{816, 1400}";
}
);
layerId = "DCC69D3D-7CEF-4C2A-8AC6-F0104D87F396";
shapes = (
{
closed = 1;
nodes = (
(790,1400,l),
(-84,0,l),
(-36,0,l),
(814,1370,l),
(798,1372,l),
(1204,0,l),
(1250,0,l),
(834,1400,l)
);
},
{
closed = 1;
nodes = (
(224,466,l),
(218,426,l),
(1088,426,l),
(1094,466,l)
);
}
);
width = 1374;
},
{
anchors = (
{
name = bottom;
position = "{438, 0}";
},
{
name = ogonek;
position = "{938, 0}";
},
{
name = top;
position = "{680, 1397}";
}
);
layerId = "C062F820-65A0-41D8-894E-E8AB249BF7F4";
shapes = (
{
closed = 1;
nodes = (
(661,1397,l),
(-63,0,l),
(-27,0,l),
(677,1367,l),
(665,1369,l),
(903,0,l),
(938,0,l),
(694,1397,l)
);
},
{
closed = 1;
nodes = (
(191,465,l),
(184,425,l),
(837,425,l),
(843,465,l)
);
}
);
width = 1031;
}
);
leftKerningGroup = A;
rightKerningGroup = A;
unicode = 65;
},
{
glyphname = B;
layers = (
{
layerId = "CFAEB7A8-48EA-4DE1-AFDA-6738335377BD";
shapes = (
{
closed = 1;
nodes = (
(270,1400,l),
(-8,0,l),
(548,0,ls),
(833,0,o),
(1045,182,o),
(1058,458,cs),
(1065,600,o),
(1012,714,o),
(912,746,c),
(1046,796,o),
(1148,936,o),
(1155,1094,cs),
(1164,1278,o),
(1031,1400,o),
(801,1400,cs)
);
},
{
closed = 1;
nodes = (
(587,1258,l),
(398,1060,l),
(714,1060,ls),
(756,1060,o),
(779,1030,o),
(776,980,cs),
(773,910,o),
(730,860,o),
(674,860,cs),
(485,860,l),
(424,554,l),
(613,554,ls),
(671,554,o),
(704,520,o),
(702,468,cs),
(698,394,o),
(643,340,o),
(571,340,cs),
(254,340,l),
(368,142,l)
);
}
);
width = 1085;
},
{
layerId = "C062F820-65A0-41D8-894E-E8AB249BF7F4";
shapes = (
{
closed = 1;
nodes = (
(391,1397,l),
(113,0,l),
(536,0,ls),
(809,0,o),
(982,168,o),
(995,439,cs),
(1003,597,o),
(932,706,o),
(793,728,c),
(957,764,o),
(1063,914,o),
(1073,1117,cs),
(1082,1293,o),
(989,1397,o),
(814,1397,cs)
);
},
{
closed = 1;
nodes = (
(417,1375,l),
(399,1357,l),
(806,1357,ls),
(966,1357,o),
(1050,1265,o),
(1043,1107,cs),
(1032,884,o),
(896,744,o),
(683,744,cs),
(282,744,l),
(276,706,l),
(677,706,ls),
(872,706,o),
(973,604,o),
(965,431,cs),
(953,190,o),
(795,40,o),
(543,40,cs),
(137,40,l),
(147,22,l)
);
}
);
width = 1098;
},
{
layerId = "58A41879-64B1-4F52-8959-748DC716EC4E";
shapes = (
{
closed = 1;
nodes = (
(335,1400,l),
(57,0,l),
(524,0,ls),
(792,0,o),
(979,174,o),
(993,452,cs),
(1000,602,o),
(941,710,o),
(827,738,c),
(971,780,o),
(1073,926,o),
(1082,1108,cs),
(1091,1290,o),
(985,1400,o),
(791,1400,cs)
);
},
{
closed = 1;
nodes = (
(491,1300,l),
(393,1198,l),
(743,1198,ls),
(842,1198,o),
(894,1144,o),
(890,1046,cs),
(883,906,o),
(796,818,o),
(667,818,cs),
(372,818,l),
(332,616,l),
(627,616,ls),
(750,616,o),
(816,552,o),
(811,444,cs),
(803,292,o),
(701,202,o),
(544,202,cs),
(196,202,l),
(254,100,l)
);
}
);
width = 1059;
},
{
layerId = "80EDA03B-FCE6-4340-AE48-D9302D36C121";
shapes = (
{
closed = 1;
nodes = (
(269,1400,l),
(-11,0,l),
(731,0,ls),
(1111,0,o),
(1381,182,o),
(1381,458,cs),
(1381,600,o),
(1303,714,o),
(1167,746,c),
(1343,796,o),
(1469,936,o),
(1469,1094,cs),
(1469,1278,o),
(1283,1400,o),
(977,1400,cs)
);
},
{
closed = 1;
nodes = (
(701,1258,l),
(461,1060,l),
(883,1060,ls),
(939,1060,o),
(971,1030,o),
(971,980,cs),
(971,910,o),
(917,860,o),
(843,860,cs),
(591,860,l),
(529,554,l),
(781,554,ls),
(859,554,o),
(905,520,o),
(905,468,cs),
(905,394,o),
(835,340,o),
(739,340,cs),
(317,340,l),
(481,142,l)
);
}
);
width = 1446;
},
{
layerId = "AC0EE6F4-16E5-4030-8D81-C9AA237C4AA5";
shapes = (
{
closed = 1;
nodes = (
(356,1400,l),
(76,0,l),
(698,0,ls),
(1056,0,o),
(1294,174,o),
(1294,452,cs),
(1294,602,o),
(1208,710,o),
(1054,738,c),
(1244,780,o),
(1370,926,o),
(1370,1108,cs),
(1370,1290,o),
(1222,1400,o),
(964,1400,cs)
);
},
{
closed = 1;
nodes = (
(570,1300,l),
(446,1198,l),
(912,1198,ls),
(1044,1198,o),
(1118,1144,o),
(1118,1046,cs),
(1118,906,o),
(1008,818,o),
(836,818,cs),
(442,818,l),
(402,616,l),
(796,616,ls),
(960,616,o),
(1052,552,o),
(1052,444,cs),
(1052,292,o),
(922,202,o),
(712,202,cs),
(248,202,l),
(332,100,l)
);
}
);
width = 1412;
},
{
layerId = "DCC69D3D-7CEF-4C2A-8AC6-F0104D87F396";
shapes = (
{
closed = 1;
nodes = (
(430,1400,l),
(150,0,l),
(714,0,ls),
(1078,0,o),
(1298,168,o),
(1298,440,cs),
(1298,598,o),
(1196,708,o),
(1010,730,c),
(1226,766,o),
(1358,916,o),
(1358,1120,cs),
(1358,1296,o),
(1228,1400,o),
(994,1400,cs)
);
},
{
closed = 1;
nodes = (
(466,1378,l),
(444,1360,l),
(986,1360,ls),
(1200,1360,o),
(1318,1268,o),
(1318,1110,cs),
(1318,886,o),
(1146,746,o),
(862,746,cs),
(328,746,l),
(322,708,l),
(856,708,ls),
(1116,708,o),
(1258,606,o),
(1258,432,cs),
(1258,190,o),
(1058,40,o),
(722,40,cs),
(180,40,l),
(194,22,l)
);
}
);
width = 1464;
}
);
leftKerningGroup = H;
rightKerningGroup = B;
unicode = 66;
},
{
glyphname = C;
layers = (
{
anchors = (
{
name = bottom;
position = "{676, 0}";
},
{
name = top;
position = "{874, 1400}";
}
);
layerId = "80EDA03B-FCE6-4340-AE48-D9302D36C121";
shapes = (
{
closed = 1;
nodes = (
(408,1430,o),
(40,1092,o),
(40,634,cs),
(40,248,o),
(310,-32,o),
(710,-32,cs),
(926,-32,o),
(1176,80,o),
(1348,252,c),
(1110,538,l),
(1008,438,o),
(874,374,o),
(774,374,cs),
(622,374,o),
(518,502,o),
(518,674,cs),
(518,886,o),
(662,1044,o),
(842,1044,cs),
(950,1044,o),
(1068,968,o),
(1140,852,c),
(1442,1170,l),
(1312,1328,o),
(1090,1430,o),
(876,1430,cs)
);
}
);
width = 1374;
},
{
anchors = (
{
name = bottom;
position = "{507, 0}";
},
{
name = top;
position = "{724, 1400}";
}
);
layerId = "CFAEB7A8-48EA-4DE1-AFDA-6738335377BD";
shapes = (
{
closed = 1;
nodes = (
(376,1430,o),
(83,1092,o),
(61,634,cs),
(42,248,o),
(231,-32,o),
(531,-32,cs),
(693,-32,o),
(886,80,o),
(1023,252,c),
(859,538,l),
(777,438,o),
(674,374,o),
(599,374,cs),
(485,374,o),
(413,502,o),
(421,674,cs),
(432,886,o),
(548,1044,o),
(683,1044,cs),
(764,1044,o),
(848,968,o),
(897,852,c),
(1139,1170,l),
(1049,1328,o),
(887,1430,o),
(727,1430,cs)
);
}
);
width = 1031;
},
{
anchors = (
{
name = bottom;
position = "{709, 0}";
},
{
name = top;
position = "{829, 1400}";
}
);
layerId = "AC0EE6F4-16E5-4030-8D81-C9AA237C4AA5";
shapes = (
{
closed = 1;
nodes = (
(451,1414,o),
(79,1072,o),
(79,642,cs),
(79,270,o),
(355,-16,o),
(739,-16,cs),
(937,-16,o),
(1147,74,o),
(1305,214,c),
(1179,360,l),
(1063,256,o),
(913,192,o),
(773,192,cs),
(511,192,o),
(321,398,o),
(321,660,cs),
(321,968,o),
(575,1216,o),
(875,1216,cs),
(1017,1216,o),
(1153,1148,o),
(1245,1036,c),
(1401,1198,l),
(1279,1332,o),
(1089,1414,o),
(891,1414,cs)
);
}
);
width = 1394;
},
{
anchors = (
{
name = bottom;
position = "{532, 0}";
},
{
name = top;
position = "{690, 1400}";
}
);
layerId = "58A41879-64B1-4F52-8959-748DC716EC4E";
shapes = (
{
closed = 1;
nodes = (
(407,1414,o),
(112,1072,o),
(91,642,cs),
(72,270,o),
(265,-16,o),
(553,-16,cs),
(702,-16,o),
(864,74,o),
(989,214,c),
(902,360,l),
(810,256,o),
(694,192,o),
(589,192,cs),
(393,192,o),
(260,398,o),
(273,660,cs),
(288,968,o),
(491,1216,o),
(716,1216,cs),
(822,1216,o),
(921,1148,o),
(984,1036,c),
(1109,1198,l),
(1024,1332,o),
(886,1414,o),
(737,1414,cs)
);
}
);
width = 1046;
},
{
anchors = (
{
name = bottom;
position = "{707, 0}";
},
{
name = top;
position = "{891, 1400}";
}
);
layerId = "DCC69D3D-7CEF-4C2A-8AC6-F0104D87F396";
shapes = (
{
closed = 1;
nodes = (
(507,1408,o),
(153,1092,o),
(115,706,cs),
(77,314,o),
(367,-6,o),
(765,-6,cs),
(947,-6,o),
(1123,64,o),
(1263,178,c),
(1237,204,l),
(1107,96,o),
(941,32,o),
(765,32,cs),
(391,32,o),
(117,332,o),
(153,702,cs),
(189,1072,o),
(523,1370,o),
(901,1370,cs),
(1073,1370,o),
(1227,1308,o),
(1337,1200,c),
(1365,1226,l),
(1249,1340,o),
(1087,1408,o),
(901,1408,cs)
);
}
);
width = 1412;
},
{
anchors = (
{
name = bottom;
position = "{530, 0}";
},
{
name = top;
position = "{737, 1397}";
}
);
layerId = "C062F820-65A0-41D8-894E-E8AB249BF7F4";
shapes = (
{
closed = 1;
nodes = (
(449,1404,o),
(168,1089,o),
(121,704,cs),
(73,313,o),
(275,-6,o),
(573,-6,cs),
(710,-6,o),
(845,64,o),
(956,178,c),
(938,203,l),
(835,96,o),
(707,32,o),
(575,32,cs),
(295,32,o),
(104,331,o),
(149,700,cs),
(194,1069,o),
(459,1367,o),
(743,1367,cs),
(872,1367,o),
(984,1305,o),
(1061,1197,c),
(1084,1223,l),
(1002,1337,o),
(884,1404,o),
(744,1404,cs)
);
}
);
width = 1059;
}
);
leftKerningGroup = O;
rightKerningGroup = C;
unicode = 67;
},
{
glyphname = D;
layers = (
{
layerId = "CFAEB7A8-48EA-4DE1-AFDA-6738335377BD";
shapes = (
{
closed = 1;
nodes = (
(269,1400,l),
(-8,0,l),
(473,0,ls),
(852,0,o),
(1140,306,o),
(1181,770,cs),
(1214,1154,o),
(1036,1400,o),
(713,1400,cs)
);
},
{
closed = 1;
nodes = (
(646,1040,ls),
(771,1040,o),
(837,920,o),
(821,738,cs),
(801,512,o),
(691,360,o),
(553,360,cs),
(261,360,l),
(372,162,l),
(584,1238,l),
(394,1040,l)
);
}
);
width = 1137;
},
{
layerId = "C062F820-65A0-41D8-894E-E8AB249BF7F4";
shapes = (
{
closed = 1;
nodes = (
(392,1397,l),
(115,0,l),
(554,0,ls),
(850,0,o),
(1141,313,o),
(1203,696,cs),
(1267,1083,o),
(1076,1397,o),
(780,1397,cs)
);
},
{
closed = 1;
nodes = (
(774,1357,ls),
(1053,1357,o),
(1233,1061,o),
(1175,700,cs),
(1115,335,o),
(840,40,o),
(561,40,cs),
(139,40,l),
(149,22,l),
(417,1375,l),
(400,1357,l)
);
}
);
width = 1218;
},
{
layerId = "58A41879-64B1-4F52-8959-748DC716EC4E";
shapes = (
{
closed = 1;
nodes = (
(335,1400,l),
(59,0,l),
(509,0,ls),
(848,0,o),
(1141,328,o),
(1179,764,cs),
(1212,1132,o),
(1036,1400,o),
(742,1400,cs)
);
},
{
closed = 1;
nodes = (
(707,1198,ls),
(899,1198,o),
(1021,1010,o),
(998,744,cs),
(971,430,o),
(769,202,o),
(551,202,cs),
(197,202,l),
(255,100,l),
(493,1300,l),
(395,1198,l)
);
}
);
width = 1163;
},
{
layerId = "80EDA03B-FCE6-4340-AE48-D9302D36C121";
shapes = (
{
closed = 1;
nodes = (
(268,1400,l),
(-10,0,l),
(630,0,ls),
(1136,0,o),
(1500,306,o),
(1524,770,cs),
(1544,1154,o),
(1290,1400,o),
(860,1400,cs)
);
},
{
closed = 1;
nodes = (
(794,1040,ls),
(960,1040,o),
(1056,920,o),
(1046,738,cs),
(1034,512,o),
(898,360,o),
(714,360,cs),
(324,360,l),
(486,162,l),
(698,1238,l),
(458,1040,l)
);
}
);
width = 1516;
},
{
layerId = "AC0EE6F4-16E5-4030-8D81-C9AA237C4AA5";
shapes = (
{
closed = 1;
nodes = (
(356,1400,l),
(78,0,l),
(678,0,ls),
(1130,0,o),
(1500,328,o),
(1522,764,cs),
(1542,1132,o),
(1290,1400,o),
(898,1400,cs)
);
},
{
closed = 1;
nodes = (
(864,1198,ls),
(1120,1198,o),
(1296,1010,o),
(1282,744,cs),
(1266,430,o),
(1012,202,o),
(722,202,cs),
(250,202,l),
(334,100,l),
(572,1300,l),
(448,1198,l)
);
}
);
width = 1550;
},
{
layerId = "DCC69D3D-7CEF-4C2A-8AC6-F0104D87F396";
shapes = (
{
closed = 1;
nodes = (
(431,1400,l),
(153,0,l),
(739,0,ls),
(1133,0,o),
(1501,314,o),
(1559,698,cs),
(1619,1086,o),
(1343,1400,o),
(949,1400,cs)
);
},
{
closed = 1;
nodes = (
(943,1360,ls),
(1315,1360,o),
(1575,1064,o),
(1521,702,cs),
(1465,336,o),
(1117,40,o),
(745,40,cs),
(183,40,l),
(197,22,l),
(467,1378,l),
(445,1360,l)
);
}
);
width = 1624;
}
);
leftKerningGroup = H;
rightKerningGroup = O;
unicode = 68;
},
{
glyphname = E;
layers = (
{
anchors = (
{
name = bottom;
position = "{620, 0}";
},
{
name = ogonek;
position = "{1057, 0}";
},
{
name = top;
position = "{862, 1400}";
},
{
name = topleft;
position = "{210, 1400}";
}
);
layerId = "80EDA03B-FCE6-4340-AE48-D9302D36C121";
shapes = (
{
closed = 1;
nodes = (
(528,526,l),
(1214,526,l),
(1284,876,l),
(598,876,l)
);
},
{
closed = 1;
nodes = (
(702,1246,l),
(462,1048,l),
(1384,1048,l),
(1454,1400,l),
(270,1400,l),
(-10,0,l),
(1192,0,l),
(1262,352,l),
(322,352,l),
(482,154,l)
);
}
);
width = 1378;
},
{
anchors = (
{
name = bottom;
position = "{465, 0}";
},
{
name = ogonek;
position = "{793, 0}";
},
{
name = top;
position = "{715, 1400}";
},
{
name = topleft;
position = "{226, 1400}";
}
);
layerId = "CFAEB7A8-48EA-4DE1-AFDA-6738335377BD";
shapes = (
{
closed = 1;
nodes = (
(422,526,l),
(936,526,l),
(1006,876,l),
(491,876,l)
);
},
{
closed = 1;
nodes = (
(587,1246,l),
(398,1048,l),
(1089,1048,l),
(1159,1400,l),
(271,1400,l),
(-8,0,l),
(894,0,l),
(964,352,l),
(259,352,l),
(369,154,l)
);
}
);
width = 1034;
},
{
anchors = (
{
name = bottom;
position = "{630, 0}";
},
{
name = ogonek;
position = "{1102, 0}";
},
{
name = top;
position = "{810, 1400}";
},
{
name = topleft;
position = "{214, 1400}";
}
);
layerId = "AC0EE6F4-16E5-4030-8D81-C9AA237C4AA5";
shapes = (
{
closed = 1;
nodes = (
(402,604,l),
(1118,604,l),
(1160,804,l),
(442,804,l)
);
},
{
closed = 1;
nodes = (
(572,1300,l),
(448,1198,l),
(1316,1198,l),
(1356,1400,l),
(358,1400,l),
(78,0,l),
(1102,0,l),
(1142,202,l),
(250,202,l),
(334,100,l)
);
}
);
width = 1312;
},
{
anchors = (
{
name = bottom;
position = "{473, 0}";
},
{
name = ogonek;
position = "{827, 0}";
},
{
name = top;
position = "{676, 1400}";
},
{
name = topleft;
position = "{229, 1400}";
}
);
layerId = "58A41879-64B1-4F52-8959-748DC716EC4E";
shapes = (
{
closed = 1;
nodes = (
(331,604,l),
(868,604,l),
(909,804,l),
(371,804,l)
);
},
{
closed = 1;
nodes = (
(493,1300,l),
(395,1198,l),
(1046,1198,l),
(1085,1400,l),
(337,1400,l),
(59,0,l),
(827,0,l),
(866,202,l),
(197,202,l),
(255,100,l)
);
}
);
width = 984;
},
{
anchors = (
{
name = bottom;
position = "{662, 0}";
},
{
name = ogonek;
position = "{1056, 0}";
},
{
name = top;
position = "{882, 1400}";
},
{
name = topleft;
position = "{216, 1400}";
}
);
layerId = "DCC69D3D-7CEF-4C2A-8AC6-F0104D87F396";
shapes = (
{
closed = 1;
nodes = (
(322,702,l),
(1076,702,l),
(1084,742,l),
(330,742,l)
);
},
{
closed = 1;
nodes = (
(468,1378,l),
(446,1360,l),
(1300,1360,l),
(1308,1400,l),
(432,1400,l),
(152,0,l),
(1056,0,l),
(1064,40,l),
(182,40,l),
(196,22,l)
);
}
);
width = 1290;
},
{
anchors = (
{
name = bottom;
position = "{497, 0}";
},
{
name = ogonek;
position = "{792, 0}";
},
{
name = top;
position = "{730, 1397}";
},
{
name = topleft;
position = "{230, 1397}";
}
);
layerId = "C062F820-65A0-41D8-894E-E8AB249BF7F4";
shapes = (
{
closed = 1;
nodes = (
(276,700,l),
(841,700,l),
(849,740,l),
(284,740,l)
);
},
{
closed = 1;
nodes = (
(418,1375,l),
(401,1357,l),
(1041,1357,l),
(1049,1397,l),
(392,1397,l),
(114,0,l),
(792,0,l),
(800,40,l),
(138,40,l),
(148,22,l)
);
}
);
width = 968;
}
);
leftKerningGroup = H;
rightKerningGroup = E;
unicode = 69;
},
{
glyphname = F;
layers = (
{
layerId = "CFAEB7A8-48EA-4DE1-AFDA-6738335377BD";
shapes = (
{
closed = 1;
nodes = (
(408,456,l),
(897,456,l),
(966,806,l),
(477,806,l)
);
},
{
closed = 1;
nodes = (
(587,1246,l),
(398,1048,l),
(1046,1048,l),
(1115,1400,l),
(271,1400,l),
(-8,0,l),
(341,0,l)
);
}
);
width = 945;
},
{
layerId = "C062F820-65A0-41D8-894E-E8AB249BF7F4";
shapes = (
{
closed = 1;
nodes = (
(266,646,l),
(786,646,l),
(794,686,l),
(274,686,l)
);
},
{
closed = 1;
nodes = (
(418,1375,l),
(401,1357,l),
(996,1357,l),
(1004,1397,l),
(392,1397,l),
(114,0,l),
(144,0,l)
);
}
);
width = 819;
},
{
layerId = "58A41879-64B1-4F52-8959-748DC716EC4E";
shapes = (
{
closed = 1;
nodes = (
(328,582,l),
(829,582,l),
(868,782,l),
(367,782,l)
);
},
{
closed = 1;
nodes = (
(493,1300,l),
(395,1198,l),
(1000,1198,l),
(1041,1400,l),
(338,1400,l),
(59,0,l),
(236,0,l)
);
}
);
width = 863;
},
{
layerId = "80EDA03B-FCE6-4340-AE48-D9302D36C121";
shapes = (
{
closed = 1;
nodes = (
(514,456,l),
(1166,456,l),
(1236,806,l),
(584,806,l)
);
},
{
closed = 1;
nodes = (
(702,1246,l),
(462,1048,l),
(1326,1048,l),
(1396,1400,l),
(270,1400,l),
(-10,0,l),
(454,0,l)
);
}
);
width = 1260;
},
{
layerId = "AC0EE6F4-16E5-4030-8D81-C9AA237C4AA5";
shapes = (
{
closed = 1;
nodes = (
(399,582,l),
(1067,582,l),
(1107,782,l),
(439,782,l)
);
},
{
closed = 1;
nodes = (
(573,1300,l),
(449,1198,l),
(1255,1198,l),
(1297,1400,l),
(359,1400,l),
(79,0,l),
(315,0,l)
);
}
);
width = 1150;
},
{
layerId = "DCC69D3D-7CEF-4C2A-8AC6-F0104D87F396";
shapes = (
{
closed = 1;
nodes = (
(312,648,l),
(1006,648,l),
(1014,688,l),
(320,688,l)
);
},
{
closed = 1;
nodes = (
(468,1378,l),
(446,1360,l),
(1240,1360,l),
(1248,1400,l),
(432,1400,l),
(152,0,l),
(192,0,l)
);
}
);
width = 1092;
}
);
leftKerningGroup = H;
rightKerningGroup = F;
unicode = 70;
},
{
glyphname = G;
layers = (
{
anchors = (
{
name = bottom;
position = "{794, 0}";
},
{
name = top;
position = "{900, 1402}";
}
);
layerId = "80EDA03B-FCE6-4340-AE48-D9302D36C121";
shapes = (
{
closed = 1;
nodes = (
(946,152,l),
(1354,152,l),
(1488,832,l),
(808,832,l),
(746,512,l),
(1018,512,l)
);
},
{
closed = 1;
nodes = (
(440,1432,o),
(60,1092,o),
(60,634,cs),
(60,248,o),
(338,-32,o),
(750,-32,cs),
(950,-32,o),
(1188,46,o),
(1354,152,c),
(1158,478,l),
(1050,406,o),
(902,354,o),
(820,354,cs),
(654,354,o),
(538,486,o),
(538,668,cs),
(538,882,o),
(694,1046,o),
(886,1046,cs),
(1002,1046,o),
(1132,986,o),
(1218,894,c),
(1512,1212,l),
(1374,1346,o),
(1146,1432,o),
(928,1432,cs)
);
}
);
width = 1476;
},
{
anchors = (
{
name = bottom;
position = "{596, 0}";
},
{
name = top;
position = "{743, 1402}";
}
);
layerId = "CFAEB7A8-48EA-4DE1-AFDA-6738335377BD";
shapes = (
{
closed = 1;
nodes = (
(717,152,l),
(1023,152,l),
(1157,832,l),
(647,832,l),
(585,512,l),
(789,512,l)
);
},
{
closed = 1;
nodes = (
(400,1432,o),
(98,1092,o),
(76,634,cs),
(57,248,o),
(252,-32,o),
(561,-32,cs),
(711,-32,o),
(893,46,o),
(1023,152,c),
(892,478,l),
(807,406,o),
(694,354,o),
(632,354,cs),
(508,354,o),
(427,486,o),
(436,668,cs),
(447,882,o),
(572,1046,o),
(716,1046,cs),
(803,1046,o),
(897,986,o),
(957,894,c),
(1193,1212,l),
(1096,1346,o),
(930,1432,o),
(766,1432,cs)
);
}
);
width = 1107;
},
{
anchors = (
{
name = bottom;
position = "{771, 0}";
},
{
name = top;
position = "{893, 1400}";
}
);
layerId = "AC0EE6F4-16E5-4030-8D81-C9AA237C4AA5";
shapes = (
{
closed = 1;
nodes = (
(1073,168,l),
(1299,168,l),
(1405,800,l),
(751,800,l),
(715,600,l),
(1145,600,l)
);
},
{
closed = 1;
nodes = (
(469,1414,o),
(93,1072,o),
(93,642,cs),
(93,270,o),
(373,-16,o),
(761,-16,cs),
(953,-16,o),
(1143,58,o),
(1299,168,c),
(1195,332,l),
(1073,240,o),
(929,184,o),
(799,184,cs),
(529,184,o),
(333,390,o),
(333,656,cs),
(333,966,o),
(593,1216,o),
(899,1216,cs),
(1045,1216,o),
(1189,1156,o),
(1285,1054,c),
(1437,1216,l),
(1311,1338,o),
(1119,1414,o),
(919,1414,cs)
);
}
);
width = 1498;
},
{
anchors = (
{
name = bottom;
position = "{578, 0}";
},
{
name = top;
position = "{738, 1400}";
}
);
layerId = "58A41879-64B1-4F52-8959-748DC716EC4E";
shapes = (
{
closed = 1;
nodes = (
(813,168,l),
(982,168,l),
(1093,800,l),
(602,800,l),
(566,600,l),
(888,600,l)
);
},
{
closed = 1;
nodes = (
(421,1414,o),
(122,1072,o),
(101,642,cs),
(83,270,o),
(279,-16,o),
(570,-16,cs),
(714,-16,o),
(860,58,o),
(982,168,c),
(912,332,l),
(816,240,o),
(706,184,o),
(608,184,cs),
(406,184,o),
(269,390,o),
(282,656,cs),
(297,966,o),
(504,1216,o),
(734,1216,cs),
(843,1216,o),
(948,1156,o),
(1015,1054,c),
(1137,1216,l),
(1049,1338,o),
(908,1414,o),
(758,1414,cs)
);
}
);
width = 1124;
},
{
anchors = (
{
name = bottom;
position = "{755, 0}";
},
{
name = top;
position = "{895, 1398}";
}
);
layerId = "DCC69D3D-7CEF-4C2A-8AC6-F0104D87F396";
shapes = (
{
closed = 1;
nodes = (
(1209,178,l),
(1249,178,l),
(1333,720,l),
(691,720,l),
(683,680,l),
(1287,680,l)
);
},
{
closed = 1;
nodes = (
(519,1406,o),
(165,1090,o),
(127,704,cs),
(89,314,o),
(379,-6,o),
(775,-6,cs),
(957,-6,o),
(1109,64,o),
(1249,178,c),
(1225,204,l),
(1095,96,o),
(951,32,o),
(775,32,cs),
(403,32,o),
(129,332,o),
(165,700,cs),
(201,1070,o),
(535,1368,o),
(911,1368,cs),
(1083,1368,o),
(1237,1306,o),
(1347,1198,c),
(1375,1224,l),
(1259,1338,o),
(1097,1406,o),
(911,1406,cs)
);
}
);
width = 1520;
},
{
anchors = (
{
name = bottom;
position = "{566, 0}";
},
{
name = top;
position = "{740, 1394}";
}
);
layerId = "C062F820-65A0-41D8-894E-E8AB249BF7F4";
shapes = (
{
closed = 1;
nodes = (
(915,178,l),
(945,178,l),
(1035,718,l),
(553,718,l),
(545,678,l),
(998,678,l)
);
},
{
closed = 1;
nodes = (
(458,1402,o),
(177,1087,o),
(130,702,cs),
(82,313,o),
(284,-6,o),
(581,-6,cs),
(717,-6,o),
(835,64,o),
(945,178,c),
(929,203,l),
(826,96,o),
(715,32,o),
(583,32,cs),
(304,32,o),
(113,331,o),
(158,698,cs),
(203,1067,o),
(468,1365,o),
(750,1365,cs),
(879,1365,o),
(991,1303,o),
(1069,1195,c),
(1091,1221,l),
(1010,1335,o),
(891,1402,o),
(752,1402,cs)
);
}
);
width = 1140;
}
);
leftKerningGroup = O;
rightKerningGroup = G;
unicode = 71;
},
{
glyphname = H;
layers = (
{
anchors = (
{
name = bottom;
position = "{694, 0}";
},
{
name = top;
position = "{874, 1400}";
},
{
name = topleft;
position = "{294, 1400}";
}
);
layerId = "80EDA03B-FCE6-4340-AE48-D9302D36C121";
shapes = (
{
closed = 1;
nodes = (
(738,1400,l),
(276,1400,l),
(-4,0,l),
(460,0,l)
);
},
{
closed = 1;
nodes = (
(892,0,l),
(1356,0,l),
(1636,1400,l),
(1172,1400,l)
);
},
{
closed = 1;
nodes = (
(530,506,l),
(1026,506,l),
(1096,856,l),
(598,856,l)
);
}
);
width = 1560;
},
{
anchors = (
{
name = bottom;
position = "{521, 0}";
},
{
name = top;
position = "{724, 1400}";
},
{
name = topleft;
position = "{289, 1400}";
}
);
layerId = "CFAEB7A8-48EA-4DE1-AFDA-6738335377BD";
shapes = (
{
closed = 1;
nodes = (
(622,1400,l),
(275,1400,l),
(-3,0,l),
(345,0,l)
);
},
{
closed = 1;
nodes = (
(669,0,l),
(1017,0,l),
(1295,1400,l),
(947,1400,l)
);
},
{
closed = 1;
nodes = (
(422,506,l),
(794,506,l),
(864,856,l),
(490,856,l)
);
}
);
width = 1170;
},
{
anchors = (
{
name = bottom;
position = "{776, 0}";
},
{
name = top;
position = "{1006, 1400}";
},
{
name = topleft;
position = "{254, 1400}";
}
);
layerId = "AC0EE6F4-16E5-4030-8D81-C9AA237C4AA5";
shapes = (
{
closed = 1;
nodes = (
(596,1400,l),
(360,1400,l),
(80,0,l),
(316,0,l)
);
},
{
closed = 1;
nodes = (
(1058,0,l),
(1294,0,l),
(1574,1400,l),
(1338,1400,l)
);
},
{
closed = 1;
nodes = (
(400,586,l),
(1206,586,l),
(1246,786,l),
(440,786,l)
);
}
);
width = 1582;
},
{
anchors = (
{
name = bottom;
position = "{582, 0}";
},
{
name = top;
position = "{823, 1400}";
},
{
name = topleft;
position = "{259, 1400}";
}
);
layerId = "58A41879-64B1-4F52-8959-748DC716EC4E";
shapes = (
{
closed = 1;
nodes = (
(515,1400,l),
(338,1400,l),
(60,0,l),
(237,0,l)
);
},
{
closed = 1;
nodes = (
(794,0,l),
(971,0,l),
(1249,1400,l),
(1072,1400,l)
);
},
{
closed = 1;
nodes = (
(329,586,l),
(933,586,l),
(973,786,l),
(368,786,l)
);
}
);
width = 1187;
},
{
anchors = (
{
name = bottom;
position = "{708, 0}";
},
{
name = top;
position = "{968, 1400}";
},
{
name = topleft;
position = "{336, 1400}";
}
);
layerId = "DCC69D3D-7CEF-4C2A-8AC6-F0104D87F396";
shapes = (
{
closed = 1;
nodes = (
(474,1400,l),
(434,1400,l),
(154,0,l),
(194,0,l)
);
},
{
closed = 1;
nodes = (
(1202,0,l),
(1242,0,l),
(1522,1400,l),
(1482,1400,l)
);
},
{
closed = 1;
nodes = (
(322,688,l),
(1350,688,l),
(1358,728,l),
(330,728,l)
);
}
);
width = 1600;
},
{
anchors = (
{
name = bottom;
position = "{531, 0}";
},
{
name = top;
position = "{794, 1397}";
},
{
name = topleft;
position = "{320, 1397}";
}
);
layerId = "C062F820-65A0-41D8-894E-E8AB249BF7F4";
shapes = (
{
closed = 1;
nodes = (
(424,1397,l),
(394,1397,l),
(116,0,l),
(146,0,l)
);
},
{
closed = 1;
nodes = (
(902,0,l),
(932,0,l),
(1210,1397,l),
(1180,1397,l)
);
},
{
closed = 1;
nodes = (
(275,686,l),
(1046,686,l),
(1054,726,l),
(283,726,l)
);
}
);
width = 1200;
}
);
leftKerningGroup = H;
rightKerningGroup = H;
unicode = 72;
},
{
glyphname = I;
layers = (
{
anchors = (
{
name = bottom;
position = "{221, 0}";
},
{
name = ogonek;
position = "{325, 0}";
},
{
name = top;
position = "{493, 1400}";
}
);
layerId = "80EDA03B-FCE6-4340-AE48-D9302D36C121";
shapes = (
{
closed = 1;
nodes = (
(271,1400,l),
(-9,0,l),
(455,0,l),
(733,1400,l)
);
}
);
width = 664;
},
{
anchors = (
{
name = bottom;
position = "{166, 0}";
},
{
name = ogonek;
position = "{244, 0}";
},
{
name = top;
position = "{438, 1400}";
}
);
layerId = "CFAEB7A8-48EA-4DE1-AFDA-6738335377BD";
shapes = (
{
closed = 1;
nodes = (
(272,1400,l),
(-7,0,l),
(341,0,l),
(618,1400,l)
);
}
);
width = 498;
},
{
anchors = (
{
name = bottom;
position = "{196, 0}";
},
{
name = ogonek;
position = "{314, 0}";
},
{
name = top;
position = "{476, 1400}";
}
);
layerId = "AC0EE6F4-16E5-4030-8D81-C9AA237C4AA5";
shapes = (
{
closed = 1;
nodes = (
(358,1400,l),
(78,0,l),
(314,0,l),
(594,1400,l)
);
}
);
width = 604;
},
{
anchors = (
{
name = bottom;
position = "{147, 0}";
},
{
name = ogonek;
position = "{236, 0}";
},
{
name = top;
position = "{425, 1400}";
}
);
layerId = "58A41879-64B1-4F52-8959-748DC716EC4E";
shapes = (
{
closed = 1;
nodes = (
(337,1400,l),
(59,0,l),
(236,0,l),
(514,1400,l)
);
}
);
width = 453;
},
{
anchors = (
{
name = bottom;
position = "{172, 0}";
},
{
name = ogonek;
position = "{190, 0}";
},
{
name = top;
position = "{452, 1400}";
}
);
layerId = "DCC69D3D-7CEF-4C2A-8AC6-F0104D87F396";
shapes = (
{
closed = 1;
nodes = (
(430,1400,l),
(150,0,l),
(190,0,l),
(470,1400,l)
);
}
);
width = 552;
},
{
anchors = (
{
name = bottom;
position = "{129, 0}";
},
{
name = ogonek;
position = "{143, 0}";
},
{
name = top;
position = "{407, 1397}";
}
);
layerId = "C062F820-65A0-41D8-894E-E8AB249BF7F4";
shapes = (
{
closed = 1;
nodes = (
(391,1397,l),
(113,0,l),
(143,0,l),
(421,1397,l)
);
}
);
width = 414;
}
);
leftKerningGroup = H;
rightKerningGroup = H;
unicode = 73;
},
{
glyphname = J;
layers = (
{
layerId = "CFAEB7A8-48EA-4DE1-AFDA-6738335377BD";
shapes = (
{
closed = 1;
nodes = (
(639,1400,l),
(458,484,ls),
(442,404,o),
(403,366,o),
(355,366,cs),
(302,366,o),
(228,414,o),
(167,524,c),
(-50,224,l),
(25,68,o),
(142,-20,o),
(312,-20,cs),
(552,-20,o),
(742,160,o),
(804,474,cs),
(989,1400,l)
);
}
);
width = 852;
},
{
layerId = "C062F820-65A0-41D8-894E-E8AB249BF7F4";
shapes = (
{
closed = 1;
nodes = (
(695,1397,l),
(496,393,ls),
(449,164,o),
(342,40,o),
(195,40,cs),
(101,40,o),
(31,104,o),
(-7,223,c),
(-34,196,l),
(6,70,o),
(86,0,o),
(188,0,cs),
(354,0,o),
(473,140,o),
(526,393,cs),
(725,1397,l)
);
}
);
width = 690;
},
{
layerId = "58A41879-64B1-4F52-8959-748DC716EC4E";
shapes = (
{
closed = 1;
nodes = (
(653,1400,l),
(462,436,ls),
(433,288,o),
(361,208,o),
(267,208,cs),
(195,208,o),
(122,262,o),
(73,362,c),
(-45,190,l),
(8,64,o),
(99,-10,o),
(225,-10,cs),
(427,-10,o),
(583,150,o),
(639,430,cs),
(832,1400,l)
);
}
);
width = 749;
},
{
layerId = "80EDA03B-FCE6-4340-AE48-D9302D36C121";
shapes = (
{
closed = 1;
nodes = (
(761,1400,l),
(579,484,ls),
(563,404,o),
(513,366,o),
(449,366,cs),
(379,366,o),
(277,414,o),
(189,524,c),
(-81,224,l),
(29,68,o),
(191,-20,o),
(417,-20,cs),
(737,-20,o),
(979,160,o),
(1041,474,cs),
(1227,1400,l)
);
}
);
width = 1136;
},
{
layerId = "AC0EE6F4-16E5-4030-8D81-C9AA237C4AA5";
shapes = (
{
closed = 1;
nodes = (
(780,1400,l),
(588,436,ls),
(558,288,o),
(468,208,o),
(342,208,cs),
(246,208,o),
(146,262,o),
(74,362,c),
(-72,190,l),
(6,64,o),
(132,-10,o),
(300,-10,cs),
(570,-10,o),
(768,150,o),
(824,430,cs),
(1018,1400,l)
);
}
);
width = 998;
},
{
layerId = "DCC69D3D-7CEF-4C2A-8AC6-F0104D87F396";
shapes = (
{
closed = 1;
nodes = (
(836,1400,l),
(636,394,ls),
(588,164,o),
(454,40,o),
(258,40,cs),
(132,40,o),
(34,104,o),
(-24,224,c),
(-58,196,l),
(4,70,o),
(114,0,o),
(250,0,cs),
(472,0,o),
(622,140,o),
(676,394,cs),
(876,1400,l)
);
}
);
width = 920;
}
);
leftKerningGroup = J;
rightKerningGroup = U;
unicode = 74;
},
{
glyphname = K;
layers = (
{
anchors = (
{
name = bottom;
position = "{638, 0}";
},
{
name = top;
position = "{918, 1400}";
}
);
layerId = "80EDA03B-FCE6-4340-AE48-D9302D36C121";
shapes = (
{
closed = 1;
nodes = (
(736,1400,l),
(274,1400,l),
(-6,0,l),
(458,0,l)
);
},
{
closed = 1;
nodes = (
(678,524,l),
(892,0,l),
(1430,0,l),
(1046,886,l)
);
},
{
closed = 1;
nodes = (
(494,274,l),
(1696,1400,l),
(1144,1400,l),
(618,872,l)
);
}
);
width = 1544;
},
{
anchors = (
{
name = bottom;
position = "{479, 0}";
},
{
name = top;
position = "{757, 1400}";
}
);
layerId = "CFAEB7A8-48EA-4DE1-AFDA-6738335377BD";
shapes = (
{
closed = 1;
nodes = (
(620,1400,l),
(274,1400,l),
(-5,0,l),
(344,0,l)
);
},
{
closed = 1;
nodes = (
(534,524,l),
(669,0,l),
(1073,0,l),
(828,886,l)
);
},
{
closed = 1;
nodes = (
(384,274,l),
(1340,1400,l),
(926,1400,l),
(506,872,l)
);
}
);
width = 1158;
},
{
anchors = (
{
name = bottom;
position = "{600, 0}";
},
{
name = top;
position = "{878, 1400}";
}
);
layerId = "AC0EE6F4-16E5-4030-8D81-C9AA237C4AA5";
shapes = (
{
closed = 1;
nodes = (
(594,1400,l),
(358,1400,l),
(78,0,l),
(314,0,l)
);
},
{
closed = 1;
nodes = (
(672,646,l),
(1018,0,l),
(1296,0,l),
(860,834,l)
);
},
{
closed = 1;
nodes = (
(352,300,l),
(1550,1400,l),
(1252,1400,l),
(422,638,l)
);
}
);
width = 1436;
},
{
anchors = (
{
name = bottom;
position = "{450, 0}";
},
{
name = top;
position = "{727, 1400}";
}
);
layerId = "58A41879-64B1-4F52-8959-748DC716EC4E";
shapes = (
{
closed = 1;
nodes = (
(514,1400,l),
(337,1400,l),
(59,0,l),
(236,0,l)
);
},
{
closed = 1;
nodes = (
(536,646,l),
(764,0,l),
(972,0,l),
(686,834,l)
);
},
{
closed = 1;
nodes = (
(279,300,l),
(1231,1400,l),
(1007,1400,l),
(348,638,l)
);
}
);
width = 1077;
},
{
anchors = (
{
name = bottom;
position = "{566, 0}";
},
{
name = top;
position = "{848, 1400}";
}
);
layerId = "DCC69D3D-7CEF-4C2A-8AC6-F0104D87F396";
shapes = (
{
closed = 1;
nodes = (
(472,1400,l),
(432,1400,l),
(152,0,l),
(192,0,l)
);
},
{
closed = 1;
nodes = (
(670,754,l),
(1130,0,l),
(1178,0,l),
(696,790,l)
);
},
{
closed = 1;
nodes = (
(252,364,l),
(1414,1400,l),
(1354,1400,l),
(268,432,l)
);
}
);
width = 1342;
},
{
anchors = (
{
name = bottom;
position = "{425, 0}";
},
{
name = top;
position = "{704, 1397}";
}
);
layerId = "C062F820-65A0-41D8-894E-E8AB249BF7F4";
shapes = (
{
closed = 1;
nodes = (
(422,1397,l),
(392,1397,l),
(114,0,l),
(144,0,l)
);
},
{
closed = 1;
nodes = (
(539,752,l),
(848,0,l),
(884,0,l),
(561,788,l)
);
},
{
closed = 1;
nodes = (
(207,363,l),
(1129,1397,l),
(1084,1397,l),
(222,431,l)
);
}
);
width = 1007;
}
);
leftKerningGroup = H;
rightKerningGroup = K;
unicode = 75;
},
{
glyphname = L;
layers = (
{
anchors = (
{
name = bottom;
position = "{514, 0}";
},
{
name = top;
position = "{514, 1400}";
},
{
name = topright;
position = "{928, 1396}";
}
);
layerId = "80EDA03B-FCE6-4340-AE48-D9302D36C121";
shapes = (
{
closed = 1;
nodes = (
(270,1400,l),
(-10,0,l),
(1036,0,l),
(1114,386,l),
(330,386,l),
(492,188,l),
(732,1400,l)
);
}
);
width = 1166;
},
{
anchors = (
{
name = bottom;
position = "{386, 0}";
},
{
name = top;
position = "{454, 1400}";
},
{
name = topright;
position = "{764, 1396}";
}
);
layerId = "CFAEB7A8-48EA-4DE1-AFDA-6738335377BD";
shapes = (
{
closed = 1;
nodes = (
(271,1400,l),
(-8,0,l),
(777,0,l),
(854,386,l),
(266,386,l),
(378,188,l),
(617,1400,l)
);
}
);
width = 875;
},
{
anchors = (
{
name = bottom;
position = "{514, 0}";
},
{
name = top;
position = "{468, 1400}";
},
{
name = topright;
position = "{810, 1398}";
}
);
layerId = "AC0EE6F4-16E5-4030-8D81-C9AA237C4AA5";
shapes = (
{
closed = 1;
nodes = (
(358,1400,l),
(78,0,l),
(920,0,l),
(960,202,l),
(250,202,l),
(334,100,l),
(594,1400,l)
);
}
);
width = 1068;
},
{
anchors = (
{
name = bottom;
position = "{386, 0}";
},
{
name = top;
position = "{419, 1400}";
},
{
name = topright;
position = "{676, 1398}";
}
);
layerId = "58A41879-64B1-4F52-8959-748DC716EC4E";
shapes = (
{
closed = 1;
nodes = (
(337,1400,l),
(59,0,l),
(690,0,l),
(730,202,l),
(197,202,l),
(255,100,l),
(514,1400,l)
);
}
);
width = 801;
},
{
anchors = (
{
name = bottom;
position = "{492, 0}";
},
{
name = top;
position = "{453, 1400}";
},
{
name = topright;
position = "{832, 1400}";
}
);
layerId = "DCC69D3D-7CEF-4C2A-8AC6-F0104D87F396";
shapes = (
{
closed = 1;
nodes = (
(432,1400,l),
(152,0,l),
(820,0,l),
(828,40,l),
(182,40,l),
(196,22,l),
(472,1400,l)
);
}
);
width = 984;
},
{
anchors = (
{
name = bottom;
position = "{369, 0}";
},
{
name = top;
position = "{408, 1397}";
},
{
name = topright;
position = "{692, 1397}";
}
);
layerId = "C062F820-65A0-41D8-894E-E8AB249BF7F4";
shapes = (
{
closed = 1;
nodes = (
(392,1397,l),
(114,0,l),
(615,0,l),
(623,40,l),
(138,40,l),
(148,22,l),
(422,1397,l)
);
}
);
width = 738;
}
);
leftKerningGroup = H;
rightKerningGroup = L;
unicode = 76;
},
{
glyphname = M;
layers = (
{
layerId = "CFAEB7A8-48EA-4DE1-AFDA-6738335377BD";
shapes = (
{
closed = 1;
nodes = (
(-4,0,l),
(301,0,l),
(489,964,l),
(423,962,l),
(537,136,l),
(763,136,l),
(1190,936,l),
(1137,964,l),
(949,0,l),
(1253,0,l),
(1524,1400,l),
(1157,1400,l),
(663,502,l),
(786,476,l),
(636,1400,l),
(269,1400,l)
);
}
);
width = 1407;
},
{
layerId = "C062F820-65A0-41D8-894E-E8AB249BF7F4";
shapes = (
{
closed = 1;
nodes = (
(115,0,l),
(145,0,l),
(413,1377,l),
(406,1377,l),
(653,154,l),
(656,154,l),
(1374,1373,l),
(1370,1377,l),
(1103,0,l),
(1133,0,l),
(1406,1397,l),
(1353,1397,l),
(664,225,l),
(676,221,l),
(440,1397,l),
(387,1397,l)
);
}
);
width = 1403;
},
{
layerId = "58A41879-64B1-4F52-8959-748DC716EC4E";
shapes = (
{
closed = 1;
nodes = (
(65,0,l),
(222,0,l),
(453,1188,l),
(415,1184,l),
(604,146,l),
(711,146,l),
(1296,1170,l),
(1267,1188,l),
(1037,0,l),
(1193,0,l),
(1465,1400,l),
(1267,1400,l),
(665,354,l),
(734,340,l),
(535,1400,l),
(337,1400,l)
);
}
);
width = 1410;
},
{
layerId = "80EDA03B-FCE6-4340-AE48-D9302D36C121";
shapes = (
{
closed = 1;
nodes = (
(-5,0,l),
(401,0,l),
(589,964,l),
(501,962,l),
(707,136,l),
(1009,136,l),
(1525,936,l),
(1453,964,l),
(1265,0,l),
(1671,0,l),
(1941,1400,l),
(1451,1400,l),
(851,502,l),
(1017,476,l),
(757,1400,l),
(267,1400,l)
);
}
);
width = 1876;
},
{
layerId = "AC0EE6F4-16E5-4030-8D81-C9AA237C4AA5";
shapes = (
{
closed = 1;
nodes = (
(86,0,l),
(296,0,l),
(526,1188,l),
(476,1184,l),
(796,146,l),
(938,146,l),
(1652,1170,l),
(1612,1188,l),
(1382,0,l),
(1590,0,l),
(1862,1400,l),
(1598,1400,l),
(864,354,l),
(956,340,l),
(622,1400,l),
(358,1400,l)
);
}
);
width = 1880;
},
{
layerId = "DCC69D3D-7CEF-4C2A-8AC6-F0104D87F396";
shapes = (
{
closed = 1;
nodes = (
(153,0,l),
(193,0,l),
(461,1380,l),
(451,1380,l),
(861,154,l),
(865,154,l),
(1743,1376,l),
(1737,1380,l),
(1471,0,l),
(1511,0,l),
(1783,1400,l),
(1713,1400,l),
(871,226,l),
(887,222,l),
(495,1400,l),
(425,1400,l)
);
}
);
width = 1870;
}
);
leftKerningGroup = H;
rightKerningGroup = H;
unicode = 77;
},
{
glyphname = N;
layers = (
{
layerId = "CFAEB7A8-48EA-4DE1-AFDA-6738335377BD";
shapes = (
{
closed = 1;
nodes = (
(976,1400,l),
(793,484,l),
(899,506,l),
(560,1400,l),
(271,1400,l),
(-8,0,l),
(309,0,l),
(492,912,l),
(386,890,l),
(722,0,l),
(1013,0,l),
(1291,1400,l)
);
}
);
width = 1170;
},
{
layerId = "C062F820-65A0-41D8-894E-E8AB249BF7F4";
shapes = (
{
closed = 1;
nodes = (
(1178,1397,l),
(904,22,l),
(913,24,l),
(437,1397,l),
(392,1397,l),
(114,0,l),
(144,0,l),
(418,1375,l),
(409,1373,l),
(885,0,l),
(930,0,l),
(1208,1397,l)
);
}
);
width = 1200;
},
{
layerId = "58A41879-64B1-4F52-8959-748DC716EC4E";
shapes = (
{
closed = 1;
nodes = (
(1073,1400,l),
(849,272,l),
(900,282,l),
(511,1400,l),
(337,1400,l),
(59,0,l),
(236,0,l),
(459,1126,l),
(407,1116,l),
(795,0,l),
(969,0,l),
(1247,1400,l)
);
}
);
width = 1188;
},
{
layerId = "80EDA03B-FCE6-4340-AE48-D9302D36C121";
shapes = (
{
closed = 1;
nodes = (
(1210,1400,l),
(1026,484,l),
(1166,506,l),
(656,1400,l),
(270,1400,l),
(-10,0,l),
(412,0,l),
(596,912,l),
(456,890,l),
(962,0,l),
(1350,0,l),
(1630,1400,l)
);
}
);
width = 1560;
},
{
layerId = "AC0EE6F4-16E5-4030-8D81-C9AA237C4AA5";
shapes = (
{
closed = 1;
nodes = (
(1340,1400,l),
(1114,272,l),
(1182,282,l),
(590,1400,l),
(358,1400,l),
(78,0,l),
(314,0,l),
(538,1126,l),
(470,1116,l),
(1060,0,l),
(1292,0,l),
(1572,1400,l)
);
}
);
width = 1584;
},
{
layerId = "DCC69D3D-7CEF-4C2A-8AC6-F0104D87F396";
shapes = (
{
closed = 1;
nodes = (
(1480,1400,l),
(1204,22,l),
(1216,24,l),
(492,1400,l),
(432,1400,l),
(152,0,l),
(192,0,l),
(468,1378,l),
(456,1376,l),
(1180,0,l),
(1240,0,l),
(1520,1400,l)
);
}
);
width = 1600;
}
);
leftKerningGroup = H;
rightKerningGroup = H;
unicode = 78;
},
{
glyphname = O;
layers = (
{
anchors = (
{
name = bottom;
position = "{769, 0}";
},
{
name = center;
position = "{831, 702}";
},
{
name = ogonek;
position = "{1255, 0}";
},
{
name = top;
position = "{887, 1400}";
},
{
name = topleft;
position = "{209, 1400}";
},
{
name = topright;
position = "{1233, 1400}";
}
);
layerId = "80EDA03B-FCE6-4340-AE48-D9302D36C121";
shapes = (
{
closed = 1;
nodes = (
(431,1430,o),
(59,1094,o),
(59,634,cs),
(59,248,o),
(341,-32,o),
(757,-32,cs),
(1233,-32,o),
(1605,312,o),
(1605,768,cs),
(1605,1154,o),
(1321,1430,o),
(905,1430,cs)
);
},
{
closed = 1;
nodes = (
(1019,1044,o),
(1127,914,o),
(1127,736,cs),
(1127,520,o),
(975,354,o),
(801,354,cs),
(655,354,o),
(537,488,o),
(537,666,cs),
(537,882,o),
(699,1044,o),
(871,1044,cs)
);
}
);
width = 1598;
},
{
anchors = (
{
name = bottom;
position = "{577, 0}";
},
{
name = center;
position = "{658, 702}";
},
{
name = ogonek;
position = "{941, 0}";
},
{
name = top;
position = "{734, 1400}";
},
{
name = topleft;
position = "{225, 1400}";
},
{
name = topright;
position = "{993, 1400}";
}
);
layerId = "CFAEB7A8-48EA-4DE1-AFDA-6738335377BD";
shapes = (
{
closed = 1;
nodes = (
(393,1430,o),
(98,1094,o),
(75,634,cs),
(56,248,o),
(254,-32,o),
(566,-32,cs),
(923,-32,o),
(1219,312,o),
(1241,768,cs),
(1260,1154,o),
(1061,1430,o),
(749,1430,cs)
);
},
{
closed = 1;
nodes = (
(815,1044,o),
(890,914,o),
(881,736,cs),
(871,520,o),
(749,354,o),
(618,354,cs),
(509,354,o),
(427,488,o),
(435,666,cs),
(446,882,o),
(575,1044,o),
(704,1044,cs)
);
}
);
width = 1199;
},
{
anchors = (
{
name = bottom;
position = "{784, 0}";
},
{
name = center;
position = "{846, 702}";
},
{
name = ogonek;
position = "{1184, 0}";
},
{
name = top;
position = "{956, 1400}";
},
{
name = topleft;
position = "{212, 1400}";
},
{
name = topright;
position = "{1260, 1400}";
}
);
layerId = "AC0EE6F4-16E5-4030-8D81-C9AA237C4AA5";
shapes = (
{
closed = 1;
nodes = (
(474,1414,o),
(100,1074,o),
(100,642,cs),
(100,270,o),
(382,-16,o),
(774,-16,cs),
(1218,-16,o),
(1592,330,o),
(1592,760,cs),
(1592,1132,o),
(1310,1414,o),
(918,1414,cs)
);
},
{
closed = 1;
nodes = (
(1154,1214,o),
(1348,1010,o),
(1348,744,cs),
(1348,436,o),
(1088,184,o),
(798,184,cs),
(540,184,o),
(340,392,o),
(340,658,cs),
(340,966,o),
(604,1214,o),
(900,1214,cs)
);
}
);
width = 1620;
},
{
anchors = (
{
name = bottom;
position = "{588, 0}";
},
{
name = center;
position = "{669, 702}";
},
{
name = ogonek;
position = "{888, 0}";
},
{
name = top;
position = "{785, 1400}";
},
{
name = topleft;
position = "{227, 1400}";
},
{
name = topright;
position = "{1013, 1400}";
}
);
layerId = "58A41879-64B1-4F52-8959-748DC716EC4E";
shapes = (
{
closed = 1;
nodes = (
(425,1414,o),
(128,1074,o),
(106,642,cs),
(88,270,o),
(286,-16,o),
(580,-16,cs),
(913,-16,o),
(1210,330,o),
(1231,760,cs),
(1249,1132,o),
(1052,1414,o),
(758,1414,cs)
);
},
{
closed = 1;
nodes = (
(925,1214,o),
(1060,1010,o),
(1047,744,cs),
(1032,436,o),
(825,184,o),
(607,184,cs),
(414,184,o),
(274,392,o),
(287,658,cs),
(302,966,o),
(512,1214,o),
(734,1214,cs)
);
}
);
width = 1215;
},
{
anchors = (
{
name = bottom;
position = "{776, 0}";
},
{
name = center;
position = "{858, 704}";
},
{
name = ogonek;
position = "{1152, 0}";
},
{
name = top;
position = "{974, 1400}";
},
{
name = topleft;
position = "{214, 1400}";
},
{
name = topright;
position = "{1248, 1400}";
}
);
layerId = "DCC69D3D-7CEF-4C2A-8AC6-F0104D87F396";
shapes = (
{
closed = 1;
nodes = (
(530,1408,o),
(176,1092,o),
(138,706,cs),
(100,314,o),
(390,-6,o),
(788,-6,cs),
(1180,-6,o),
(1538,314,o),
(1576,700,cs),
(1614,1090,o),
(1320,1408,o),
(924,1408,cs)
);
},
{
closed = 1;
nodes = (
(1294,1368,o),
(1572,1068,o),
(1536,704,cs),
(1500,334,o),
(1162,34,o),
(788,34,cs),
(416,34,o),
(142,334,o),
(178,702,cs),
(214,1070,o),
(548,1368,o),
(924,1368,cs)
);
}
);
width = 1638;
},
{
anchors = (
{
name = bottom;
position = "{582, 0}";
},
{
name = center;
position = "{678, 702}";
},
{
name = ogonek;
position = "{864, 0}";
},
{
name = top;
position = "{799, 1397}";
},
{
name = topleft;
position = "{229, 1397}";
},
{
name = topright;
position = "{1004, 1397}";
}
);
layerId = "C062F820-65A0-41D8-894E-E8AB249BF7F4";
shapes = (
{
closed = 1;
nodes = (
(466,1404,o),
(185,1089,o),
(138,704,cs),
(90,313,o),
(292,-6,o),
(591,-6,cs),
(885,-6,o),
(1169,313,o),
(1216,698,cs),
(1264,1087,o),
(1059,1404,o),
(762,1404,cs)
);
},
{
closed = 1;
nodes = (
(1037,1365,o),
(1231,1065,o),
(1186,702,cs),
(1141,333,o),
(873,34,o),
(593,34,cs),
(314,34,o),
(123,333,o),
(168,700,cs),
(213,1067,o),
(478,1365,o),
(760,1365,cs)
);
}
);
width = 1229;
}
);
leftKerningGroup = O;
rightKerningGroup = O;
unicode = 79;
},
{
glyphname = P;
layers = (
{
layerId = "80EDA03B-FCE6-4340-AE48-D9302D36C121";
shapes = (
{
closed = 1;
nodes = (
(689,1246,l),
(449,1048,l),
(819,1048,ls),
(903,1048,o),
(949,1002,o),
(949,922,cs),
(949,798,o),
(873,714,o),
(753,714,cs),
(553,714,l),
(481,364,l),
(705,364,ls),
(1135,364,o),
(1399,618,o),
(1399,998,cs),
(1399,1254,o),
(1227,1400,o),
(913,1400,cs),
(257,1400,l),
(-23,0,l),
(441,0,l)
);
}
);
width = 1370;
},
{
layerId = "CFAEB7A8-48EA-4DE1-AFDA-6738335377BD";
shapes = (
{
closed = 1;
nodes = (
(578,1246,l),
(388,1048,l),
(666,1048,ls),
(729,1048,o),
(761,1002,o),
(757,922,cs),
(751,798,o),
(690,714,o),
(600,714,cs),
(450,714,l),
(379,364,l),
(547,364,ls),
(869,364,o),
(1079,618,o),
(1098,998,cs),
(1111,1254,o),
(989,1400,o),
(753,1400,cs),
(261,1400,l),
(-17,0,l),
(331,0,l)
);
}
);
width = 1028;
},
{
layerId = "AC0EE6F4-16E5-4030-8D81-C9AA237C4AA5";
shapes = (
{
closed = 1;
nodes = (
(559,1300,l),
(435,1198,l),
(853,1198,ls),
(1039,1198,o),
(1143,1124,o),
(1143,976,cs),
(1143,750,o),
(993,628,o),
(739,628,cs),
(393,628,l),
(353,426,l),
(709,426,ls),
(1121,426,o),
(1373,662,o),
(1373,1018,cs),
(1373,1260,o),
(1207,1400,o),
(903,1400,cs),
(345,1400,l),
(65,0,l),
(301,0,l)
);
}
);
width = 1346;
},
{
layerId = "58A41879-64B1-4F52-8959-748DC716EC4E";
shapes = (
{
closed = 1;
nodes = (
(483,1300,l),
(385,1198,l),
(698,1198,ls),
(838,1198,o),
(912,1124,o),
(905,976,cs),
(894,750,o),
(775,628,o),
(585,628,cs),
(325,628,l),
(286,426,l),
(553,426,ls),
(862,426,o),
(1062,662,o),
(1080,1018,cs),
(1091,1260,o),
(974,1400,o),
(746,1400,cs),
(327,1400,l),
(49,0,l),
(226,0,l)
);
}
);
width = 1010;
},
{
layerId = "DCC69D3D-7CEF-4C2A-8AC6-F0104D87F396";
shapes = (
{
closed = 1;
nodes = (
(455,1378,l),
(433,1360,l),
(887,1360,ls),
(1159,1360,o),
(1309,1238,o),
(1309,1026,cs),
(1309,718,o),
(1085,520,o),
(719,520,cs),
(273,520,l),
(265,480,l),
(711,480,ls),
(1109,480,o),
(1349,700,o),
(1349,1036,cs),
(1349,1266,o),
(1189,1400,o),
(895,1400,cs),
(419,1400,l),
(139,0,l),
(179,0,l)
);
}
);
width = 1326;
},
{
layerId = "C062F820-65A0-41D8-894E-E8AB249BF7F4";
shapes = (
{
closed = 1;
nodes = (
(408,1375,l),
(391,1357,l),
(732,1357,ls),
(936,1357,o),
(1042,1235,o),
(1032,1023,cs),
(1017,716,o),
(839,519,o),
(565,519,cs),
(230,519,l),
(222,479,l),
(557,479,ls),
(855,479,o),
(1046,698,o),
(1062,1033,cs),
(1074,1263,o),
(960,1397,o),
(740,1397,cs),
(383,1397,l),
(104,0,l),
(134,0,l)
);
}
);
width = 995;
}
);
leftKerningGroup = H;
rightKerningGroup = P;
unicode = 80;
},
{
glyphname = Q;
layers = (
{
layerId = "B2F2CEB9-B43A-4641-BE7A-308AFC2BA573";
associatedMasterId = "80EDA03B-FCE6-4340-AE48-D9302D36C121";
name = "Bold [170]";
width = 1600;
},
{
layerId = "80EDA03B-FCE6-4340-AE48-D9302D36C121";
shapes = (
{
closed = 1;
nodes = (
(441,1432,o),
(69,1096,o),
(69,636,cs),
(69,248,o),
(351,-32,o),
(769,-32,cs),
(1245,-32,o),
(1617,312,o),
(1617,770,cs),
(1617,1156,o),
(1333,1432,o),
(917,1432,cs)
);
},
{
closed = 1;
nodes = (
(1031,1046,o),
(1139,916,o),
(1139,738,cs),
(1139,520,o),
(987,354,o),
(813,354,cs),
(667,354,o),
(547,488,o),
(547,668,cs),
(547,884,o),
(711,1046,o),
(883,1046,cs)
);
},
{
closed = 1;
nodes = (
(1273,-120,l),
(1545,106,l),
(1003,774,l),
(733,548,l)
);
}
);
width = 1598;
},
{
layerId = "CFAEB7A8-48EA-4DE1-AFDA-6738335377BD";
shapes = (
{
closed = 1;
nodes = (
(401,1432,o),
(105,1096,o),
(83,636,cs),
(64,248,o),
(262,-32,o),
(575,-32,cs),
(932,-32,o),
(1228,312,o),
(1250,770,cs),
(1269,1156,o),
(1070,1432,o),
(758,1432,cs)
);
},
{
closed = 1;
nodes = (
(824,1046,o),
(899,916,o),
(890,738,cs),
(880,520,o),
(758,354,o),
(627,354,cs),
(518,354,o),
(434,488,o),
(443,668,cs),
(453,884,o),
(584,1046,o),
(713,1046,cs)
);
},
{
closed = 1;
nodes = (
(949,-120,l),
(1164,106,l),
(790,774,l),
(577,548,l)
);
}
);
width = 1199;
},
{
layerId = "CFA3A31C-37A2-4FE7-AE27-0576DA01159C";
associatedMasterId = "AC0EE6F4-16E5-4030-8D81-C9AA237C4AA5";
name = "Regular [170]";
width = 1620;
},
{
layerId = "AC0EE6F4-16E5-4030-8D81-C9AA237C4AA5";
shapes = (
{
closed = 1;
nodes = (
(496,1414,o),
(122,1074,o),
(122,642,cs),
(122,270,o),
(404,-16,o),
(796,-16,cs),
(1240,-16,o),
(1614,330,o),
(1614,760,cs),
(1614,1132,o),
(1332,1414,o),
(940,1414,cs)
);
},
{
closed = 1;
nodes = (
(1176,1214,o),
(1370,1010,o),
(1370,744,cs),
(1370,436,o),
(1110,184,o),
(820,184,cs),
(562,184,o),
(362,392,o),
(362,658,cs),
(362,966,o),
(626,1214,o),
(922,1214,cs)
);
},
{
closed = 1;
nodes = (
(1363,-80,l),
(1510,56,l),
(993,639,l),
(848,503,l)
);
}
);
width = 1620;
},
{
layerId = "58A41879-64B1-4F52-8959-748DC716EC4E";
shapes = (
{
closed = 1;
nodes = (
(441,1414,o),
(144,1074,o),
(123,642,cs),
(105,270,o),
(302,-16,o),
(596,-16,cs),
(929,-16,o),
(1227,330,o),
(1248,760,cs),
(1266,1132,o),
(1068,1414,o),
(774,1414,cs)
);
},
{
closed = 1;
nodes = (
(941,1214,o),
(1077,1010,o),
(1064,744,cs),
(1049,436,o),
(841,184,o),
(624,184,cs),
(430,184,o),
(291,392,o),
(304,658,cs),
(319,966,o),
(529,1214,o),
(751,1214,cs)
);
},
{
closed = 1;
nodes = (
(1018,-80,l),
(1135,56,l),
(776,639,l),
(661,503,l)
);
}
);
width = 1215;
},
{
layerId = "DCC69D3D-7CEF-4C2A-8AC6-F0104D87F396";
shapes = (
{
closed = 1;
nodes = (
(534,1406,o),
(180,1090,o),
(142,704,cs),
(104,314,o),
(394,-6,o),
(790,-6,cs),
(1182,-6,o),
(1540,314,o),
(1578,698,cs),
(1616,1088,o),
(1322,1406,o),
(926,1406,cs)
);
},
{
closed = 1;
nodes = (
(1296,1366,o),
(1574,1066,o),
(1538,702,cs),
(1502,334,o),
(1164,34,o),
(790,34,cs),
(420,34,o),
(146,334,o),
(182,700,cs),
(218,1068,o),
(552,1366,o),
(926,1366,cs)
);
},
{
closed = 1;
nodes = (
(1420,-20,l),
(1447,8,l),
(951,570,l),
(924,542,l)
);
}
);
width = 1602;
},
{
layerId = "C062F820-65A0-41D8-894E-E8AB249BF7F4";
shapes = (
{
closed = 1;
nodes = (
(469,1402,o),
(188,1087,o),
(141,702,cs),
(93,313,o),
(295,-6,o),
(592,-6,cs),
(886,-6,o),
(1170,313,o),
(1218,696,cs),
(1265,1085,o),
(1060,1402,o),
(763,1402,cs)
);
},
{
closed = 1;
nodes = (
(1039,1363,o),
(1233,1063,o),
(1188,700,cs),
(1143,333,o),
(875,34,o),
(594,34,cs),
(317,34,o),
(126,333,o),
(171,698,cs),
(216,1065,o),
(481,1363,o),
(761,1363,cs)
);
},
{
closed = 1;
nodes = (
(1064,-20,l),
(1086,8,l),
(741,569,l),
(719,541,l)
);
}
);
width = 1202;
}
);
leftKerningGroup = O;
rightKerningGroup = O;
unicode = 81;
},
{
glyphname = R;
layers = (
{
layerId = "CFAEB7A8-48EA-4DE1-AFDA-6738335377BD";
shapes = (
{
closed = 1;
nodes = (
(527,530,l),
(606,0,l),
(999,0,l),
(863,530,l)
);
},
{
closed = 1;
nodes = (
(598,1246,l),
(408,1048,l),
(719,1048,ls),
(782,1048,o),
(814,1002,o),
(810,922,cs),
(804,798,o),
(743,714,o),
(653,714,cs),
(470,714,l),
(399,364,l),
(582,364,ls),
(916,364,o),
(1133,616,o),
(1151,996,cs),
(1164,1252,o),
(1036,1400,o),
(788,1400,cs),
(281,1400,l),
(3,0,l),
(351,0,l)
);
}
);
width = 1107;
},
{
layerId = "C062F820-65A0-41D8-894E-E8AB249BF7F4";
shapes = (
{
closed = 1;
nodes = (
(656,507,l),
(832,0,l),
(869,0,l),
(693,507,l)
);
},
{
closed = 1;
nodes = (
(416,1375,l),
(399,1357,l),
(739,1357,ls),
(943,1357,o),
(1050,1235,o),
(1039,1023,cs),
(1024,716,o),
(847,519,o),
(572,519,cs),
(238,519,l),
(230,479,l),
(564,479,ls),
(863,479,o),
(1053,698,o),
(1070,1033,cs),
(1081,1263,o),
(968,1397,o),
(747,1397,cs),
(390,1397,l),
(112,0,l),
(142,0,l)
);
}
);
width = 1085;
},
{
layerId = "58A41879-64B1-4F52-8959-748DC716EC4E";
shapes = (
{
closed = 1;
nodes = (
(592,518,l),
(725,0,l),
(926,0,l),
(768,518,l)
);
},
{
closed = 1;
nodes = (
(493,1300,l),
(395,1198,l),
(723,1198,ls),
(863,1198,o),
(937,1124,o),
(930,976,cs),
(919,750,o),
(802,628,o),
(610,628,cs),
(335,628,l),
(295,426,l),
(570,426,ls),
(885,426,o),
(1087,660,o),
(1104,1016,cs),
(1116,1260,o),
(995,1400,o),
(763,1400,cs),
(337,1400,l),
(59,0,l),
(236,0,l)
);
}
);
width = 1085;
},
{
layerId = "80EDA03B-FCE6-4340-AE48-D9302D36C121";
shapes = (
{
closed = 1;
nodes = (
(668,530,l),
(808,0,l),
(1332,0,l),
(1116,530,l)
);
},
{
closed = 1;
nodes = (
(716,1246,l),
(476,1048,l),
(890,1048,ls),
(974,1048,o),
(1020,1002,o),
(1020,922,cs),
(1020,798,o),
(944,714,o),
(824,714,cs),
(580,714,l),
(508,364,l),
(752,364,ls),
(1198,364,o),
(1470,616,o),
(1470,996,cs),
(1470,1252,o),
(1290,1400,o),
(960,1400,cs),
(284,1400,l),
(4,0,l),
(468,0,l)
);
}
);
width = 1476;
},
{
layerId = "AC0EE6F4-16E5-4030-8D81-C9AA237C4AA5";
shapes = (
{
closed = 1;
nodes = (
(756,518,l),
(966,0,l),
(1234,0,l),
(990,518,l)
);
},
{
closed = 1;
nodes = (
(572,1300,l),
(448,1198,l),
(886,1198,ls),
(1072,1198,o),
(1176,1124,o),
(1176,976,cs),
(1176,750,o),
(1028,628,o),
(772,628,cs),
(406,628,l),
(366,426,l),
(732,426,ls),
(1152,426,o),
(1406,660,o),
(1406,1016,cs),
(1406,1260,o),
(1236,1400,o),
(926,1400,cs),
(358,1400,l),
(78,0,l),
(314,0,l)
);
}
);
width = 1446;
},
{
layerId = "DCC69D3D-7CEF-4C2A-8AC6-F0104D87F396";
shapes = (
{
closed = 1;
nodes = (
(841,508,l),
(1109,0,l),
(1159,0,l),
(891,508,l)
);
},
{
closed = 1;
nodes = (
(465,1378,l),
(443,1360,l),
(897,1360,ls),
(1169,1360,o),
(1319,1238,o),
(1319,1026,cs),
(1319,718,o),
(1095,520,o),
(729,520,cs),
(283,520,l),
(275,480,l),
(721,480,ls),
(1119,480,o),
(1359,700,o),
(1359,1036,cs),
(1359,1266,o),
(1199,1400,o),
(905,1400,cs),
(429,1400,l),
(149,0,l),
(189,0,l)
);
}
);
width = 1446;
}
);
leftKerningGroup = H;
rightKerningGroup = R;
unicode = 82;
},
{
glyphname = S;
layers = (
{
anchors = (
{
name = bottom;
position = "{573, 8}";
},
{
name = top;
position = "{868, 1384}";
}
);
layerId = "80EDA03B-FCE6-4340-AE48-D9302D36C121";
shapes = (
{
closed = 1;
nodes = (
(1430,1198,l),
(1249,1346,o),
(980,1430,o),
(749,1430,cs),
(452,1430,o),
(151,1272,o),
(151,940,cs),
(151,545,o),
(776,565,o),
(776,404,cs),
(776,345,o),
(723,324,o),
(673,324,cs),
(509,324,o),
(262,477,o),
(156,597,c),
(-86,268,l),
(101,77,o),
(408,-32,o),
(671,-32,cs),
(972,-32,o),
(1263,124,o),
(1263,459,cs),
(1263,864,o),
(642,851,o),
(642,1009,cs),
(642,1057,o),
(680,1076,o),
(722,1076,cs),
(852,1076,o),
(1088,942,o),
(1191,863,c)
);
}
);
width = 1326;
},
{
anchors = (
{
name = bottom;
position = "{431, 8}";
},
{
name = top;
position = "{719, 1384}";
}
);
layerId = "CFAEB7A8-48EA-4DE1-AFDA-6738335377BD";
shapes = (
{
closed = 1;
nodes = (
(1131,1198,l),
(1003,1346,o),
(805,1430,o),
(632,1430,cs),
(409,1430,o),
(175,1272,o),
(159,940,cs),
(140,545,o),
(610,565,o),
(602,404,cs),
(599,345,o),
(558,324,o),
(521,324,cs),
(398,324,o),
(220,477,o),
(146,597,c),
(-51,268,l),
(80,77,o),
(304,-32,o),
(502,-32,cs),
(727,-32,o),
(953,124,o),
(970,459,cs),
(990,864,o),
(523,851,o),
(531,1009,cs),
(533,1057,o),
(563,1076,o),
(594,1076,cs),
(692,1076,o),
(862,942,o),
(935,863,c)
);
}
);
width = 995;
},
{
anchors = (
{
name = bottom;
position = "{514, 10}";
},
{
name = top;
position = "{796, 1388}";
}
);
layerId = "AC0EE6F4-16E5-4030-8D81-C9AA237C4AA5";
shapes = (
{
closed = 1;
nodes = (
(1272,1218,l),
(1122,1346,o),
(916,1414,o),
(722,1414,cs),
(466,1414,o),
(210,1278,o),
(210,992,cs),
(210,602,o),
(854,654,o),
(854,390,cs),
(854,250,o),
(722,196,o),
(602,196,cs),
(414,196,o),
(230,304,o),
(116,450,c),
(-26,268,l),
(124,86,o),
(354,-16,o),
(588,-16,cs),
(856,-16,o),
(1124,126,o),
(1124,424,cs),
(1124,814,o),
(484,774,o),
(484,1030,cs),
(484,1156,o),
(592,1200,o),
(700,1200,cs),
(854,1200,o),
(1016,1126,o),
(1134,1030,c)
);
}
);
width = 1244;
},
{
anchors = (
{
name = bottom;
position = "{386, 10}";
},
{
name = top;
position = "{665, 1388}";
}
);
layerId = "58A41879-64B1-4F52-8959-748DC716EC4E";
shapes = (
{
closed = 1;
nodes = (
(1014,1218,l),
(907,1346,o),
(756,1414,o),
(611,1414,cs),
(419,1414,o),
(220,1278,o),
(206,992,cs),
(187,602,o),
(672,654,o),
(660,390,cs),
(653,250,o),
(551,196,o),
(461,196,cs),
(320,196,o),
(187,304,o),
(109,450,c),
(-6,268,l),
(97,86,o),
(265,-16,o),
(440,-16,cs),
(641,-16,o),
(849,126,o),
(864,424,cs),
(883,814,o),
(401,774,o),
(413,1030,cs),
(420,1156,o),
(503,1200,o),
(584,1200,cs),
(699,1200,o),
(817,1126,o),
(901,1030,c)
);
}
);
width = 933;
},
{
anchors = (
{
name = bottom;
position = "{495, 10}";
},
{
name = top;
position = "{751, 1390}";
}
);
layerId = "DCC69D3D-7CEF-4C2A-8AC6-F0104D87F396";
shapes = (
{
closed = 1;
nodes = (
(1141,1264,l),
(1025,1360,o),
(859,1408,o),
(709,1408,cs),
(485,1408,o),
(265,1312,o),
(265,1058,cs),
(265,662,o),
(973,748,o),
(973,368,cs),
(973,124,o),
(757,34,o),
(545,34,cs),
(357,34,o),
(159,110,o),
(51,270,c),
(17,242,l),
(133,78,o),
(341,-6,o),
(539,-6,cs),
(779,-6,o),
(1013,102,o),
(1013,374,cs),
(1013,780,o),
(305,694,o),
(305,1064,cs),
(305,1292,o),
(513,1368,o),
(709,1368,cs),
(843,1368,o),
(1009,1326,o),
(1113,1234,c)
);
}
);
width = 1188;
},
{
anchors = (
{
name = bottom;
position = "{372, 10}";
},
{
name = top;
position = "{631, 1387}";
}
);
layerId = "C062F820-65A0-41D8-894E-E8AB249BF7F4";
shapes = (
{
closed = 1;
nodes = (
(917,1261,l),
(835,1357,o),
(713,1404,o),
(600,1404,cs),
(432,1404,o),
(263,1309,o),
(250,1055,cs),
(231,660,o),
(766,746,o),
(748,367,cs),
(736,124,o),
(569,34,o),
(410,34,cs),
(269,34,o),
(125,110,o),
(51,269,c),
(25,241,l),
(104,78,o),
(255,-6,o),
(404,-6,cs),
(584,-6,o),
(765,102,o),
(778,373,cs),
(798,778,o),
(263,692,o),
(281,1061,cs),
(292,1289,o),
(451,1365,o),
(598,1365,cs),
(699,1365,o),
(821,1323,o),
(895,1231,c)
);
}
);
width = 891;
}
);
leftKerningGroup = S;
rightKerningGroup = S;
unicode = 83;
},
{
glyphname = T;
layers = (
{
layerId = "CFAEB7A8-48EA-4DE1-AFDA-6738335377BD";
shapes = (
{
closed = 1;
nodes = (
(435,1066,l),
(223,0,l),
(569,0,l),
(782,1066,l)
);
},
{
closed = 1;
nodes = (
(1076,1034,l),
(1149,1400,l),
(204,1400,l),
(131,1034,l)
);
}
);
width = 960;
},
{
layerId = "C062F820-65A0-41D8-894E-E8AB249BF7F4";
shapes = (
{
closed = 1;
nodes = (
(575,1367,l),
(302,0,l),
(332,0,l),
(605,1367,l)
);
},
{
closed = 1;
nodes = (
(963,1357,l),
(971,1397,l),
(220,1397,l),
(212,1357,l)
);
}
);
width = 791;
},
{
layerId = "58A41879-64B1-4F52-8959-748DC716EC4E";
shapes = (
{
closed = 1;
nodes = (
(510,1230,l),
(266,0,l),
(443,0,l),
(687,1230,l)
);
},
{
closed = 1;
nodes = (
(1014,1198,l),
(1054,1400,l),
(212,1400,l),
(173,1198,l)
);
}
);
width = 869;
},
{
layerId = "80EDA03B-FCE6-4340-AE48-D9302D36C121";
shapes = (
{
closed = 1;
nodes = (
(511,1066,l),
(297,0,l),
(759,0,l),
(973,1066,l)
);
},
{
closed = 1;
nodes = (
(1367,1034,l),
(1441,1400,l),
(181,1400,l),
(107,1034,l)
);
}
);
width = 1280;
},
{
layerId = "AC0EE6F4-16E5-4030-8D81-C9AA237C4AA5";
shapes = (
{
closed = 1;
nodes = (
(600,1230,l),
(354,0,l),
(590,0,l),
(836,1230,l)
);
},
{
closed = 1;
nodes = (
(1274,1198,l),
(1314,1400,l),
(192,1400,l),
(152,1198,l)
);
}
);
width = 1158;
},
{
layerId = "DCC69D3D-7CEF-4C2A-8AC6-F0104D87F396";
shapes = (
{
closed = 1;
nodes = (
(678,1370,l),
(402,0,l),
(442,0,l),
(718,1370,l)
);
},
{
closed = 1;
nodes = (
(1196,1360,l),
(1204,1400,l),
(202,1400,l),
(194,1360,l)
);
}
);
width = 1054;
}
);
leftKerningGroup = T;
rightKerningGroup = T;
unicode = 84;
},
{
glyphname = U;
layers = (
{
anchors = (
{
name = bottom;
position = "{629, 0}";
},
{
name = ogonek;
position = "{1117, 0}";
},
{
name = top;
position = "{909, 1400}";
},
{
name = topright;
position = "{1443, 1400}";
}
);
layerId = "80EDA03B-FCE6-4340-AE48-D9302D36C121";
shapes = (
{
closed = 1;
nodes = (
(1119,1400,l),
(957,594,ls),
(929,454,o),
(823,366,o),
(709,366,cs),
(595,366,o),
(513,456,o),
(541,594,cs),
(701,1400,l),
(239,1400,l),
(77,594,ls),
(3,222,o),
(245,-20,o),
(651,-20,cs),
(1057,-20,o),
(1347,222,o),
(1421,594,cs),
(1583,1400,l)
);
}
);
width = 1480;
},
{
anchors = (
{
name = bottom;
position = "{472, 0}";
},
{
name = ogonek;
position = "{838, 0}";
},
{
name = top;
position = "{750, 1400}";
},
{
name = topright;
position = "{1151, 1400}";
}
);
layerId = "CFAEB7A8-48EA-4DE1-AFDA-6738335377BD";
shapes = (
{
closed = 1;
nodes = (
(908,1400,l),
(747,594,ls),
(719,454,o),
(635,366,o),
(550,366,cs),
(464,366,o),
(407,456,o),
(435,594,cs),
(594,1400,l),
(248,1400,l),
(87,594,ls),
(13,222,o),
(183,-20,o),
(487,-20,cs),
(792,-20,o),
(1021,222,o),
(1095,594,cs),
(1256,1400,l)
);
}
);
width = 1110;
},
{
anchors = (
{
name = bottom;
position = "{653, 0}";
},
{
name = ogonek;
position = "{1055, 0}";
},
{
name = top;
position = "{933, 1400}";
},
{
name = topright;
position = "{1483, 1400}";
}
);
layerId = "AC0EE6F4-16E5-4030-8D81-C9AA237C4AA5";
shapes = (
{
closed = 1;
nodes = (
(1307,1400,l),
(1143,580,ls),
(1093,334,o),
(923,190,o),
(695,190,cs),
(465,190,o),
(347,336,o),
(397,580,cs),
(559,1400,l),
(325,1400,l),
(161,580,ls),
(87,214,o),
(295,-10,o),
(673,-10,cs),
(1051,-10,o),
(1305,214,o),
(1379,580,cs),
(1543,1400,l)
);
}
);
width = 1518;
},
{
anchors = (
{
name = bottom;
position = "{490, 0}";
},
{
name = ogonek;
position = "{791, 0}";
},
{
name = top;
position = "{768, 1400}";
},
{
name = topright;
position = "{1181, 1400}";
}
);
layerId = "58A41879-64B1-4F52-8959-748DC716EC4E";
shapes = (
{
closed = 1;
nodes = (
(1049,1400,l),
(886,580,ls),
(836,334,o),
(702,190,o),
(531,190,cs),
(358,190,o),
(277,336,o),
(326,580,cs),
(488,1400,l),
(312,1400,l),
(149,580,ls),
(76,214,o),
(221,-10,o),
(504,-10,cs),
(788,-10,o),
(989,214,o),
(1063,580,cs),
(1226,1400,l)
);
}
);
width = 1139;
},
{
anchors = (
{
name = bottom;
position = "{672, 0}";
},
{
name = ogonek;
position = "{1034, 0}";
},
{
name = top;
position = "{952, 1400}";
},
{
name = topright;
position = "{1486, 1400}";
}
);
layerId = "DCC69D3D-7CEF-4C2A-8AC6-F0104D87F396";
shapes = (
{
closed = 1;
nodes = (
(1466,1400,l),
(1300,568,ls),
(1232,232,o),
(1026,40,o),
(700,40,cs),
(372,40,o),
(202,232,o),
(270,568,cs),
(436,1400,l),
(396,1400,l),
(230,568,ls),
(158,206,o),
(338,0,o),
(692,0,cs),
(1044,0,o),
(1268,206,o),
(1340,568,cs),
(1506,1400,l)
);
}
);
width = 1550;
},
{
anchors = (
{
name = bottom;
position = "{504, 0}";
},
{
name = ogonek;
position = "{776, 0}";
},
{
name = top;
position = "{782, 1397}";
},
{
name = topright;
position = "{1183, 1397}";
}
);
layerId = "C062F820-65A0-41D8-894E-E8AB249BF7F4";
shapes = (
{
closed = 1;
nodes = (
(1168,1397,l),
(1003,567,ls),
(935,231,o),
(771,40,o),
(527,40,cs),
(281,40,o),
(163,231,o),
(230,567,cs),
(395,1397,l),
(365,1397,l),
(200,567,ls),
(129,205,o),
(254,0,o),
(519,0,cs),
(783,0,o),
(961,205,o),
(1033,567,cs),
(1198,1397,l)
);
}
);
width = 1163;
}
);
leftKerningGroup = U;
rightKerningGroup = U;
unicode = 85;
},
{
glyphname = V;
layers = (
{
anchors = (
{
name = top;
position = "{862, 1400}";
}
);
layerId = "80EDA03B-FCE6-4340-AE48-D9302D36C121";
shapes = (
{
closed = 1;
nodes = (
(1232,1400,l),
(704,300,l),
(822,282,l),
(654,1400,l),
(160,1400,l),
(460,0,l),
(938,0,l),
(1706,1400,l)
);
}
);
width = 1526;
},
{
anchors = (
{
name = top;
position = "{715, 1400}";
}
);
layerId = "CFAEB7A8-48EA-4DE1-AFDA-6738335377BD";
shapes = (
{
closed = 1;
nodes = (
(992,1400,l),
(543,300,l),
(630,282,l),
(559,1400,l),
(188,1400,l),
(345,0,l),
(704,0,l),
(1348,1400,l)
);
}
);
width = 1145;
},
{
anchors = (
{
name = top;
position = "{811, 1400}";
}
);
layerId = "AC0EE6F4-16E5-4030-8D81-C9AA237C4AA5";
shapes = (
{
closed = 1;
nodes = (
(1302,1400,l),
(626,158,l),
(698,146,l),
(434,1400,l),
(180,1400,l),
(506,0,l),
(752,0,l),
(1548,1400,l)
);
}
);
width = 1380;
},
{
anchors = (
{
name = top;
position = "{677, 1400}";
}
);
layerId = "58A41879-64B1-4F52-8959-748DC716EC4E";
shapes = (
{
closed = 1;
nodes = (
(1045,1400,l),
(477,158,l),
(531,146,l),
(394,1400,l),
(203,1400,l),
(380,0,l),
(564,0,l),
(1229,1400,l)
);
}
);
width = 1035;
},
{
anchors = (
{
name = top;
position = "{764, 1400}";
}
);
layerId = "DCC69D3D-7CEF-4C2A-8AC6-F0104D87F396";
shapes = (
{
closed = 1;
nodes = (
(1362,1400,l),
(568,30,l),
(582,28,l),
(242,1400,l),
(196,1400,l),
(548,0,l),
(592,0,l),
(1410,1400,l)
);
}
);
width = 1254;
},
{
anchors = (
{
name = top;
position = "{641, 1397}";
}
);
layerId = "C062F820-65A0-41D8-894E-E8AB249BF7F4";
shapes = (
{
closed = 1;
nodes = (
(1090,1397,l),
(427,30,l),
(438,28,l),
(250,1397,l),
(215,1397,l),
(411,0,l),
(444,0,l),
(1126,1397,l)
);
}
);
width = 941;
}
);
leftKerningGroup = V;
rightKerningGroup = V;
unicode = 86;
},
{
glyphname = W;
layers = (
{
layerId = "CFAEB7A8-48EA-4DE1-AFDA-6738335377BD";
shapes = (
{
closed = 1;
nodes = (
(1549,1400,l),
(1171,294,l),
(1236,280,l),
(1235,1400,l),
(896,1398,l),
(517,294,l),
(582,280,l),
(581,1400,l),
(211,1400,l),
(309,0,l),
(666,0,l),
(1028,1024,l),
(961,1038,l),
(962,0,l),
(1320,0,l),
(1904,1400,l)
);
}
);
width = 1724;
},
{
layerId = "C062F820-65A0-41D8-894E-E8AB249BF7F4";
shapes = (
{
closed = 1;
nodes = (
(1634,1397,l),
(1055,30,l),
(1064,28,l),
(957,1397,l),
(924,1397,l),
(346,30,l),
(353,28,l),
(248,1397,l),
(215,1397,l),
(328,0,l),
(359,0,l),
(939,1357,l),
(930,1359,l),
(1037,0,l),
(1069,0,l),
(1668,1397,l)
);
}
);
width = 1482;
},
{
layerId = "58A41879-64B1-4F52-8959-748DC716EC4E";
shapes = (
{
closed = 1;
nodes = (
(1605,1400,l),
(1115,154,l),
(1158,146,l),
(1097,1400,l),
(923,1400,l),
(433,154,l),
(476,146,l),
(414,1400,l),
(224,1400,l),
(331,0,l),
(512,0,l),
(994,1204,l),
(951,1212,l),
(1013,0,l),
(1196,0,l),
(1788,1400,l)
);
}
);
width = 1595;
},
{
layerId = "6ED53C79-27A9-4069-98E4-809E234A2792";
associatedMasterId = "80EDA03B-FCE6-4340-AE48-D9302D36C121";
name = "Nov 24 16, 19:29";
width = 2242;
},
{
layerId = "80EDA03B-FCE6-4340-AE48-D9302D36C121";
shapes = (
{
closed = 1;
nodes = (
(1974,1400,l),
(1542,294,l),
(1630,280,l),
(1556,1400,l),
(1104,1398,l),
(670,294,l),
(758,280,l),
(684,1400,l),
(190,1400,l),
(412,0,l),
(888,0,l),
(1304,1024,l),
(1214,1038,l),
(1282,0,l),
(1760,0,l),
(2448,1400,l)
);
}
);
width = 2298;
},
{
layerId = "AE955086-A468-46AC-8D84-A688F6080B5C";
associatedMasterId = "AC0EE6F4-16E5-4030-8D81-C9AA237C4AA5";
name = "Nov 24 16, 19:29";
width = 2072;
},
{
layerId = "AC0EE6F4-16E5-4030-8D81-C9AA237C4AA5";
shapes = (
{
closed = 1;
nodes = (
(2049,1400,l),
(1477,154,l),
(1535,146,l),
(1371,1400,l),
(1139,1400,l),
(567,154,l),
(625,146,l),
(461,1400,l),
(207,1400,l),
(441,0,l),
(683,0,l),
(1247,1204,l),
(1189,1212,l),
(1351,0,l),
(1595,0,l),
(2293,1400,l)
);
}
);
width = 2126;
},
{
layerId = "DCC69D3D-7CEF-4C2A-8AC6-F0104D87F396";
shapes = (
{
closed = 1;
nodes = (
(2087,1400,l),
(1405,30,l),
(1417,28,l),
(1185,1400,l),
(1141,1400,l),
(459,30,l),
(469,28,l),
(239,1400,l),
(195,1400,l),
(437,0,l),
(479,0,l),
(1163,1360,l),
(1151,1362,l),
(1383,0,l),
(1425,0,l),
(2133,1400,l)
);
}
);
width = 1976;
}
);
leftKerningGroup = V;
rightKerningGroup = V;
unicode = 87;
},
{
glyphname = X;
layers = (
{
layerId = "CFAEB7A8-48EA-4DE1-AFDA-6738335377BD";
shapes = (
{
closed = 1;
nodes = (
(891,1400,l),
(682,1070,l),
(585,1400,l),
(182,1400,l),
(409,710,l),
(-83,0,l),
(323,0,l),
(558,362,l),
(673,0,l),
(1090,0,l),
(844,732,l),
(1301,1400,l)
);
}
);
width = 1158;
},
{
layerId = "C062F820-65A0-41D8-894E-E8AB249BF7F4";
shapes = (
{
closed = 1;
nodes = (
(975,1397,l),
(518,758,l),
(282,1397,l),
(246,1397,l),
(492,724,l),
(-25,0,l),
(11,0,l),
(506,692,l),
(761,0,l),
(797,0,l),
(530,724,l),
(1011,1397,l)
);
}
);
width = 936;
},
{
layerId = "58A41879-64B1-4F52-8959-748DC716EC4E";
shapes = (
{
closed = 1;
nodes = (
(935,1400,l),
(592,902,l),
(422,1400,l),
(215,1400,l),
(454,718,l),
(-51,0,l),
(156,0,l),
(530,540,l),
(720,0,l),
(933,0,l),
(675,728,l),
(1144,1400,l)
);
}
);
width = 1038;
},
{
layerId = "80EDA03B-FCE6-4340-AE48-D9302D36C121";
shapes = (
{
closed = 1;
nodes = (
(1097,1400,l),
(839,1070,l),
(689,1400,l),
(151,1400,l),
(499,710,l),
(-111,0,l),
(431,0,l),
(721,362,l),
(897,0,l),
(1453,0,l),
(1077,732,l),
(1643,1400,l)
);
}
);
width = 1544;
},
{
layerId = "AC0EE6F4-16E5-4030-8D81-C9AA237C4AA5";
shapes = (
{
closed = 1;
nodes = (
(1156,1400,l),
(730,902,l),
(472,1400,l),
(196,1400,l),
(558,718,l),
(-68,0,l),
(208,0,l),
(672,540,l),
(960,0,l),
(1244,0,l),
(852,728,l),
(1434,1400,l)
);
}
);
width = 1384;
},
{
layerId = "FD1A673D-2D24-4871-A9E1-A4EAA849D685";
associatedMasterId = "DCC69D3D-7CEF-4C2A-8AC6-F0104D87F396";
name = "Light Mar 13 12, 18:48";
shapes = (
{
closed = 1;
nodes = (
(118,0,l),
(1126,1398,l),
(1078,1398,l),
(70,0,l)
);
},
{
closed = 1;
nodes = (
(1164,0,l),
(156,1398,l),
(108,1398,l),
(1116,0,l)
);
}
);
width = 1234;
},
{
layerId = "CAD252BC-09A0-4D9D-A5D4-20D0BC2D7F5D";
associatedMasterId = "DCC69D3D-7CEF-4C2A-8AC6-F0104D87F396";
name = "Light Mar 13 12, 18:48.1";
width = 1234;
},
{
layerId = "DCC69D3D-7CEF-4C2A-8AC6-F0104D87F396";
shapes = (
{
closed = 1;
nodes = (
(1209,1400,l),
(641,760,l),
(285,1400,l),
(237,1400,l),
(609,726,l),
(-33,0,l),
(15,0,l),
(629,694,l),
(1015,0,l),
(1063,0,l),
(659,726,l),
(1257,1400,l)
);
}
);
width = 1248;
}
);
leftKerningGroup = X;
rightKerningGroup = X;
unicode = 88;
},
{
glyphname = Y;
layers = (
{
layerId = "CFAEB7A8-48EA-4DE1-AFDA-6738335377BD";
shapes = (
{
closed = 1;
nodes = (
(431,632,l),
(323,0,l),
(669,0,l),
(778,632,l)
);
},
{
closed = 1;
nodes = (
(417,332,l),
(687,332,l),
(1288,1400,l),
(941,1400,l),
(551,692,l),
(685,670,l),
(527,1400,l),
(181,1400,l)
);
}
);
width = 1077;
},
{
layerId = "C062F820-65A0-41D8-894E-E8AB249BF7F4";
shapes = (
{
closed = 1;
nodes = (
(500,553,l),
(401,0,l),
(431,0,l),
(530,553,l)
);
},
{
closed = 1;
nodes = (
(502,515,l),
(511,515,l),
(1096,1397,l),
(1060,1397,l),
(508,563,l),
(522,561,l),
(251,1397,l),
(215,1397,l)
);
}
);
width = 911;
},
{
layerId = "58A41879-64B1-4F52-8959-748DC716EC4E";
shapes = (
{
closed = 1;
nodes = (
(452,590,l),
(351,0,l),
(528,0,l),
(629,590,l)
);
},
{
closed = 1;
nodes = (
(448,412,l),
(571,412,l),
(1153,1400,l),
(973,1400,l),
(509,624,l),
(585,612,l),
(380,1400,l),
(200,1400,l)
);
}
);
width = 956;
},
{
layerId = "80EDA03B-FCE6-4340-AE48-D9302D36C121";
shapes = (
{
closed = 1;
nodes = (
(534,632,l),
(430,0,l),
(892,0,l),
(996,632,l)
);
},
{
closed = 1;
nodes = (
(534,332,l),
(894,332,l),
(1626,1400,l),
(1164,1400,l),
(690,692,l),
(870,670,l),
(612,1400,l),
(150,1400,l)
);
}
);
width = 1436;
},
{
layerId = "AC0EE6F4-16E5-4030-8D81-C9AA237C4AA5";
shapes = (
{
closed = 1;
nodes = (
(564,590,l),
(468,0,l),
(704,0,l),
(800,590,l)
);
},
{
closed = 1;
nodes = (
(570,412,l),
(734,412,l),
(1446,1400,l),
(1206,1400,l),
(638,624,l),
(740,612,l),
(416,1400,l),
(176,1400,l)
);
}
);
width = 1274;
},
{
layerId = "DCC69D3D-7CEF-4C2A-8AC6-F0104D87F396";
shapes = (
{
closed = 1;
nodes = (
(630,554,l),
(534,0,l),
(574,0,l),
(670,554,l)
);
},
{
closed = 1;
nodes = (
(636,516,l),
(648,516,l),
(1370,1400,l),
(1322,1400,l),
(640,564,l),
(660,562,l),
(244,1400,l),
(196,1400,l)
);
}
);
width = 1214;
}
);
leftKerningGroup = Y;
rightKerningGroup = Y;
unicode = 89;
},
{
glyphname = Z;
layers = (
{
layerId = "CFAEB7A8-48EA-4DE1-AFDA-6738335377BD";
shapes = (
{
closed = 1;
nodes = (
(217,1400,l),
(156,1044,l),
(779,1044,l),
(743,1184,l),
(7,290,l),
(-44,0,l),
(920,0,l),
(982,356,l),
(331,356,l),
(366,214,l),
(1101,1110,l),
(1151,1400,l)
);
}
);
width = 1023;
},
{
layerId = "C062F820-65A0-41D8-894E-E8AB249BF7F4";
shapes = (
{
closed = 1;
nodes = (
(271,1397,l),
(263,1357,l),
(1041,1357,l),
(1037,1369,l),
(16,50,l),
(8,0,l),
(828,0,l),
(836,40,l),
(32,40,l),
(36,28,l),
(1057,1347,l),
(1066,1397,l)
);
}
);
width = 977;
},
{
layerId = "58A41879-64B1-4F52-8959-748DC716EC4E";
shapes = (
{
closed = 1;
nodes = (
(245,1400,l),
(212,1198,l),
(911,1198,l),
(890,1272,l),
(12,160,l),
(-15,0,l),
(872,0,l),
(905,202,l),
(181,202,l),
(201,128,l),
(1078,1240,l),
(1105,1400,l)
);
}
);
width = 999;
},
{
layerId = "80EDA03B-FCE6-4340-AE48-D9302D36C121";
shapes = (
{
closed = 1;
nodes = (
(198,1400,l),
(140,1044,l),
(970,1044,l),
(914,1184,l),
(-10,290,l),
(-58,0,l),
(1226,0,l),
(1286,356,l),
(418,356,l),
(474,214,l),
(1396,1110,l),
(1444,1400,l)
);
}
);
width = 1364;
},
{
layerId = "AC0EE6F4-16E5-4030-8D81-C9AA237C4AA5";
shapes = (
{
closed = 1;
nodes = (
(236,1400,l),
(204,1198,l),
(1136,1198,l),
(1104,1272,l),
(6,160,l),
(-20,0,l),
(1162,0,l),
(1194,202,l),
(228,202,l),
(260,128,l),
(1356,1240,l),
(1382,1400,l)
);
}
);
width = 1332;
},
{
layerId = "DCC69D3D-7CEF-4C2A-8AC6-F0104D87F396";
shapes = (
{
closed = 1;
nodes = (
(270,1400,l),
(262,1360,l),
(1300,1360,l),
(1294,1372,l),
(18,50,l),
(10,0,l),
(1104,0,l),
(1112,40,l),
(40,40,l),
(46,28,l),
(1322,1350,l),
(1330,1400,l)
);
}
);
width = 1302;
}
);
leftKerningGroup = Z;
rightKerningGroup = Z;
unicode = 90;
},
{
glyphname = bracketleft;
layers = (
{
layerId = "CFAEB7A8-48EA-4DE1-AFDA-6738335377BD";
shapes = (
{
closed = 1;
nodes = (
(295,1484,l),
(-51,-248,l),
(424,-248,l),
(492,84,l),
(316,84,l),
(527,1152,l),
(703,1152,l),
(770,1484,l)
);
}
);
width = 572;
},
{
layerId = "C062F820-65A0-41D8-894E-E8AB249BF7F4";
shapes = (
{
closed = 1;
nodes = (
(378,1480,l),
(33,-247,l),
(256,-247,l),
(264,-207,l),
(71,-207,l),
(400,1440,l),
(594,1440,l),
(602,1480,l)
);
}
);
width = 426;
},
{
layerId = "58A41879-64B1-4F52-8959-748DC716EC4E";
shapes = (
{
closed = 1;
nodes = (
(339,1484,l),
(-7,-248,l),
(334,-248,l),
(369,-74,l),
(183,-74,l),
(458,1310,l),
(644,1310,l),
(679,1484,l)
);
}
);
width = 494;
},
{
layerId = "64D34D3C-A994-4324-BC62-EBD1B9B1B4B3";
associatedMasterId = "80EDA03B-FCE6-4340-AE48-D9302D36C121";
name = "Bold Italic Dec 28 15, 00:55";
shapes = (
{
closed = 1;
nodes = (
(614,1488,ls),
(324,1488,o),
(228,1412,o),
(228,1182,cs),
(228,856,ls),
(228,804,o),
(212,788,o),
(166,788,cs),
(76,788,l),
(76,448,l),
(166,448,l),
(328,602,l),
(554,622,o),
(628,692,o),
(628,886,cs),
(628,1040,ls),
(628,1128,o),
(656,1158,o),
(790,1158,c),
(790,1488,l)
);
},
{
closed = 1;
nodes = (
(76,788,l),
(76,448,l),
(166,448,ls),
(212,448,o),
(228,432,o),
(228,380,cs),
(228,54,ls),
(228,-176,o),
(324,-252,o),
(614,-252,cs),
(790,-252,l),
(790,78,l),
(656,78,o),
(628,108,o),
(628,196,cs),
(628,350,ls),
(628,544,o),
(554,614,o),
(328,634,c),
(166,788,l)
);
}
);
width = 970;
},
{
layerId = "80EDA03B-FCE6-4340-AE48-D9302D36C121";
shapes = (
{
closed = 1;
nodes = (
(296,1484,l),
(-52,-248,l),
(582,-248,l),
(650,84,l),
(416,84,l),
(628,1152,l),
(862,1152,l),
(930,1484,l)
);
}
);
width = 762;
},
{
layerId = "ADA1E951-A0EC-475B-AE87-67BFA034EEAA";
associatedMasterId = "AC0EE6F4-16E5-4030-8D81-C9AA237C4AA5";
name = "Regular Italic Dec 28 15, 00:55";
shapes = (
{
closed = 1;
nodes = (
(566,1486,ls),
(342,1486,o),
(256,1416,o),
(256,1234,cs),
(256,816,ls),
(256,738,o),
(228,706,o),
(168,706,cs),
(106,706,l),
(106,528,l),
(168,528,l),
(274,608,l),
(414,626,o),
(462,686,o),
(462,828,cs),
(462,1170,ls),
(462,1270,o),
(510,1312,o),
(652,1312,c),
(652,1486,l)
);
},
{
closed = 1;
nodes = (
(106,706,l),
(106,528,l),
(168,528,ls),
(228,528,o),
(256,496,o),
(256,418,cs),
(256,0,ls),
(256,-182,o),
(342,-252,o),
(566,-252,cs),
(652,-252,l),
(652,-78,l),
(510,-78,o),
(462,-36,o),
(462,64,cs),
(462,404,ls),
(462,548,o),
(414,608,o),
(274,626,c),
(168,706,l)
);
}
);
width = 848;
},
{
layerId = "AC0EE6F4-16E5-4030-8D81-C9AA237C4AA5";
shapes = (
{
closed = 1;
nodes = (
(355,1484,l),
(7,-248,l),
(461,-248,l),
(497,-74,l),
(249,-74,l),
(525,1310,l),
(773,1310,l),
(809,1484,l)
);
}
);
width = 658;
},
{
layerId = "7A43B0E7-7F88-40EC-96BA-4977C8B726E6";
associatedMasterId = "DCC69D3D-7CEF-4C2A-8AC6-F0104D87F396";
name = "Light Italic Dec 28 15, 00:55";
shapes = (
{
closed = 1;
nodes = (
(526,1484,ls),
(358,1484,o),
(280,1420,o),
(280,1280,cs),
(280,780,ls),
(280,682,o),
(244,636,o),
(170,636,cs),
(132,636,l),
(132,596,l),
(170,596,l),
(228,612,ls),
(294,630,o),
(320,680,o),
(320,780,cs),
(320,1280,ls),
(320,1392,o),
(388,1444,o),
(536,1444,c),
(536,1484,l)
);
},
{
closed = 1;
nodes = (
(132,636,l),
(132,596,l),
(170,596,ls),
(244,596,o),
(280,550,o),
(280,452,cs),
(280,-48,ls),
(280,-188,o),
(358,-252,o),
(526,-252,cs),
(536,-252,l),
(536,-212,l),
(388,-212,o),
(320,-160,o),
(320,-48,cs),
(320,452,ls),
(320,552,o),
(294,602,o),
(228,620,cs),
(170,636,l)
);
}
);
width = 746;
},
{
layerId = "DCC69D3D-7CEF-4C2A-8AC6-F0104D87F396";
shapes = (
{
closed = 1;
nodes = (
(408,1484,l),
(60,-248,l),
(358,-248,l),
(366,-208,l),
(108,-208,l),
(440,1444,l),
(698,1444,l),
(706,1484,l)
);
}
);
width = 568;
}
);
leftKerningGroup = bracketleft;
rightKerningGroup = braceleft;
unicode = 91;
},
{
glyphname = bracketright;
layers = (
{
layerId = "CFAEB7A8-48EA-4DE1-AFDA-6738335377BD";
shapes = (
{
closed = 1;
nodes = (
(392,-248,l),
(737,1484,l),
(262,1484,l),
(194,1152,l),
(370,1152,l),
(158,84,l),
(-17,84,l),
(-84,-248,l)
);
}
);
width = 572;
},
{
layerId = "C062F820-65A0-41D8-894E-E8AB249BF7F4";
shapes = (
{
closed = 1;
nodes = (
(141,-248,l),
(487,1481,l),
(263,1481,l),
(255,1441,l),
(449,1441,l),
(119,-208,l),
(-75,-208,l),
(-83,-248,l)
);
}
);
width = 426;
},
{
layerId = "58A41879-64B1-4F52-8959-748DC716EC4E";
shapes = (
{
closed = 1;
nodes = (
(248,-248,l),
(594,1484,l),
(254,1484,l),
(218,1310,l),
(404,1310,l),
(129,-74,l),
(-57,-74,l),
(-92,-248,l)
);
}
);
width = 494;
},
{
layerId = "80EDA03B-FCE6-4340-AE48-D9302D36C121";
shapes = (
{
closed = 1;
nodes = (
(538,-248,l),
(886,1484,l),
(252,1484,l),
(184,1152,l),
(418,1152,l),
(206,84,l),
(-28,84,l),
(-96,-248,l)
);
}
);
width = 762;
},
{
layerId = "AC0EE6F4-16E5-4030-8D81-C9AA237C4AA5";
shapes = (
{
closed = 1;
nodes = (
(347,-248,l),
(695,1484,l),
(241,1484,l),
(205,1310,l),
(453,1310,l),
(177,-74,l),
(-71,-74,l),
(-107,-248,l)
);
}
);
width = 658;
},
{
layerId = "DCC69D3D-7CEF-4C2A-8AC6-F0104D87F396";
shapes = (
{
closed = 1;
nodes = (
(204,-248,l),
(552,1484,l),
(254,1484,l),
(246,1444,l),
(504,1444,l),
(172,-208,l),
(-86,-208,l),
(-94,-248,l)
);
}
);
width = 568;
}
);
leftKerningGroup = braceright;
rightKerningGroup = bracketright;
unicode = 93;
},
{
glyphname = asciicircum;
leftMetricsKey = "=52";
layers = (
{
layerId = "CFAEB7A8-48EA-4DE1-AFDA-6738335377BD";
shapes = (
{
closed = 1;
nodes = (
(773,1400,l),
(506,1400,l),
(78,640,l),
(318,640,l),
(601,1162,l),
(672,640,l),
(900,640,l)
);
}
);
width = 899;
},
{
layerId = "C062F820-65A0-41D8-894E-E8AB249BF7F4";
leftMetricsKey = "=78";
shapes = (
{
closed = 1;
nodes = (
(573,1397,l),
(534,1397,l),
(96,599,l),
(129,599,l),
(548,1358,l),
(660,599,l),
(693,599,l)
);
}
);
width = 711;
},
{
layerId = "58A41879-64B1-4F52-8959-748DC716EC4E";
leftMetricsKey = "=67";
shapes = (
{
closed = 1;
nodes = (
(666,1400,l),
(522,1400,l),
(88,614,l),
(217,614,l),
(571,1260,l),
(665,614,l),
(788,614,l)
);
}
);
width = 799;
},
{
layerId = "80EDA03B-FCE6-4340-AE48-D9302D36C121";
shapes = (
{
closed = 1;
nodes = (
(956,1400,l),
(600,1400,l),
(78,640,l),
(398,640,l),
(742,1162,l),
(870,640,l),
(1174,640,l)
);
}
);
width = 1215;
},
{
layerId = "AC0EE6F4-16E5-4030-8D81-C9AA237C4AA5";
leftMetricsKey = "=67";
shapes = (
{
closed = 1;
nodes = (
(808,1400,l),
(616,1400,l),
(88,614,l),
(260,614,l),
(690,1260,l),
(858,614,l),
(1022,614,l)
);
}
);
width = 1076;
},
{
layerId = "DCC69D3D-7CEF-4C2A-8AC6-F0104D87F396";
leftMetricsKey = "=78";
shapes = (
{
closed = 1;
nodes = (
(680,1400,l),
(628,1400,l),
(96,600,l),
(140,600,l),
(648,1362,l),
(848,600,l),
(892,600,l)
);
}
);
width = 955;
}
);
leftKerningGroup = asciicircum;
rightKerningGroup = asciicircum;
unicode = 94;
},
{
glyphname = underscore;
layers = (
{
layerId = "CFAEB7A8-48EA-4DE1-AFDA-6738335377BD";
shapes = (
{
closed = 1;
nodes = (
(-115,-168,l),
(-163,-408,l),
(736,-408,l),
(784,-168,l)
);
}
);
width = 899;
},
{
layerId = "C062F820-65A0-41D8-894E-E8AB249BF7F4";
shapes = (
{
closed = 1;
nodes = (
(-150,-367,l),
(-158,-407,l),
(647,-407,l),
(656,-367,l)
);
}
);
width = 806;
},
{
layerId = "58A41879-64B1-4F52-8959-748DC716EC4E";
shapes = (
{
closed = 1;
nodes = (
(-134,-276,l),
(-162,-408,l),
(687,-408,l),
(715,-276,l)
);
}
);
width = 849;
},
{
layerId = "80EDA03B-FCE6-4340-AE48-D9302D36C121";
shapes = (
{
closed = 1;
nodes = (
(-142,-168,l),
(-190,-408,l),
(1008,-408,l),
(1056,-168,l)
);
}
);
width = 1198;
},
{
layerId = "AC0EE6F4-16E5-4030-8D81-C9AA237C4AA5";
shapes = (
{
closed = 1;
nodes = (
(-161,-276,l),
(-189,-408,l),
(943,-408,l),
(971,-276,l)
);
}
);
width = 1132;
},
{
layerId = "DCC69D3D-7CEF-4C2A-8AC6-F0104D87F396";
shapes = (
{
closed = 1;
nodes = (
(-176,-368,l),
(-184,-408,l),
(890,-408,l),
(898,-368,l)
);
}
);
width = 1074;
}
);
leftKerningGroup = underscore;
rightKerningGroup = underscore;
unicode = 95;
},
{
glyphname = a;
layers = (
{
anchors = (
{
name = bottom;
position = "{540, 0}";
},
{
name = ogonek;
position = "{1004, 0}";
},
{
name = top;
position = "{689, 1094}";
}
);
layerId = "80EDA03B-FCE6-4340-AE48-D9302D36C121";
shapes = (
{
closed = 1;
nodes = (
(727,450,l),
(767,658,l),
(402,658,ls),
(170,658,o),
(-1,551,o),
(-1,315,cs),
(-1,80,o),
(168,-10,o),
(336,-10,cs),
(499,-10,o),
(643,74,o),
(696,199,c),
(670,344,l),
(635,297,o),
(575,266,o),
(520,266,cs),
(473,266,o),
(428,288,o),
(428,355,cs),
(428,412,o),
(461,450,o),
(519,450,cs)
);
},
{
closed = 1;
nodes = (
(1044,0,l),
(1175,655,ls),
(1181,686,o),
(1184,717,o),
(1184,747,cs),
(1184,1053,o),
(876,1124,o),
(667,1124,cs),
(499,1124,o),
(301,1078,o),
(171,1008,c),
(271,708,l),
(342,750,o),
(449,778,o),
(539,778,cs),
(613,778,o),
(732,778,o),
(732,672,cs),
(732,663,o),
(732,654,o),
(730,645,cs),
(598,0,l)
);
}
);
width = 1226;
},
{
anchors = (
{
name = bottom;
position = "{405, 0}";
},
{
name = ogonek;
position = "{753, 0}";
},
{
name = top;
position = "{570, 1094}";
}
);
layerId = "CFAEB7A8-48EA-4DE1-AFDA-6738335377BD";
shapes = (
{
closed = 1;
nodes = (
(567,450,l),
(607,658,l),
(334,658,ls),
(160,658,o),
(26,551,o),
(15,315,cs),
(3,80,o),
(126,-10,o),
(252,-10,cs),
(374,-10,o),
(486,74,o),
(532,199,c),
(519,344,l),
(491,297,o),
(444,266,o),
(403,266,cs),
(368,266,o),
(335,288,o),
(338,355,cs),
(341,412,o),
(368,450,o),
(411,450,cs)
);
},
{
closed = 1;
nodes = (
(783,0,l),
(913,655,ls),
(919,686,o),
(923,717,o),
(925,747,cs),
(939,1053,o),
(712,1124,o),
(555,1124,cs),
(429,1124,o),
(278,1078,o),
(178,1008,c),
(238,708,l),
(293,750,o),
(375,778,o),
(442,778,cs),
(498,778,o),
(587,778,o),
(582,672,c),
(581,663,o),
(581,654,o),
(579,645,cs),
(449,0,l)
);
}
);
width = 920;
},
{
anchors = (
{
name = bottom;
position = "{571, 0}";
},
{
name = ogonek;
position = "{931, 0}";
},
{
name = top;
position = "{657, 1064}";
},
{
name = left;
position = "{-47, 530}";
}
);
layerId = "AC0EE6F4-16E5-4030-8D81-C9AA237C4AA5";
shapes = (
{
closed = 1;
nodes = (
(822,474,l),
(854,638,l),
(441,638,ls),
(234,638,o),
(47,529,o),
(47,305,cs),
(47,76,o),
(242,-10,o),
(413,-10,cs),
(567,-10,o),
(715,60,o),
(783,164,c),
(775,362,l),
(722,244,o),
(601,165,o),
(472,165,cs),
(388,165,o),
(265,198,o),
(265,328,cs),
(265,436,o),
(350,474,o),
(451,474,cs)
);
},
{
closed = 1;
nodes = (
(934,0,l),
(1063,648,ls),
(1069,677,o),
(1071,707,o),
(1071,731,cs),
(1071,1001,o),
(826,1070,o),
(639,1070,cs),
(472,1070,o),
(301,1015,o),
(212,932,c),
(306,784,l),
(374,850,o),
(492,894,o),
(600,894,cs),
(710,894,o),
(840,848,o),
(840,700,cs),
(840,682,o),
(838,664,o),
(834,646,cs),
(705,0,l)
);
}
);
width = 1172;
},
{
anchors = (
{
name = bottom;
position = "{428, 0}";
},
{
name = ogonek;
position = "{698, 0}";
},
{
name = top;
position = "{545, 1064}";
},
{
name = left;
position = "{-9, 530}";
}
);
layerId = "58A41879-64B1-4F52-8959-748DC716EC4E";
shapes = (
{
closed = 1;
nodes = (
(640,474,l),
(672,638,l),
(362,638,ls),
(207,638,o),
(61,529,o),
(50,305,cs),
(39,76,o),
(181,-10,o),
(309,-10,cs),
(425,-10,o),
(539,60,o),
(595,164,c),
(599,362,l),
(553,244,o),
(459,165,o),
(362,165,cs),
(299,165,o),
(208,198,o),
(215,328,cs),
(220,436,o),
(286,474,o),
(361,474,cs)
);
},
{
closed = 1;
nodes = (
(701,0,l),
(829,648,ls),
(835,677,o),
(838,707,o),
(839,731,cs),
(852,1001,o),
(672,1070,o),
(532,1070,cs),
(406,1070,o),
(275,1015,o),
(205,932,c),
(268,784,l),
(322,850,o),
(413,894,o),
(494,894,cs),
(576,894,o),
(671,848,o),
(664,700,cs),
(663,682,o),
(661,664,o),
(657,646,cs),
(529,0,l)
);
}
);
width = 879;
},
{
anchors = (
{
name = bottom;
position = "{473, 6}";
},
{
name = ogonek;
position = "{850, 0}";
},
{
name = top;
position = "{622, 1028}";
}
);
layerId = "DCC69D3D-7CEF-4C2A-8AC6-F0104D87F396";
shapes = (
{
closed = 1;
nodes = (
(913,522,l),
(921,562,l),
(441,562,ls),
(257,562,o),
(77,485,o),
(77,279,cs),
(77,78,o),
(250,0,o),
(421,0,cs),
(623,0,o),
(807,108,o),
(882,270,c),
(849,289,l),
(787,140,o),
(618,40,o),
(427,40,cs),
(281,40,o),
(117,99,o),
(117,284,cs),
(117,462,o),
(270,522,o),
(432,522,cs)
);
},
{
closed = 1;
nodes = (
(833,0,l),
(963,649,ls),
(969,677,o),
(972,706,o),
(972,734,cs),
(972,945,o),
(806,1034,o),
(632,1034,cs),
(488,1034,o),
(333,973,o),
(245,881,c),
(269,850,l),
(347,936,o),
(490,994,o),
(627,994,cs),
(779,994,o),
(932,923,o),
(932,733,cs),
(932,706,o),
(929,679,o),
(924,653,cs),
(793,0,l)
);
}
);
width = 1124;
},
{
anchors = (
{
name = bottom;
position = "{355, 6}";
},
{
name = ogonek;
position = "{638, 0}";
},
{
name = top;
position = "{517, 1025}";
}
);
layerId = "C062F820-65A0-41D8-894E-E8AB249BF7F4";
shapes = (
{
closed = 1;
nodes = (
(710,521,l),
(718,561,l),
(358,561,ls),
(220,561,o),
(81,484,o),
(71,278,cs),
(62,78,o),
(188,0,o),
(316,0,cs),
(467,0,o),
(611,108,o),
(675,269,c),
(651,288,l),
(597,140,o),
(465,40,o),
(322,40,cs),
(213,40,o),
(93,99,o),
(102,283,cs),
(110,461,o),
(228,521,o),
(349,521,cs)
);
},
{
closed = 1;
nodes = (
(625,0,l),
(754,647,ls),
(760,675,o),
(763,704,o),
(765,732,cs),
(775,943,o),
(655,1031,o),
(524,1031,cs),
(416,1031,o),
(297,971,o),
(227,879,c),
(243,848,l),
(306,934,o),
(416,992,o),
(519,992,cs),
(633,992,o),
(744,921,o),
(735,731,c),
(733,704,o),
(730,677,o),
(725,651,cs),
(595,0,l)
);
}
);
width = 843;
}
);
leftKerningGroup = a;
rightKerningGroup = n;
unicode = 97;
},
{
glyphname = b;
rightMetricsKey = "=97";
layers = (
{
anchors = (
{
name = bottom;
position = "{580, 0}";
},
{
name = top;
position = "{527, 1484}";
}
);
layerId = "80EDA03B-FCE6-4340-AE48-D9302D36C121";
shapes = (
{
closed = 1;
nodes = (
(844,1110,o),
(740,1064,o),
(654,986,c),
(752,1484,l),
(302,1484,l),
(8,0,l),
(458,0,l),
(486,144,l),
(548,40,o),
(654,-16,o),
(794,-16,cs),
(1110,-16,o),
(1358,270,o),
(1358,636,cs),
(1358,916,o),
(1192,1110,o),
(954,1110,cs)
);
},
{
closed = 1;
nodes = (
(854,774,o),
(904,712,o),
(904,606,cs),
(904,466,o),
(816,352,o),
(708,352,cs),
(622,352,o),
(568,416,o),
(568,518,cs),
(568,658,o),
(660,774,o),
(770,774,cs)
);
}
);
width = 1380;
},
{
anchors = (
{
name = bottom;
position = "{435, 0}";
},
{
name = top;
position = "{468, 1484}";
}
);
layerId = "CFAEB7A8-48EA-4DE1-AFDA-6738335377BD";
shapes = (
{
closed = 1;
nodes = (
(687,1110,o),
(607,1064,o),
(539,986,c),
(637,1484,l),
(299,1484,l),
(6,0,l),
(344,0,l),
(372,144,l),
(413,40,o),
(490,-16,o),
(595,-16,cs),
(832,-16,o),
(1032,270,o),
(1050,636,cs),
(1063,916,o),
(948,1110,o),
(770,1110,cs)
);
},
{
closed = 1;
nodes = (
(678,774,o),
(713,712,o),
(708,606,cs),
(701,466,o),
(629,352,o),
(548,352,cs),
(484,352,o),
(446,416,o),
(451,518,cs),
(458,658,o),
(533,774,o),
(615,774,cs)
);
}
);
width = 1035;
},
{
anchors = (
{
name = bottom;
position = "{574, 0}";
},
{
name = top;
position = "{476, 1484}";
}
);
layerId = "AC0EE6F4-16E5-4030-8D81-C9AA237C4AA5";
shapes = (
{
closed = 1;
nodes = (
(702,1068,o),
(572,1006,o),
(476,902,c),
(592,1484,l),
(364,1484,l),
(68,0,l),
(296,0,l),
(342,226,l),
(398,70,o),
(526,-14,o),
(714,-14,cs),
(1044,-14,o),
(1294,248,o),
(1294,590,cs),
(1294,876,o),
(1116,1068,o),
(852,1068,cs)
);
},
{
closed = 1;
nodes = (
(946,890,o),
(1062,766,o),
(1062,580,cs),
(1062,358,o),
(894,176,o),
(686,176,cs),
(514,176,o),
(402,300,o),
(402,486,cs),
(402,710,o),
(566,890,o),
(774,890,cs)
);
}
);
width = 1360;
},
{
anchors = (
{
name = bottom;
position = "{431, 0}";
},
{
name = top;
position = "{430, 1484}";
}
);
layerId = "58A41879-64B1-4F52-8959-748DC716EC4E";
shapes = (
{
closed = 1;
nodes = (
(579,1068,o),
(478,1006,o),
(401,902,c),
(517,1484,l),
(346,1484,l),
(51,0,l),
(222,0,l),
(268,226,l),
(302,70,o),
(394,-14,o),
(535,-14,cs),
(782,-14,o),
(983,248,o),
(999,590,cs),
(1013,876,o),
(889,1068,o),
(691,1068,cs)
);
},
{
closed = 1;
nodes = (
(753,890,o),
(834,766,o),
(825,580,cs),
(814,358,o),
(679,176,o),
(523,176,cs),
(394,176,o),
(316,300,o),
(325,486,cs),
(336,710,o),
(468,890,o),
(624,890,cs)
);
}
);
width = 1020;
},
{
anchors = (
{
name = bottom;
position = "{539, 0}";
},
{
name = top;
position = "{414, 1484}";
}
);
layerId = "DCC69D3D-7CEF-4C2A-8AC6-F0104D87F396";
shapes = (
{
closed = 1;
nodes = (
(565,1038,o),
(393,942,o),
(289,778,c),
(431,1484,l),
(391,1484,l),
(95,0,l),
(135,0,l),
(205,354,l),
(245,138,o),
(423,-4,o),
(659,-4,cs),
(969,-4,o),
(1217,258,o),
(1217,586,cs),
(1217,852,o),
(1027,1038,o),
(755,1038,cs)
);
},
{
closed = 1;
nodes = (
(1003,998,o),
(1177,828,o),
(1177,580,cs),
(1177,278,o),
(947,36,o),
(663,36,cs),
(411,36,o),
(237,206,o),
(237,454,cs),
(237,756,o),
(465,998,o),
(751,998,cs)
);
}
);
width = 1312;
},
{
anchors = (
{
name = bottom;
position = "{404, 0}";
},
{
name = top;
position = "{383, 1481}";
}
);
layerId = "C062F820-65A0-41D8-894E-E8AB249BF7F4";
shapes = (
{
closed = 1;
nodes = (
(474,1035,o),
(341,940,o),
(255,776,c),
(396,1480,l),
(366,1480,l),
(71,0,l),
(101,0,l),
(171,353,l),
(190,138,o),
(317,-4,o),
(494,-4,cs),
(727,-4,o),
(925,257,o),
(941,585,cs),
(954,850,o),
(821,1035,o),
(617,1035,cs)
);
},
{
closed = 1;
nodes = (
(801,996,o),
(923,826,o),
(911,579,cs),
(896,277,o),
(712,36,o),
(499,36,cs),
(310,36,o),
(188,205,o),
(200,453,cs),
(215,754,o),
(397,996,o),
(612,996,cs)
);
}
);
width = 1033;
}
);
leftKerningGroup = l;
rightKerningGroup = o;
unicode = 98;
},
{
glyphname = c;
layers = (
{
anchors = (
{
name = bottom;
position = "{492, 0}";
},
{
name = top;
position = "{672, 1094}";
}
);
layerId = "80EDA03B-FCE6-4340-AE48-D9302D36C121";
shapes = (
{
closed = 1;
nodes = (
(788,-16,o),
(992,96,o),
(1090,290,c),
(744,458,l),
(712,376,o),
(662,340,o),
(598,340,cs),
(518,340,o),
(472,408,o),
(472,514,cs),
(472,652,o),
(540,746,o),
(638,746,cs),
(702,746,o),
(746,708,o),
(768,642,c),
(1140,794,l),
(1070,994,o),
(892,1110,o),
(654,1110,cs),
(276,1110,o),
(16,858,o),
(16,484,cs),
(16,180,o),
(216,-16,o),
(538,-16,cs)
);
}
);
width = 1122;
},
{
anchors = (
{
name = bottom;
position = "{369, 0}";
},
{
name = top;
position = "{557, 1094}";
}
);
layerId = "CFAEB7A8-48EA-4DE1-AFDA-6738335377BD";
shapes = (
{
closed = 1;
nodes = (
(590,-16,o),
(749,96,o),
(832,290,c),
(580,458,l),
(552,376,o),
(513,340,o),
(465,340,cs),
(405,340,o),
(374,408,o),
(379,514,cs),
(386,652,o),
(441,746,o),
(515,746,cs),
(563,746,o),
(594,708,o),
(607,642,c),
(894,794,l),
(851,994,o),
(723,1110,o),
(545,1110,cs),
(261,1110,o),
(54,858,o),
(36,484,cs),
(21,180,o),
(161,-16,o),
(403,-16,cs)
);
}
);
width = 842;
},
{
anchors = (
{
name = bottom;
position = "{478, 0}";
},
{
name = top;
position = "{670, 1062}";
}
);
layerId = "AC0EE6F4-16E5-4030-8D81-C9AA237C4AA5";
shapes = (
{
closed = 1;
nodes = (
(740,-8,o),
(900,62,o),
(1008,182,c),
(892,308,l),
(814,222,o),
(700,178,o),
(566,178,cs),
(396,178,o),
(282,306,o),
(282,492,cs),
(282,720,o),
(436,880,o),
(636,880,cs),
(764,880,o),
(862,834,o),
(928,758,c),
(1068,906,l),
(980,1010,o),
(836,1070,o),
(646,1070,cs),
(306,1070,o),
(52,824,o),
(52,476,cs),
(52,188,o),
(244,-8,o),
(536,-8,cs)
);
}
);
width = 1128;
},
{
anchors = (
{
name = bottom;
position = "{359, 0}";
},
{
name = top;
position = "{554, 1062}";
}
);
layerId = "58A41879-64B1-4F52-8959-748DC716EC4E";
shapes = (
{
closed = 1;
nodes = (
(555,-8,o),
(678,62,o),
(765,182,c),
(684,308,l),
(621,222,o),
(534,178,o),
(433,178,cs),
(306,178,o),
(226,306,o),
(236,492,cs),
(247,720,o),
(370,880,o),
(520,880,cs),
(616,880,o),
(687,834,o),
(733,758,c),
(845,906,l),
(784,1010,o),
(679,1070,o),
(537,1070,cs),
(282,1070,o),
(79,824,o),
(62,476,cs),
(48,188,o),
(183,-8,o),
(402,-8,cs)
);
}
);
width = 846;
},
{
anchors = (
{
name = bottom;
position = "{514, 0}";
},
{
name = top;
position = "{634, 1034}";
}
);
layerId = "DCC69D3D-7CEF-4C2A-8AC6-F0104D87F396";
shapes = (
{
closed = 1;
nodes = (
(692,0,o),
(830,60,o),
(930,162,c),
(906,190,l),
(814,94,o),
(686,40,o),
(544,40,cs),
(294,40,o),
(124,216,o),
(124,470,cs),
(124,776,o),
(350,994,o),
(638,994,cs),
(768,994,o),
(874,946,o),
(952,868,c),
(980,896,l),
(898,982,o),
(780,1034,o),
(642,1034,cs),
(334,1034,o),
(86,794,o),
(86,468,cs),
(86,194,o),
(272,0,o),
(540,0,cs)
);
}
);
width = 1114;
},
{
anchors = (
{
name = bottom;
position = "{386, 0}";
},
{
name = top;
position = "{526, 1031}";
}
);
layerId = "C062F820-65A0-41D8-894E-E8AB249BF7F4";
shapes = (
{
closed = 1;
nodes = (
(519,0,o),
(625,60,o),
(705,162,c),
(689,190,l),
(615,94,o),
(516,40,o),
(410,40,cs),
(222,40,o),
(104,215,o),
(116,469,cs),
(131,774,o),
(311,992,o),
(527,992,cs),
(624,992,o),
(702,944,o),
(756,866,c),
(779,894,l),
(721,980,o),
(635,1031,o),
(532,1031,cs),
(301,1031,o),
(103,792,o),
(87,467,cs),
(74,194,o),
(204,0,o),
(405,0,cs)
);
}
);
width = 836;
}
);
leftKerningGroup = o;
rightKerningGroup = c;
unicode = 99;
},
{
glyphname = d;
layers = (
{
anchors = (
{
name = bottom;
position = "{585, 0}";
},
{
name = topright;
position = "{1581, 1484}";
},
{
name = top;
position = "{1227, 1484}";
}
);
layerId = "80EDA03B-FCE6-4340-AE48-D9302D36C121";
shapes = (
{
closed = 1;
nodes = (
(547,-16,o),
(651,30,o),
(737,108,c),
(715,0,l),
(1165,0,l),
(1461,1484,l),
(1011,1484,l),
(905,950,l),
(843,1054,o),
(737,1110,o),
(597,1110,cs),
(281,1110,o),
(33,824,o),
(33,458,cs),
(33,178,o),
(199,-16,o),
(437,-16,cs)
);
},
{
closed = 1;
nodes = (
(537,320,o),
(487,382,o),
(487,488,cs),
(487,628,o),
(575,742,o),
(683,742,cs),
(769,742,o),
(823,678,o),
(823,576,cs),
(823,436,o),
(731,320,o),
(621,320,cs)
);
}
);
width = 1380;
},
{
anchors = (
{
name = bottom;
position = "{439, 0}";
},
{
name = topright;
position = "{1259, 1484}";
},
{
name = top;
position = "{993, 1484}";
}
);
layerId = "CFAEB7A8-48EA-4DE1-AFDA-6738335377BD";
shapes = (
{
closed = 1;
nodes = (
(409,-16,o),
(490,30,o),
(558,108,c),
(536,0,l),
(874,0,l),
(1168,1484,l),
(831,1484,l),
(725,950,l),
(684,1054,o),
(607,1110,o),
(502,1110,cs),
(265,1110,o),
(65,824,o),
(47,458,cs),
(33,178,o),
(148,-16,o),
(327,-16,cs)
);
},
{
closed = 1;
nodes = (
(418,320,o),
(384,382,o),
(389,488,cs),
(396,628,o),
(468,742,o),
(549,742,cs),
(613,742,o),
(650,678,o),
(645,576,cs),
(639,436,o),
(564,320,o),
(481,320,cs)
);
}
);
width = 1035;
},
{
anchors = (
{
name = bottom;
position = "{571, 0}";
},
{
name = topright;
position = "{1507, 1484}";
},
{
name = top;
position = "{1265, 1484}";
}
);
layerId = "AC0EE6F4-16E5-4030-8D81-C9AA237C4AA5";
shapes = (
{
closed = 1;
nodes = (
(659,-10,o),
(789,52,o),
(885,156,c),
(853,0,l),
(1081,0,l),
(1377,1484,l),
(1149,1484,l),
(1019,832,l),
(963,988,o),
(835,1072,o),
(647,1072,cs),
(317,1072,o),
(67,810,o),
(67,468,cs),
(67,182,o),
(245,-10,o),
(509,-10,cs)
);
},
{
closed = 1;
nodes = (
(415,168,o),
(299,292,o),
(299,478,cs),
(299,700,o),
(467,882,o),
(675,882,cs),
(847,882,o),
(959,758,o),
(959,572,cs),
(959,348,o),
(795,168,o),
(587,168,cs)
);
}
);
width = 1364;
},
{
anchors = (
{
name = bottom;
position = "{428, 0}";
},
{
name = topright;
position = "{1203, 1484}";
},
{
name = top;
position = "{1022, 1484}";
}
);
layerId = "58A41879-64B1-4F52-8959-748DC716EC4E";
shapes = (
{
closed = 1;
nodes = (
(494,-10,o),
(594,52,o),
(671,156,c),
(640,0,l),
(811,0,l),
(1105,1484,l),
(934,1484,l),
(805,832,l),
(771,988,o),
(679,1072,o),
(538,1072,cs),
(290,1072,o),
(90,810,o),
(73,468,cs),
(59,182,o),
(183,-10,o),
(381,-10,cs)
);
},
{
closed = 1;
nodes = (
(319,168,o),
(239,292,o),
(248,478,cs),
(258,700,o),
(393,882,o),
(549,882,cs),
(678,882,o),
(756,758,o),
(747,572,cs),
(736,348,o),
(604,168,o),
(448,168,cs)
);
}
);
width = 1023;
},
{
anchors = (
{
name = bottom;
position = "{605, 0}";
},
{
name = topright;
position = "{1491, 1484}";
},
{
name = top;
position = "{1292, 1484}";
}
);
layerId = "DCC69D3D-7CEF-4C2A-8AC6-F0104D87F396";
shapes = (
{
closed = 1;
nodes = (
(751,-4,o),
(923,92,o),
(1027,256,c),
(975,0,l),
(1015,0,l),
(1311,1484,l),
(1271,1484,l),
(1111,680,l),
(1071,896,o),
(893,1038,o),
(657,1038,cs),
(347,1038,o),
(99,776,o),
(99,448,cs),
(99,182,o),
(289,-4,o),
(561,-4,cs)
);
},
{
closed = 1;
nodes = (
(313,36,o),
(139,206,o),
(139,454,cs),
(139,756,o),
(369,998,o),
(653,998,cs),
(905,998,o),
(1079,828,o),
(1079,580,cs),
(1079,278,o),
(851,36,o),
(565,36,cs)
);
}
);
width = 1320;
},
{
anchors = (
{
name = bottom;
position = "{454, 0}";
},
{
name = topright;
position = "{1191, 1481}";
},
{
name = top;
position = "{1042, 1481}";
}
);
layerId = "C062F820-65A0-41D8-894E-E8AB249BF7F4";
shapes = (
{
closed = 1;
nodes = (
(563,-4,o),
(697,92,o),
(783,255,c),
(731,0,l),
(761,0,l),
(1056,1480,l),
(1026,1480,l),
(866,678,l),
(847,894,o),
(720,1035,o),
(543,1035,cs),
(311,1035,o),
(112,774,o),
(96,447,cs),
(83,182,o),
(217,-4,o),
(421,-4,cs)
);
},
{
closed = 1;
nodes = (
(237,36,o),
(114,205,o),
(126,453,cs),
(141,754,o),
(325,996,o),
(538,996,cs),
(727,996,o),
(850,826,o),
(838,579,cs),
(823,277,o),
(640,36,o),
(426,36,cs)
);
}
);
width = 990;
}
);
leftKerningGroup = o;
rightKerningGroup = l;
unicode = 100;
},
{
glyphname = e;
layers = (
{
anchors = (
{
name = bottom;
position = "{549, 0}";
},
{
name = ogonek;
position = "{1021, 0}";
},
{
name = top;
position = "{701, 1094}";
}
);
layerId = "80EDA03B-FCE6-4340-AE48-D9302D36C121";
shapes = (
{
closed = 1;
nodes = (
(801,-14,o),
(959,48,o),
(1087,168,c),
(855,396,l),
(785,342,o),
(709,314,o),
(635,314,cs),
(521,314,o),
(461,374,o),
(461,486,cs),
(461,654,o),
(559,804,o),
(671,804,cs),
(751,804,o),
(799,732,o),
(769,654,c),
(355,654,l),
(355,446,l),
(1187,446,l),
(1273,832,o),
(1045,1108,o),
(639,1108,cs),
(279,1108,o),
(21,844,o),
(21,478,cs),
(21,178,o),
(253,-14,o),
(619,-14,cs)
);
}
);
width = 1228;
},
{
anchors = (
{
name = bottom;
position = "{412, 0}";
},
{
name = ogonek;
position = "{766, 0}";
},
{
name = top;
position = "{579, 1094}";
}
);
layerId = "CFAEB7A8-48EA-4DE1-AFDA-6738335377BD";
shapes = (
{
closed = 1;
nodes = (
(600,-14,o),
(722,48,o),
(823,168,c),
(661,396,l),
(605,342,o),
(547,314,o),
(492,314,cs),
(406,314,o),
(364,374,o),
(370,486,cs),
(378,654,o),
(459,804,o),
(543,804,cs),
(603,804,o),
(635,732,o),
(609,654,c),
(298,654,l),
(288,446,l),
(912,446,l),
(995,832,o),
(838,1108,o),
(533,1108,cs),
(263,1108,o),
(57,844,o),
(39,478,cs),
(24,178,o),
(189,-14,o),
(464,-14,cs)
);
}
);
width = 921;
},
{
anchors = (
{
name = bottom;
position = "{545, 0}";
},
{
name = ogonek;
position = "{935, 0}";
},
{
name = top;
position = "{691, 1070}";
}
);
layerId = "AC0EE6F4-16E5-4030-8D81-C9AA237C4AA5";
shapes = (
{
closed = 1;
nodes = (
(743,-12,o),
(879,34,o),
(985,124,c),
(881,264,l),
(801,200,o),
(699,164,o),
(593,164,cs),
(399,164,o),
(281,282,o),
(281,474,cs),
(281,712,o),
(445,892,o),
(663,892,cs),
(833,892,o),
(925,792,o),
(925,608,c),
(267,608,l),
(235,444,l),
(1109,444,l),
(1193,816,o),
(1011,1070,o),
(661,1070,cs),
(315,1070,o),
(55,814,o),
(55,476,cs),
(55,180,o),
(263,-12,o),
(585,-12,cs)
);
}
);
width = 1176;
},
{
anchors = (
{
name = bottom;
position = "{409, 0}";
},
{
name = ogonek;
position = "{701, 0}";
},
{
name = top;
position = "{571, 1070}";
}
);
layerId = "58A41879-64B1-4F52-8959-748DC716EC4E";
shapes = (
{
closed = 1;
nodes = (
(557,-12,o),
(661,34,o),
(745,124,c),
(674,264,l),
(611,200,o),
(532,164,o),
(453,164,cs),
(307,164,o),
(225,282,o),
(234,474,cs),
(246,712,o),
(377,892,o),
(541,892,cs),
(668,892,o),
(732,792,o),
(723,608,c),
(230,608,l),
(198,444,l),
(853,444,l),
(935,816,o),
(811,1070,o),
(548,1070,cs),
(289,1070,o),
(81,814,o),
(65,476,cs),
(50,180,o),
(197,-12,o),
(438,-12,cs)
);
}
);
width = 882;
},
{
anchors = (
{
name = bottom;
position = "{553, 2}";
},
{
name = ogonek;
position = "{863, 0}";
},
{
name = top;
position = "{683, 1034}";
}
);
layerId = "DCC69D3D-7CEF-4C2A-8AC6-F0104D87F396";
shapes = (
{
closed = 1;
nodes = (
(713,0,o),
(859,60,o),
(963,162,c),
(937,190,l),
(843,94,o),
(707,40,o),
(557,40,cs),
(309,40,o),
(143,216,o),
(143,470,cs),
(143,776,o),
(365,994,o),
(651,994,cs),
(907,994,o),
(1055,816,o),
(1049,558,c),
(135,558,l),
(131,518,l),
(1085,518,l),
(1113,818,o),
(943,1034,o),
(655,1034,cs),
(349,1034,o),
(103,794,o),
(103,468,cs),
(103,194,o),
(287,0,o),
(553,0,cs)
);
}
);
width = 1178;
},
{
anchors = (
{
name = bottom;
position = "{415, 2}";
},
{
name = ogonek;
position = "{647, 0}";
},
{
name = top;
position = "{563, 1031}";
}
);
layerId = "C062F820-65A0-41D8-894E-E8AB249BF7F4";
shapes = (
{
closed = 1;
nodes = (
(535,0,o),
(647,60,o),
(730,162,c),
(712,190,l),
(637,94,o),
(532,40,o),
(420,40,cs),
(234,40,o),
(118,215,o),
(130,469,cs),
(145,774,o),
(322,992,o),
(537,992,cs),
(729,992,o),
(831,814,o),
(814,557,c),
(128,557,l),
(124,517,l),
(839,517,l),
(875,816,o),
(758,1031,o),
(542,1031,cs),
(312,1031,o),
(116,792,o),
(100,467,cs),
(87,194,o),
(215,0,o),
(415,0,cs)
);
}
);
width = 884;
}
);
leftKerningGroup = o;
rightKerningGroup = e;
unicode = 101;
},
{
glyphname = f;
layers = (
{
anchors = (
{
name = top;
position = "{724, 1564}";
}
);
layerId = "80EDA03B-FCE6-4340-AE48-D9302D36C121";
shapes = (
{
closed = 1;
nodes = (
(149,1094,l),
(93,810,l),
(903,810,l),
(959,1094,l)
);
},
{
closed = 1;
nodes = (
(1091,1518,l),
(1011,1546,o),
(917,1564,o),
(821,1564,cs),
(557,1564,o),
(369,1438,o),
(323,1210,cs),
(81,0,l),
(529,0,l),
(751,1106,ls),
(763,1164,o),
(827,1218,o),
(901,1216,c),
(919,1216,o),
(957,1208,o),
(985,1198,c)
);
}
);
width = 888;
},
{
anchors = (
{
name = top;
position = "{620, 1564}";
}
);
layerId = "CFAEB7A8-48EA-4DE1-AFDA-6738335377BD";
shapes = (
{
closed = 1;
nodes = (
(165,1094,l),
(109,810,l),
(717,810,l),
(773,1094,l)
);
},
{
closed = 1;
nodes = (
(892,1518,l),
(834,1546,o),
(764,1564,o),
(692,1564,cs),
(494,1564,o),
(347,1438,o),
(301,1210,cs),
(61,0,l),
(397,0,l),
(617,1106,ls),
(629,1164,o),
(680,1218,o),
(735,1216,c),
(749,1216,o),
(777,1208,o),
(797,1198,c)
);
}
);
width = 666;
},
{
anchors = (
{
name = top;
position = "{700, 1532}";
}
);
layerId = "AC0EE6F4-16E5-4030-8D81-C9AA237C4AA5";
shapes = (
{
closed = 1;
nodes = (
(168,1062,l),
(136,898,l),
(782,898,l),
(814,1062,l)
);
},
{
closed = 1;
nodes = (
(946,1482,l),
(894,1514,o),
(828,1532,o),
(754,1532,cs),
(578,1532,o),
(382,1426,o),
(332,1176,cs),
(96,0,l),
(324,0,l),
(560,1184,ls),
(580,1288,o),
(664,1342,o),
(750,1342,cs),
(788,1342,o),
(842,1328,o),
(878,1308,c)
);
}
);
width = 780;
},
{
anchors = (
{
name = top;
position = "{600, 1532}";
}
);
layerId = "58A41879-64B1-4F52-8959-748DC716EC4E";
shapes = (
{
closed = 1;
nodes = (
(178,1062,l),
(146,898,l),
(630,898,l),
(662,1062,l)
);
},
{
closed = 1;
nodes = (
(782,1482,l),
(745,1514,o),
(696,1532,o),
(640,1532,cs),
(508,1532,o),
(356,1426,o),
(307,1176,cs),
(72,0,l),
(243,0,l),
(478,1184,ls),
(498,1288,o),
(564,1342,o),
(628,1342,cs),
(657,1342,o),
(696,1328,o),
(722,1308,c)
);
}
);
width = 585;
},
{
anchors = (
{
name = top;
position = "{677, 1522}";
}
);
layerId = "DCC69D3D-7CEF-4C2A-8AC6-F0104D87F396";
shapes = (
{
closed = 1;
nodes = (
(198,1034,l),
(190,994,l),
(696,994,l),
(704,1034,l)
);
},
{
closed = 1;
nodes = (
(872,1476,l),
(828,1504,o),
(772,1524,o),
(714,1524,cs),
(554,1524,o),
(400,1386,o),
(362,1202,cs),
(120,0,l),
(160,0,l),
(402,1198,ls),
(436,1362,o),
(570,1484,o),
(714,1484,cs),
(762,1484,o),
(808,1468,o),
(848,1444,c)
);
}
);
width = 700;
},
{
anchors = (
{
name = top;
position = "{582, 1518}";
}
);
layerId = "C062F820-65A0-41D8-894E-E8AB249BF7F4";
shapes = (
{
closed = 1;
nodes = (
(199,1031,l),
(191,992,l),
(570,992,l),
(578,1031,l)
);
},
{
closed = 1;
nodes = (
(726,1472,l),
(694,1500,o),
(653,1520,o),
(610,1520,cs),
(490,1520,o),
(368,1383,o),
(330,1199,cs),
(90,0,l),
(120,0,l),
(360,1195,ls),
(393,1359,o),
(500,1480,o),
(608,1480,cs),
(644,1480,o),
(678,1464,o),
(706,1440,c)
);
}
);
width = 525;
}
);
leftKerningGroup = f;
rightKerningGroup = f;
unicode = 102;
},
{
glyphname = g;
layers = (
{
anchors = (
{
name = bottom;
position = "{544, 0}";
},
{
name = top;
position = "{764, 1094}";
}
);
layerId = "80EDA03B-FCE6-4340-AE48-D9302D36C121";
shapes = (
{
closed = 1;
nodes = (
(792,-408,o),
(1056,-232,o),
(1114,72,cs),
(1318,1094,l),
(868,1094,l),
(842,968,l),
(784,1060,o),
(686,1110,o),
(558,1110,cs),
(262,1110,o),
(28,838,o),
(28,490,cs),
(28,240,o),
(184,64,o),
(406,64,cs),
(506,64,o),
(602,98,o),
(682,156,c),
(676,120,ls),
(658,12,o),
(564,-60,o),
(430,-60,cs),
(330,-60,o),
(198,-34,o),
(108,26,c),
(-74,-256,l),
(36,-332,o),
(222,-408,o),
(452,-408,cs)
);
},
{
closed = 1;
nodes = (
(522,400,o),
(482,442,o),
(482,520,cs),
(482,642,o),
(556,742,o),
(648,742,cs),
(718,742,o),
(764,688,o),
(764,602,cs),
(764,492,o),
(684,400,o),
(592,400,cs)
);
}
);
width = 1308;
},
{
anchors = (
{
name = bottom;
position = "{408, 0}";
},
{
name = top;
position = "{626, 1094}";
}
);
layerId = "CFAEB7A8-48EA-4DE1-AFDA-6738335377BD";
shapes = (
{
closed = 1;
nodes = (
(574,-408,o),
(781,-232,o),
(839,72,cs),
(1042,1094,l),
(705,1094,l),
(679,968,l),
(640,1060,o),
(569,1110,o),
(473,1110,cs),
(251,1110,o),
(62,838,o),
(45,490,cs),
(33,240,o),
(141,64,o),
(308,64,cs),
(383,64,o),
(456,98,o),
(519,156,c),
(513,120,ls),
(494,12,o),
(420,-60,o),
(320,-60,cs),
(245,-60,o),
(147,-34,o),
(82,26,c),
(-68,-256,l),
(11,-332,o),
(147,-408,o),
(319,-408,cs)
);
},
{
closed = 1;
nodes = (
(411,400,o),
(383,442,o),
(387,520,cs),
(393,642,o),
(453,742,o),
(522,742,cs),
(575,742,o),
(607,688,o),
(602,602,cs),
(597,492,o),
(533,400,o),
(464,400,cs)
);
}
);
width = 981;
},
{
anchors = (
{
name = bottom;
position = "{535, 0}";
},
{
name = top;
position = "{707, 1062}";
}
);
layerId = "AC0EE6F4-16E5-4030-8D81-C9AA237C4AA5";
shapes = (
{
closed = 1;
nodes = (
(759,-394,o),
(969,-248,o),
(1027,32,cs),
(1239,1062,l),
(1011,1062,l),
(967,852,l),
(915,996,o),
(795,1072,o),
(619,1072,cs),
(309,1072,o),
(73,824,o),
(73,502,cs),
(73,234,o),
(241,52,o),
(489,52,cs),
(623,52,o),
(745,106,o),
(839,206,c),
(801,46,ls),
(759,-126,o),
(629,-214,o),
(417,-214,cs),
(295,-214,o),
(185,-176,o),
(93,-100,c),
(-13,-248,l),
(125,-348,o),
(263,-394,o),
(419,-394,cs)
);
},
{
closed = 1;
nodes = (
(411,230,o),
(305,342,o),
(305,512,cs),
(305,716,o),
(459,882,o),
(649,882,cs),
(807,882,o),
(911,770,o),
(911,600,cs),
(911,394,o),
(759,230,o),
(569,230,cs)
);
}
);
width = 1280;
},
{
anchors = (
{
name = bottom;
position = "{401, 0}";
},
{
name = top;
position = "{582, 1062}";
}
);
layerId = "58A41879-64B1-4F52-8959-748DC716EC4E";
shapes = (
{
closed = 1;
nodes = (
(550,-394,o),
(715,-248,o),
(772,32,cs),
(981,1062,l),
(810,1062,l),
(767,852,l),
(735,996,o),
(649,1072,o),
(517,1072,cs),
(284,1072,o),
(95,824,o),
(79,502,cs),
(66,234,o),
(183,52,o),
(369,52,cs),
(470,52,o),
(564,106,o),
(639,206,c),
(603,46,ls),
(563,-126,o),
(461,-214,o),
(302,-214,cs),
(211,-214,o),
(130,-176,o),
(65,-100,c),
(-22,-248,l),
(77,-348,o),
(178,-394,o),
(295,-394,cs)
);
},
{
closed = 1;
nodes = (
(319,230,o),
(245,342,o),
(254,512,cs),
(264,716,o),
(387,882,o),
(530,882,cs),
(648,882,o),
(721,770,o),
(713,600,cs),
(703,394,o),
(580,230,o),
(438,230,cs)
);
}
);
width = 960;
},
{
anchors = (
{
name = bottom;
position = "{527, 0}";
},
{
name = top;
position = "{735, 1034}";
}
);
layerId = "DCC69D3D-7CEF-4C2A-8AC6-F0104D87F396";
shapes = (
{
closed = 1;
nodes = (
(727,-388,o),
(923,-228,o),
(977,44,cs),
(1173,1034,l),
(1133,1034,l),
(1067,704,l),
(1029,906,o),
(861,1038,o),
(639,1038,cs),
(345,1038,o),
(111,792,o),
(111,484,cs),
(111,234,o),
(291,58,o),
(547,58,cs),
(727,58,o),
(889,148,o),
(987,302,c),
(937,48,ls),
(887,-202,o),
(705,-348,o),
(445,-346,c),
(273,-340,o),
(149,-288,o),
(49,-180,c),
(19,-204,l),
(133,-324,o),
(263,-380,o),
(445,-386,c)
);
},
{
closed = 1;
nodes = (
(315,98,o),
(151,258,o),
(151,490,cs),
(151,772,o),
(367,998,o),
(635,998,cs),
(873,998,o),
(1037,840,o),
(1037,606,cs),
(1037,324,o),
(821,98,o),
(553,98,cs)
);
}
);
width = 1260;
},
{
anchors = (
{
name = bottom;
position = "{395, 0}";
},
{
name = top;
position = "{602, 1031}";
}
);
layerId = "C062F820-65A0-41D8-894E-E8AB249BF7F4";
shapes = (
{
closed = 1;
nodes = (
(526,-387,o),
(681,-227,o),
(735,44,cs),
(930,1031,l),
(900,1031,l),
(835,702,l),
(816,904,o),
(696,1035,o),
(530,1035,cs),
(309,1035,o),
(122,790,o),
(107,483,cs),
(95,233,o),
(221,58,o),
(413,58,cs),
(548,58,o),
(674,148,o),
(755,301,c),
(705,48,ls),
(655,-201,o),
(512,-347,o),
(317,-345,c),
(188,-339,o),
(98,-287,o),
(28,-180,c),
(4,-203,l),
(84,-323,o),
(179,-379,o),
(315,-385,c)
);
},
{
closed = 1;
nodes = (
(241,98,o),
(126,257,o),
(137,489,cs),
(151,770,o),
(324,996,o),
(525,996,cs),
(703,996,o),
(819,838,o),
(807,604,cs),
(794,323,o),
(621,98,o),
(420,98,cs)
);
}
);
width = 945;
}
);
leftKerningGroup = o;
rightKerningGroup = u;
unicode = 103;
},
